<?xml version="1.0" encoding="utf-8" standalone="no"?>
<!DOCTYPE svg PUBLIC "-//W3C//DTD SVG 1.1//EN"
  "http://www.w3.org/Graphics/SVG/1.1/DTD/svg11.dtd">
<svg xmlns:xlink="http://www.w3.org/1999/xlink" width="756.316962pt" height="538.779375pt" viewBox="0 0 756.316962 538.779375" xmlns="http://www.w3.org/2000/svg" version="1.1">
 <metadata>
  <rdf:RDF xmlns:dc="http://purl.org/dc/elements/1.1/" xmlns:cc="http://creativecommons.org/ns#" xmlns:rdf="http://www.w3.org/1999/02/22-rdf-syntax-ns#">
   <cc:Work>
    <dc:type rdf:resource="http://purl.org/dc/dcmitype/StillImage"/>
    <dc:date>2025-08-11T17:56:06.662643</dc:date>
    <dc:format>image/svg+xml</dc:format>
    <dc:creator>
     <cc:Agent>
      <dc:title>Matplotlib v3.10.3, https://matplotlib.org/</dc:title>
     </cc:Agent>
    </dc:creator>
   </cc:Work>
  </rdf:RDF>
 </metadata>
 <defs>
  <style type="text/css">*{stroke-linejoin: round; stroke-linecap: butt}</style>
 </defs>
 <g id="figure_1">
  <g id="patch_1">
   <path d="M 0 538.779375 
L 756.316962 538.779375 
L 756.316962 0 
L 0 0 
z
" style="fill: #ffffff"/>
  </g>
  <g id="axes_1">
   <g id="patch_2">
    <path d="M 73.23375 477.995625 
L 742.83375 477.995625 
L 742.83375 34.475625 
L 73.23375 34.475625 
z
" style="fill: #ffffff"/>
   </g>
   <g id="FillBetweenPolyCollection_1">
    <defs>
     <path id="meaa53c9bac" d="M 73.240127 -213.623155 
L 73.240127 -60.78375 
L 76.444691 -83.041416 
L 79.649255 -95.138257 
L 82.853819 -90.936384 
L 86.058383 -98.281638 
L 89.262946 -115.181147 
L 92.46751 -119.636182 
L 95.672074 -118.224438 
L 98.876638 -114.430868 
L 102.081202 -118.655807 
L 105.285766 -120.240985 
L 108.49033 -136.193458 
L 111.694894 -134.643367 
L 114.899458 -136.604732 
L 118.104021 -132.072219 
L 121.308585 -134.12626 
L 124.513149 -137.968905 
L 127.717713 -137.70176 
L 130.922277 -139.46762 
L 134.126841 -144.538367 
L 137.331405 -158.916561 
L 140.535969 -162.287429 
L 143.740532 -163.454047 
L 146.945096 -174.691325 
L 150.14966 -173.908242 
L 153.354224 -173.790614 
L 156.558788 -180.694952 
L 159.763352 -177.719175 
L 162.967916 -166.960103 
L 166.17248 -171.72917 
L 169.377044 -192.229033 
L 172.581607 -189.838975 
L 175.786171 -199.313735 
L 178.990735 -198.048802 
L 182.195299 -205.691854 
L 185.399863 -208.348243 
L 188.604427 -205.236455 
L 191.808991 -207.803851 
L 195.013555 -212.122285 
L 198.218118 -225.831318 
L 201.422682 -223.769887 
L 204.627246 -241.689344 
L 207.83181 -239.216017 
L 211.036374 -255.725343 
L 214.240938 -255.659837 
L 217.445502 -257.656584 
L 220.650066 -258.053374 
L 223.854629 -273.387382 
L 227.059193 -282.816531 
L 230.263757 -281.257472 
L 233.468321 -277.691932 
L 236.672885 -294.068341 
L 239.877449 -310.459534 
L 243.082013 -320.697615 
L 246.286577 -329.535041 
L 249.491141 -328.002877 
L 252.695704 -335.966255 
L 255.900268 -336.983538 
L 259.104832 -335.14431 
L 262.309396 -333.784554 
L 265.51396 -330.776209 
L 268.718524 -330.353867 
L 271.923088 -343.430345 
L 275.127652 -354.046666 
L 278.332215 -355.955207 
L 281.536779 -356.293655 
L 284.741343 -352.951543 
L 287.945907 -362.141139 
L 291.150471 -360.239288 
L 294.355035 -348.804068 
L 297.559599 -360.835289 
L 300.764163 -355.973479 
L 303.968727 -352.496033 
L 307.17329 -350.347478 
L 310.377854 -347.449434 
L 313.582418 -348.736953 
L 316.786982 -340.409145 
L 319.991546 -340.785325 
L 323.19611 -336.537036 
L 326.400674 -336.182546 
L 329.605238 -339.355405 
L 332.809801 -338.964231 
L 336.014365 -334.900038 
L 339.218929 -341.707183 
L 342.423493 -349.272751 
L 345.628057 -349.777706 
L 348.832621 -349.722068 
L 352.037185 -354.481221 
L 355.241749 -359.258398 
L 358.446312 -360.260197 
L 361.650876 -365.490148 
L 364.85544 -359.03685 
L 368.060004 -353.396469 
L 371.264568 -358.7791 
L 374.469132 -358.002578 
L 377.673696 -352.796934 
L 380.87826 -348.399272 
L 384.082824 -361.246364 
L 387.287387 -351.366792 
L 390.491951 -338.286901 
L 393.696515 -321.595922 
L 396.901079 -307.591982 
L 400.105643 -295.528037 
L 403.310207 -279.028207 
L 406.514771 -269.52722 
L 409.719335 -260.47282 
L 412.923898 -261.434879 
L 416.128462 -250.732305 
L 419.333026 -281.765012 
L 422.53759 -273.438746 
L 425.742154 -274.041583 
L 428.946718 -304.823459 
L 432.151282 -307.496401 
L 435.355846 -302.726942 
L 438.56041 -311.249027 
L 441.764973 -342.835328 
L 444.969537 -341.967064 
L 448.174101 -336.110392 
L 451.378665 -336.800394 
L 454.583229 -326.462161 
L 457.787793 -312.04529 
L 460.992357 -295.24262 
L 464.196921 -309.99465 
L 467.401484 -311.078722 
L 470.606048 -311.467903 
L 473.810612 -310.673965 
L 477.015176 -315.110759 
L 480.21974 -330.548708 
L 483.424304 -328.940447 
L 486.628868 -328.857516 
L 489.833432 -312.22198 
L 493.037995 -298.528002 
L 496.242559 -289.231218 
L 499.447123 -284.939363 
L 502.651687 -274.109775 
L 505.856251 -305.798284 
L 509.060815 -311.6382 
L 512.265379 -319.948319 
L 515.469943 -312.471099 
L 518.674507 -315.098388 
L 521.87907 -324.790051 
L 525.083634 -311.667764 
L 528.288198 -305.22765 
L 531.492762 -303.88723 
L 534.697326 -300.386976 
L 537.90189 -294.880835 
L 541.106454 -288.891064 
L 544.311018 -278.428592 
L 547.515581 -271.223915 
L 550.720145 -262.636452 
L 553.924709 -252.682565 
L 557.129273 -245.617486 
L 560.333837 -241.052193 
L 563.538401 -232.181946 
L 566.742965 -227.679186 
L 569.947529 -222.903366 
L 573.152093 -232.111846 
L 576.356656 -234.569436 
L 579.56122 -226.434684 
L 582.765784 -239.786034 
L 585.970348 -234.491705 
L 589.174912 -231.427063 
L 592.379476 -236.9738 
L 595.58404 -241.147132 
L 598.788604 -233.804714 
L 601.993167 -242.035458 
L 605.197731 -241.192906 
L 608.402295 -247.951799 
L 611.606859 -243.952981 
L 614.811423 -248.527166 
L 618.015987 -257.973487 
L 621.220551 -252.716929 
L 624.425115 -261.673411 
L 627.629678 -257.293543 
L 630.834242 -251.063806 
L 634.038806 -242.977504 
L 637.24337 -245.952063 
L 640.447934 -238.49528 
L 643.652498 -242.670461 
L 646.857062 -248.543745 
L 650.061626 -241.443084 
L 653.26619 -233.940773 
L 656.470753 -235.766827 
L 659.675317 -229.918776 
L 662.879881 -226.414787 
L 666.084445 -230.724441 
L 669.289009 -232.395889 
L 672.493573 -220.258246 
L 675.698137 -207.386479 
L 678.902701 -195.526272 
L 682.107264 -180.726252 
L 685.311828 -167.740357 
L 688.516392 -226.292467 
L 691.720956 -216.899505 
L 694.92552 -231.454581 
L 698.130084 -257.166764 
L 701.334648 -251.652813 
L 704.539212 -256.815764 
L 707.743776 -245.153936 
L 710.948339 -243.702772 
L 710.948339 -477.402862 
L 710.948339 -477.402862 
L 707.743776 -476.84832 
L 704.539212 -476.759775 
L 701.334648 -478.104771 
L 698.130084 -477.759751 
L 694.92552 -476.361096 
L 691.720956 -473.9204 
L 688.516392 -477.190514 
L 685.311828 -477.134997 
L 682.107264 -476.022872 
L 678.902701 -475.738562 
L 675.698137 -473.639752 
L 672.493573 -474.898877 
L 669.289009 -476.774987 
L 666.084445 -477.599273 
L 662.879881 -477.379243 
L 659.675317 -477.450615 
L 656.470753 -475.136256 
L 653.26619 -475.982985 
L 650.061626 -476.569727 
L 646.857062 -477.991809 
L 643.652498 -478.072504 
L 640.447934 -478.371346 
L 637.24337 -476.963572 
L 634.038806 -478.479374 
L 630.834242 -474.04053 
L 627.629678 -475.818353 
L 624.425115 -477.895909 
L 621.220551 -477.423125 
L 618.015987 -478.263226 
L 614.811423 -477.217043 
L 611.606859 -477.51942 
L 608.402295 -475.3672 
L 605.197731 -477.426578 
L 601.993167 -477.639228 
L 598.788604 -476.607146 
L 595.58404 -477.509768 
L 592.379476 -474.4493 
L 589.174912 -477.48088 
L 585.970348 -478.476337 
L 582.765784 -478.563998 
L 579.56122 -477.511342 
L 576.356656 -473.537855 
L 573.152093 -477.611166 
L 569.947529 -473.059209 
L 566.742965 -475.44784 
L 563.538401 -476.589786 
L 560.333837 -472.60439 
L 557.129273 -475.583524 
L 553.924709 -474.543678 
L 550.720145 -470.338756 
L 547.515581 -471.404867 
L 544.311018 -473.707663 
L 541.106454 -471.288007 
L 537.90189 -473.973754 
L 534.697326 -469.612274 
L 531.492762 -471.645273 
L 528.288198 -472.01241 
L 525.083634 -470.830769 
L 521.87907 -472.674873 
L 518.674507 -472.60527 
L 515.469943 -470.065822 
L 512.265379 -465.48048 
L 509.060815 -462.890869 
L 505.856251 -466.655425 
L 502.651687 -461.977379 
L 499.447123 -467.495395 
L 496.242559 -468.112655 
L 493.037995 -468.365051 
L 489.833432 -469.99085 
L 486.628868 -467.991561 
L 483.424304 -465.726635 
L 480.21974 -470.132218 
L 477.015176 -465.27524 
L 473.810612 -460.253596 
L 470.606048 -468.663771 
L 467.401484 -467.0965 
L 464.196921 -458.58549 
L 460.992357 -459.125032 
L 457.787793 -463.409441 
L 454.583229 -464.084928 
L 451.378665 -465.661557 
L 448.174101 -465.873119 
L 444.969537 -467.698882 
L 441.764973 -465.92843 
L 438.56041 -461.394817 
L 435.355846 -458.899032 
L 432.151282 -453.656235 
L 428.946718 -456.661182 
L 425.742154 -450.769216 
L 422.53759 -451.530986 
L 419.333026 -456.739028 
L 416.128462 -461.529486 
L 412.923898 -454.713528 
L 409.719335 -443.867693 
L 406.514771 -449.637574 
L 403.310207 -442.378804 
L 400.105643 -447.733377 
L 396.901079 -443.173762 
L 393.696515 -440.510958 
L 390.491951 -439.931076 
L 387.287387 -446.145164 
L 384.082824 -449.610517 
L 380.87826 -449.477118 
L 377.673696 -445.503662 
L 374.469132 -451.603417 
L 371.264568 -443.801201 
L 368.060004 -439.517695 
L 364.85544 -439.717761 
L 361.650876 -437.419844 
L 358.446312 -437.357008 
L 355.241749 -429.125055 
L 352.037185 -433.531584 
L 348.832621 -435.479106 
L 345.628057 -441.131056 
L 342.423493 -444.336457 
L 339.218929 -432.520421 
L 336.014365 -426.801189 
L 332.809801 -423.536906 
L 329.605238 -431.532187 
L 326.400674 -431.119414 
L 323.19611 -429.089019 
L 319.991546 -425.600223 
L 316.786982 -417.349359 
L 313.582418 -416.306929 
L 310.377854 -413.902157 
L 307.17329 -409.712537 
L 303.968727 -411.326058 
L 300.764163 -409.19325 
L 297.559599 -401.11115 
L 294.355035 -405.259019 
L 291.150471 -398.266814 
L 287.945907 -394.257973 
L 284.741343 -389.09882 
L 281.536779 -396.741029 
L 278.332215 -399.703728 
L 275.127652 -399.051858 
L 271.923088 -397.075384 
L 268.718524 -395.304232 
L 265.51396 -396.701358 
L 262.309396 -393.538024 
L 259.104832 -397.160149 
L 255.900268 -389.830138 
L 252.695704 -391.008617 
L 249.491141 -384.580354 
L 246.286577 -383.850429 
L 243.082013 -382.199523 
L 239.877449 -381.342441 
L 236.672885 -379.989395 
L 233.468321 -382.745948 
L 230.263757 -381.71289 
L 227.059193 -374.343905 
L 223.854629 -376.230402 
L 220.650066 -371.012241 
L 217.445502 -364.949453 
L 214.240938 -360.007934 
L 211.036374 -357.465467 
L 207.83181 -359.312569 
L 204.627246 -360.470635 
L 201.422682 -360.522159 
L 198.218118 -365.672292 
L 195.013555 -366.3406 
L 191.808991 -370.742162 
L 188.604427 -355.109661 
L 185.399863 -343.469293 
L 182.195299 -331.320794 
L 178.990735 -322.285239 
L 175.786171 -288.95263 
L 172.581607 -286.538119 
L 169.377044 -274.123242 
L 166.17248 -259.014032 
L 162.967916 -253.951112 
L 159.763352 -248.992439 
L 156.558788 -239.792917 
L 153.354224 -237.401928 
L 150.14966 -232.144569 
L 146.945096 -227.870757 
L 143.740532 -228.603429 
L 140.535969 -214.404196 
L 137.331405 -208.582056 
L 134.126841 -202.764973 
L 130.922277 -209.099005 
L 127.717713 -208.044792 
L 124.513149 -213.572225 
L 121.308585 -215.029015 
L 118.104021 -204.096725 
L 114.899458 -206.303853 
L 111.694894 -200.591299 
L 108.49033 -202.757901 
L 105.285766 -205.253673 
L 102.081202 -208.85519 
L 98.876638 -213.069429 
L 95.672074 -211.22893 
L 92.46751 -215.801867 
L 89.262946 -215.653268 
L 86.058383 -206.428142 
L 82.853819 -203.163761 
L 79.649255 -222.200776 
L 76.444691 -182.305223 
L 73.240127 -213.623155 
z
" style="stroke: #008000; stroke-opacity: 0.3"/>
    </defs>
    <g clip-path="url(#pb727acae90)">
     <use xlink:href="#meaa53c9bac" x="0" y="538.779375" style="fill: #008000; fill-opacity: 0.3; stroke: #008000; stroke-opacity: 0.3"/>
    </g>
   </g>
   <g id="FillBetweenPolyCollection_2">
    <defs>
     <path id="m6bd2c784cc" d="M 73.240127 -155.982125 
L 73.240127 -60.78375 
L 76.444691 -60.545648 
L 79.649255 -57.46591 
L 82.853819 -58.432205 
L 86.058383 -63.46739 
L 89.262946 -65.019593 
L 92.46751 -70.495358 
L 95.672074 -86.107119 
L 98.876638 -81.674059 
L 102.081202 -80.392885 
L 105.285766 -83.590106 
L 108.49033 -84.586888 
L 111.694894 -88.799662 
L 114.899458 -100.733043 
L 118.104021 -103.171481 
L 121.308585 -103.990702 
L 124.513149 -104.412378 
L 127.717713 -104.126113 
L 130.922277 -107.612106 
L 134.126841 -105.612942 
L 137.331405 -103.738197 
L 140.535969 -103.63376 
L 143.740532 -101.260812 
L 146.945096 -97.644313 
L 150.14966 -107.56181 
L 153.354224 -113.271399 
L 156.558788 -111.294719 
L 159.763352 -109.827589 
L 162.967916 -108.520414 
L 166.17248 -109.622093 
L 169.377044 -111.785721 
L 172.581607 -112.6292 
L 175.786171 -118.545902 
L 178.990735 -122.223558 
L 182.195299 -126.524533 
L 185.399863 -131.217381 
L 188.604427 -130.459245 
L 191.808991 -126.782045 
L 195.013555 -126.329285 
L 198.218118 -127.485433 
L 201.422682 -130.745512 
L 204.627246 -134.994351 
L 207.83181 -137.373 
L 211.036374 -139.098602 
L 214.240938 -143.012546 
L 217.445502 -145.67514 
L 220.650066 -143.993976 
L 223.854629 -146.71027 
L 227.059193 -148.286335 
L 230.263757 -145.226784 
L 233.468321 -146.034129 
L 236.672885 -149.497525 
L 239.877449 -149.072084 
L 243.082013 -148.845901 
L 246.286577 -151.803249 
L 249.491141 -153.886036 
L 252.695704 -169.690539 
L 255.900268 -178.372081 
L 259.104832 -182.048051 
L 262.309396 -182.459501 
L 265.51396 -186.940874 
L 268.718524 -193.350632 
L 271.923088 -195.837221 
L 275.127652 -196.610035 
L 278.332215 -190.60342 
L 281.536779 -189.727925 
L 284.741343 -192.134499 
L 287.945907 -190.548539 
L 291.150471 -185.512895 
L 294.355035 -181.149401 
L 297.559599 -187.7497 
L 300.764163 -194.717187 
L 303.968727 -185.941309 
L 307.17329 -186.233959 
L 310.377854 -192.77523 
L 313.582418 -200.752589 
L 316.786982 -196.677713 
L 319.991546 -198.443335 
L 323.19611 -202.292011 
L 326.400674 -203.970916 
L 329.605238 -203.876254 
L 332.809801 -211.562332 
L 336.014365 -217.601808 
L 339.218929 -241.731375 
L 342.423493 -247.107174 
L 345.628057 -246.044107 
L 348.832621 -249.033821 
L 352.037185 -249.344446 
L 355.241749 -252.047287 
L 358.446312 -250.419271 
L 361.650876 -246.392948 
L 364.85544 -245.752863 
L 368.060004 -246.911603 
L 371.264568 -244.506686 
L 374.469132 -245.565713 
L 377.673696 -249.344698 
L 380.87826 -246.231582 
L 384.082824 -239.126918 
L 387.287387 -231.019199 
L 390.491951 -225.834994 
L 393.696515 -220.163221 
L 396.901079 -217.973574 
L 400.105643 -224.375047 
L 403.310207 -212.428437 
L 406.514771 -208.752694 
L 409.719335 -207.31669 
L 412.923898 -203.563897 
L 416.128462 -205.046183 
L 419.333026 -207.169443 
L 422.53759 -211.462005 
L 425.742154 -214.040636 
L 428.946718 -211.580103 
L 432.151282 -217.906626 
L 435.355846 -220.726328 
L 438.56041 -236.254394 
L 441.764973 -237.357396 
L 444.969537 -245.104445 
L 448.174101 -248.146697 
L 451.378665 -255.123555 
L 454.583229 -262.961157 
L 457.787793 -265.808899 
L 460.992357 -261.707413 
L 464.196921 -258.309491 
L 467.401484 -261.50985 
L 470.606048 -265.467004 
L 473.810612 -264.231434 
L 477.015176 -274.272992 
L 480.21974 -279.781994 
L 483.424304 -279.601488 
L 486.628868 -286.157745 
L 489.833432 -295.466694 
L 493.037995 -292.271258 
L 496.242559 -290.20903 
L 499.447123 -288.340701 
L 502.651687 -285.102705 
L 505.856251 -284.423 
L 509.060815 -279.198863 
L 512.265379 -279.282661 
L 515.469943 -275.004969 
L 518.674507 -272.319385 
L 521.87907 -269.272333 
L 525.083634 -266.930381 
L 528.288198 -273.013719 
L 531.492762 -272.354845 
L 534.697326 -269.469499 
L 537.90189 -264.115888 
L 541.106454 -258.354738 
L 544.311018 -258.534086 
L 547.515581 -255.985349 
L 550.720145 -250.144288 
L 553.924709 -248.503397 
L 557.129273 -243.633562 
L 560.333837 -238.263319 
L 563.538401 -237.803252 
L 566.742965 -235.005558 
L 569.947529 -232.4374 
L 573.152093 -235.829464 
L 576.356656 -255.309736 
L 579.56122 -244.908722 
L 582.765784 -246.107411 
L 585.970348 -247.998765 
L 589.174912 -243.178606 
L 592.379476 -239.943094 
L 595.58404 -237.490854 
L 598.788604 -243.922368 
L 601.993167 -246.03289 
L 605.197731 -242.325921 
L 608.402295 -238.209171 
L 611.606859 -233.849877 
L 614.811423 -233.2705 
L 618.015987 -237.486559 
L 621.220551 -238.165995 
L 624.425115 -238.364636 
L 627.629678 -236.688382 
L 630.834242 -234.521589 
L 634.038806 -238.713404 
L 637.24337 -238.935312 
L 640.447934 -239.69402 
L 643.652498 -238.627622 
L 646.857062 -242.214593 
L 650.061626 -237.674852 
L 653.26619 -230.354931 
L 656.470753 -224.803692 
L 659.675317 -220.838108 
L 662.879881 -222.800196 
L 666.084445 -219.843705 
L 669.289009 -215.449411 
L 672.493573 -218.704318 
L 675.698137 -226.899867 
L 678.902701 -226.331813 
L 682.107264 -224.064771 
L 685.311828 -223.235111 
L 688.516392 -232.105603 
L 691.720956 -235.24736 
L 694.92552 -234.349642 
L 698.130084 -234.925783 
L 701.334648 -238.905917 
L 704.539212 -233.77042 
L 707.743776 -230.45975 
L 710.948339 -233.16451 
L 710.948339 -476.619693 
L 710.948339 -476.619693 
L 707.743776 -479.92861 
L 704.539212 -474.928766 
L 701.334648 -477.054454 
L 698.130084 -474.863299 
L 694.92552 -474.359239 
L 691.720956 -474.359245 
L 688.516392 -479.491002 
L 685.311828 -476.582566 
L 682.107264 -476.446312 
L 678.902701 -476.699516 
L 675.698137 -477.868032 
L 672.493573 -478.305635 
L 669.289009 -477.780589 
L 666.084445 -477.897908 
L 662.879881 -473.924176 
L 659.675317 -471.20653 
L 656.470753 -474.639749 
L 653.26619 -473.467707 
L 650.061626 -478.293719 
L 646.857062 -476.728924 
L 643.652498 -473.973748 
L 640.447934 -473.374558 
L 637.24337 -468.566943 
L 634.038806 -470.888715 
L 630.834242 -466.304612 
L 627.629678 -470.40348 
L 624.425115 -472.132257 
L 621.220551 -475.595426 
L 618.015987 -474.467885 
L 614.811423 -467.717015 
L 611.606859 -467.830695 
L 608.402295 -472.151021 
L 605.197731 -473.931411 
L 601.993167 -476.879585 
L 598.788604 -475.372203 
L 595.58404 -476.092854 
L 592.379476 -478.27808 
L 589.174912 -479.439362 
L 585.970348 -478.715702 
L 582.765784 -477.07328 
L 579.56122 -479.693936 
L 576.356656 -478.443481 
L 573.152093 -477.615957 
L 569.947529 -471.293649 
L 566.742965 -471.258897 
L 563.538401 -471.889845 
L 560.333837 -476.216698 
L 557.129273 -476.546157 
L 553.924709 -477.90665 
L 550.720145 -477.903239 
L 547.515581 -474.556284 
L 544.311018 -474.438781 
L 541.106454 -471.128334 
L 537.90189 -470.186445 
L 534.697326 -468.736033 
L 531.492762 -467.022393 
L 528.288198 -469.7131 
L 525.083634 -472.565842 
L 521.87907 -472.077362 
L 518.674507 -470.110625 
L 515.469943 -461.787704 
L 512.265379 -462.34627 
L 509.060815 -464.78077 
L 505.856251 -468.590801 
L 502.651687 -471.629277 
L 499.447123 -470.830909 
L 496.242559 -468.819541 
L 493.037995 -470.164658 
L 489.833432 -471.179392 
L 486.628868 -469.579076 
L 483.424304 -465.359201 
L 480.21974 -469.313912 
L 477.015176 -464.064418 
L 473.810612 -462.88267 
L 470.606048 -464.614694 
L 467.401484 -466.844416 
L 464.196921 -469.233483 
L 460.992357 -470.224807 
L 457.787793 -471.519597 
L 454.583229 -470.324627 
L 451.378665 -468.083986 
L 448.174101 -465.515553 
L 444.969537 -466.826371 
L 441.764973 -467.218776 
L 438.56041 -468.421402 
L 435.355846 -468.292469 
L 432.151282 -466.525271 
L 428.946718 -462.395955 
L 425.742154 -462.446813 
L 422.53759 -462.517791 
L 419.333026 -463.332397 
L 416.128462 -464.959418 
L 412.923898 -463.371651 
L 409.719335 -463.056955 
L 406.514771 -462.16331 
L 403.310207 -462.607392 
L 400.105643 -460.225494 
L 396.901079 -460.704998 
L 393.696515 -457.393155 
L 390.491951 -455.661205 
L 387.287387 -449.49728 
L 384.082824 -448.652083 
L 380.87826 -450.947767 
L 377.673696 -446.861073 
L 374.469132 -448.037042 
L 371.264568 -447.521154 
L 368.060004 -445.483267 
L 364.85544 -444.643984 
L 361.650876 -444.727894 
L 358.446312 -443.483975 
L 355.241749 -444.636226 
L 352.037185 -443.010777 
L 348.832621 -441.485325 
L 345.628057 -431.554373 
L 342.423493 -425.544439 
L 339.218929 -422.247152 
L 336.014365 -416.506273 
L 332.809801 -411.824593 
L 329.605238 -407.305373 
L 326.400674 -407.477807 
L 323.19611 -409.008534 
L 319.991546 -404.020783 
L 316.786982 -404.716739 
L 313.582418 -404.885141 
L 310.377854 -406.172943 
L 307.17329 -400.220271 
L 303.968727 -400.68031 
L 300.764163 -394.673742 
L 297.559599 -387.31646 
L 294.355035 -378.989301 
L 291.150471 -371.928744 
L 287.945907 -368.436801 
L 284.741343 -361.664104 
L 281.536779 -349.887495 
L 278.332215 -343.572769 
L 275.127652 -337.017355 
L 271.923088 -312.403481 
L 268.718524 -314.445525 
L 265.51396 -294.646124 
L 262.309396 -285.200551 
L 259.104832 -286.965706 
L 255.900268 -279.434135 
L 252.695704 -266.588911 
L 249.491141 -255.530268 
L 246.286577 -249.015669 
L 243.082013 -238.577292 
L 239.877449 -229.609154 
L 236.672885 -221.42094 
L 233.468321 -208.554385 
L 230.263757 -203.952311 
L 227.059193 -199.186284 
L 223.854629 -200.379971 
L 220.650066 -200.061259 
L 217.445502 -203.088295 
L 214.240938 -198.331309 
L 211.036374 -193.716075 
L 207.83181 -188.840399 
L 204.627246 -182.348799 
L 201.422682 -186.304552 
L 198.218118 -179.588107 
L 195.013555 -178.833289 
L 191.808991 -176.996335 
L 188.604427 -170.257399 
L 185.399863 -169.660645 
L 182.195299 -166.528888 
L 178.990735 -166.098792 
L 175.786171 -165.466107 
L 172.581607 -165.00287 
L 169.377044 -163.475269 
L 166.17248 -160.853478 
L 162.967916 -158.371068 
L 159.763352 -155.695968 
L 156.558788 -156.373498 
L 153.354224 -157.935767 
L 150.14966 -157.139787 
L 146.945096 -157.054724 
L 143.740532 -157.986632 
L 140.535969 -156.679684 
L 137.331405 -154.652322 
L 134.126841 -155.185086 
L 130.922277 -153.752076 
L 127.717713 -150.209052 
L 124.513149 -149.532191 
L 121.308585 -151.410389 
L 118.104021 -155.059043 
L 114.899458 -158.597941 
L 111.694894 -158.110263 
L 108.49033 -156.071778 
L 105.285766 -153.357611 
L 102.081202 -148.82254 
L 98.876638 -149.424532 
L 95.672074 -147.946195 
L 92.46751 -151.9628 
L 89.262946 -152.791351 
L 86.058383 -147.148366 
L 82.853819 -146.569774 
L 79.649255 -137.409693 
L 76.444691 -152.676088 
L 73.240127 -155.982125 
z
" style="stroke: #0000ff; stroke-opacity: 0.3"/>
    </defs>
    <g clip-path="url(#pb727acae90)">
     <use xlink:href="#m6bd2c784cc" x="0" y="538.779375" style="fill: #0000ff; fill-opacity: 0.3; stroke: #0000ff; stroke-opacity: 0.3"/>
    </g>
   </g>
   <g id="FillBetweenPolyCollection_3">
    <defs>
     <path id="me192e8b323" d="M 73.240127 -244.705606 
L 73.240127 -60.78375 
L 76.444691 -57.531946 
L 79.649255 7.574189 
L 82.853819 -60.802925 
L 86.058383 -49.018804 
L 89.262946 -60.923033 
L 92.46751 -61.175314 
L 95.672074 -59.342867 
L 98.876638 -61.332759 
L 102.081202 -71.879604 
L 105.285766 -80.021613 
L 108.49033 -106.34005 
L 111.694894 -125.327984 
L 114.899458 -142.854298 
L 118.104021 -144.92944 
L 121.308585 -140.205312 
L 124.513149 -140.180323 
L 127.717713 -142.883273 
L 130.922277 -146.258393 
L 134.126841 -163.325759 
L 137.331405 -159.843643 
L 140.535969 -159.707123 
L 143.740532 -165.459877 
L 146.945096 -163.538381 
L 150.14966 -171.918768 
L 153.354224 -182.260676 
L 156.558788 -179.081541 
L 159.763352 -178.704996 
L 162.967916 -185.527908 
L 166.17248 -195.958301 
L 169.377044 -212.362691 
L 172.581607 -219.821981 
L 175.786171 -220.426553 
L 178.990735 -222.040117 
L 182.195299 -214.372816 
L 185.399863 -210.513323 
L 188.604427 -207.160233 
L 191.808991 -200.89178 
L 195.013555 -198.507239 
L 198.218118 -195.507434 
L 201.422682 -205.238816 
L 204.627246 -200.085919 
L 207.83181 -196.026228 
L 211.036374 -192.092637 
L 214.240938 -189.269656 
L 217.445502 -187.847466 
L 220.650066 -196.911798 
L 223.854629 -198.442383 
L 227.059193 -205.695631 
L 230.263757 -212.342848 
L 233.468321 -216.483557 
L 236.672885 -235.549371 
L 239.877449 -242.311749 
L 243.082013 -252.899068 
L 246.286577 -255.645101 
L 249.491141 -259.42625 
L 252.695704 -255.454787 
L 255.900268 -252.570587 
L 259.104832 -259.656552 
L 262.309396 -262.448756 
L 265.51396 -279.179855 
L 268.718524 -282.418223 
L 271.923088 -279.785242 
L 275.127652 -277.676742 
L 278.332215 -276.98089 
L 281.536779 -273.47528 
L 284.741343 -280.964361 
L 287.945907 -283.496653 
L 291.150471 -291.207801 
L 294.355035 -289.110543 
L 297.559599 -287.814795 
L 300.764163 -286.174486 
L 303.968727 -283.402404 
L 307.17329 -285.126503 
L 310.377854 -285.403284 
L 313.582418 -283.439871 
L 316.786982 -278.934064 
L 319.991546 -271.411036 
L 323.19611 -263.235851 
L 326.400674 -260.386946 
L 329.605238 -262.697444 
L 332.809801 -264.709956 
L 336.014365 -255.727483 
L 339.218929 -266.669619 
L 342.423493 -268.627517 
L 345.628057 -272.819801 
L 348.832621 -274.565102 
L 352.037185 -272.992101 
L 355.241749 -268.602931 
L 358.446312 -265.704057 
L 361.650876 -266.113559 
L 364.85544 -258.874062 
L 368.060004 -255.419165 
L 371.264568 -259.890299 
L 374.469132 -260.530861 
L 377.673696 -259.618619 
L 380.87826 -256.627654 
L 384.082824 -255.46717 
L 387.287387 -256.329973 
L 390.491951 -258.224531 
L 393.696515 -254.820469 
L 396.901079 -247.366212 
L 400.105643 -250.001255 
L 403.310207 -244.612162 
L 406.514771 -245.790527 
L 409.719335 -247.547321 
L 412.923898 -246.083191 
L 416.128462 -242.022255 
L 419.333026 -238.564398 
L 422.53759 -235.391628 
L 425.742154 -231.364439 
L 428.946718 -227.351742 
L 432.151282 -219.741967 
L 435.355846 -214.867497 
L 438.56041 -219.904814 
L 441.764973 -224.100337 
L 444.969537 -222.572889 
L 448.174101 -228.099926 
L 451.378665 -222.984182 
L 454.583229 -226.180911 
L 457.787793 -226.277363 
L 460.992357 -232.373839 
L 464.196921 -228.286594 
L 467.401484 -235.392416 
L 470.606048 -249.18824 
L 473.810612 -239.068416 
L 477.015176 -232.647229 
L 480.21974 -231.01167 
L 483.424304 -232.383923 
L 486.628868 -236.500539 
L 489.833432 -236.059479 
L 493.037995 -234.391242 
L 496.242559 -240.28334 
L 499.447123 -238.360275 
L 502.651687 -233.507773 
L 505.856251 -228.612582 
L 509.060815 -229.170772 
L 512.265379 -226.17426 
L 515.469943 -226.646936 
L 518.674507 -225.989466 
L 521.87907 -217.73494 
L 525.083634 -214.007595 
L 528.288198 -211.423232 
L 531.492762 -208.80843 
L 534.697326 -204.550575 
L 537.90189 -204.196183 
L 541.106454 -205.113606 
L 544.311018 -200.037428 
L 547.515581 -195.002801 
L 550.720145 -196.717768 
L 553.924709 -204.086337 
L 557.129273 -203.793189 
L 560.333837 -201.764155 
L 563.538401 -198.952693 
L 566.742965 -201.560474 
L 569.947529 -200.305583 
L 573.152093 -197.850329 
L 576.356656 -198.869115 
L 579.56122 -194.731533 
L 582.765784 -196.574492 
L 585.970348 -195.491358 
L 589.174912 -193.450983 
L 592.379476 -194.351947 
L 595.58404 -196.73995 
L 598.788604 -197.070726 
L 601.993167 -191.789403 
L 605.197731 -189.198161 
L 608.402295 -188.314256 
L 611.606859 -180.753147 
L 614.811423 -179.558238 
L 618.015987 -181.773145 
L 621.220551 -182.517214 
L 624.425115 -186.412703 
L 627.629678 -181.431157 
L 630.834242 -181.565415 
L 634.038806 -181.369372 
L 637.24337 -177.145654 
L 640.447934 -176.553265 
L 643.652498 -184.899953 
L 646.857062 -182.952351 
L 650.061626 -177.438241 
L 653.26619 -173.354814 
L 656.470753 -179.755645 
L 659.675317 -190.503867 
L 662.879881 -195.21003 
L 666.084445 -195.734929 
L 669.289009 -198.390573 
L 672.493573 -197.463624 
L 675.698137 -192.27151 
L 678.902701 -191.739753 
L 682.107264 -194.475577 
L 685.311828 -198.241552 
L 688.516392 -195.919401 
L 691.720956 -195.682624 
L 694.92552 -203.026983 
L 698.130084 -208.194323 
L 701.334648 -209.457844 
L 704.539212 -215.404924 
L 707.743776 -211.926564 
L 710.948339 -205.66188 
L 710.948339 -470.583865 
L 710.948339 -470.583865 
L 707.743776 -469.659158 
L 704.539212 -466.859749 
L 701.334648 -463.827899 
L 698.130084 -462.968929 
L 694.92552 -459.488028 
L 691.720956 -446.996907 
L 688.516392 -439.720743 
L 685.311828 -445.689221 
L 682.107264 -444.060605 
L 678.902701 -446.866847 
L 675.698137 -451.335376 
L 672.493573 -451.822858 
L 669.289009 -456.719821 
L 666.084445 -450.514459 
L 662.879881 -452.242131 
L 659.675317 -451.800288 
L 656.470753 -451.185621 
L 653.26619 -447.30437 
L 650.061626 -442.859276 
L 646.857062 -439.628068 
L 643.652498 -439.422215 
L 640.447934 -443.175169 
L 637.24337 -445.346623 
L 634.038806 -449.565033 
L 630.834242 -444.731282 
L 627.629678 -453.2919 
L 624.425115 -455.059167 
L 621.220551 -447.369117 
L 618.015987 -445.402431 
L 614.811423 -441.024534 
L 611.606859 -442.339977 
L 608.402295 -437.096426 
L 605.197731 -440.817261 
L 601.993167 -445.194768 
L 598.788604 -437.639648 
L 595.58404 -424.71925 
L 592.379476 -433.782189 
L 589.174912 -433.12182 
L 585.970348 -437.617435 
L 582.765784 -440.739247 
L 579.56122 -441.930482 
L 576.356656 -444.313479 
L 573.152093 -452.246877 
L 569.947529 -451.257284 
L 566.742965 -434.659345 
L 563.538401 -414.813782 
L 560.333837 -418.578327 
L 557.129273 -409.157805 
L 553.924709 -402.382648 
L 550.720145 -405.96049 
L 547.515581 -415.579151 
L 544.311018 -414.003093 
L 541.106454 -416.418176 
L 537.90189 -419.501162 
L 534.697326 -419.479405 
L 531.492762 -412.33664 
L 528.288198 -425.762719 
L 525.083634 -425.354314 
L 521.87907 -431.839048 
L 518.674507 -422.30586 
L 515.469943 -416.172806 
L 512.265379 -414.128024 
L 509.060815 -421.397428 
L 505.856251 -406.389885 
L 502.651687 -416.249842 
L 499.447123 -413.717398 
L 496.242559 -413.645738 
L 493.037995 -411.898067 
L 489.833432 -418.938042 
L 486.628868 -420.452683 
L 483.424304 -423.968287 
L 480.21974 -428.092133 
L 477.015176 -428.47727 
L 473.810612 -425.12703 
L 470.606048 -427.690122 
L 467.401484 -432.211243 
L 464.196921 -435.249576 
L 460.992357 -431.648703 
L 457.787793 -426.443586 
L 454.583229 -417.210675 
L 451.378665 -411.977802 
L 448.174101 -407.68895 
L 444.969537 -387.424075 
L 441.764973 -377.854072 
L 438.56041 -377.208235 
L 435.355846 -373.543021 
L 432.151282 -374.288096 
L 428.946718 -380.222388 
L 425.742154 -381.889375 
L 422.53759 -381.012901 
L 419.333026 -382.212541 
L 416.128462 -385.766698 
L 412.923898 -387.909973 
L 409.719335 -390.177912 
L 406.514771 -388.090034 
L 403.310207 -389.436269 
L 400.105643 -396.900356 
L 396.901079 -395.366418 
L 393.696515 -399.940091 
L 390.491951 -392.775514 
L 387.287387 -393.979614 
L 384.082824 -398.396949 
L 380.87826 -397.604781 
L 377.673696 -400.108819 
L 374.469132 -401.270671 
L 371.264568 -396.080542 
L 368.060004 -394.788207 
L 364.85544 -379.429756 
L 361.650876 -377.543984 
L 358.446312 -376.493341 
L 355.241749 -377.903938 
L 352.037185 -371.847515 
L 348.832621 -372.688092 
L 345.628057 -367.951887 
L 342.423493 -368.374317 
L 339.218929 -375.951978 
L 336.014365 -368.825739 
L 332.809801 -370.342861 
L 329.605238 -376.796921 
L 326.400674 -375.990262 
L 323.19611 -379.141162 
L 319.991546 -383.571666 
L 316.786982 -379.417135 
L 313.582418 -385.467599 
L 310.377854 -375.467829 
L 307.17329 -377.532689 
L 303.968727 -372.128365 
L 300.764163 -366.835829 
L 297.559599 -365.024157 
L 294.355035 -363.436612 
L 291.150471 -361.743912 
L 287.945907 -364.807153 
L 284.741343 -362.671293 
L 281.536779 -356.477934 
L 278.332215 -349.936395 
L 275.127652 -348.228804 
L 271.923088 -347.531436 
L 268.718524 -353.63264 
L 265.51396 -344.260833 
L 262.309396 -346.821708 
L 259.104832 -342.952982 
L 255.900268 -350.247954 
L 252.695704 -346.995314 
L 249.491141 -346.244204 
L 246.286577 -343.501195 
L 243.082013 -347.773952 
L 239.877449 -347.396025 
L 236.672885 -349.585162 
L 233.468321 -347.303472 
L 230.263757 -352.926402 
L 227.059193 -349.972921 
L 223.854629 -339.940813 
L 220.650066 -336.238787 
L 217.445502 -336.685097 
L 214.240938 -339.344195 
L 211.036374 -340.668323 
L 207.83181 -333.347507 
L 204.627246 -327.401994 
L 201.422682 -324.336096 
L 198.218118 -326.200845 
L 195.013555 -329.033365 
L 191.808991 -330.540374 
L 188.604427 -326.579953 
L 185.399863 -329.322064 
L 182.195299 -328.160236 
L 178.990735 -320.824887 
L 175.786171 -318.047425 
L 172.581607 -315.754417 
L 169.377044 -311.495511 
L 166.17248 -317.929758 
L 162.967916 -295.515879 
L 159.763352 -291.678015 
L 156.558788 -289.092732 
L 153.354224 -287.311341 
L 150.14966 -286.474595 
L 146.945096 -285.692153 
L 143.740532 -282.151347 
L 140.535969 -279.074975 
L 137.331405 -267.586402 
L 134.126841 -269.995799 
L 130.922277 -272.451276 
L 127.717713 -277.479613 
L 124.513149 -279.010951 
L 121.308585 -279.546377 
L 118.104021 -281.737369 
L 114.899458 -291.260552 
L 111.694894 -287.465118 
L 108.49033 -280.175955 
L 105.285766 -288.393147 
L 102.081202 -275.149384 
L 98.876638 -280.340719 
L 95.672074 -280.425608 
L 92.46751 -276.750576 
L 89.262946 -272.971902 
L 86.058383 -278.835758 
L 82.853819 -264.016736 
L 79.649255 -260.641993 
L 76.444691 -258.963518 
L 73.240127 -244.705606 
z
" style="stroke: #ffa500; stroke-opacity: 0.3"/>
    </defs>
    <g clip-path="url(#pb727acae90)">
     <use xlink:href="#me192e8b323" x="0" y="538.779375" style="fill: #ffa500; fill-opacity: 0.3; stroke: #ffa500; stroke-opacity: 0.3"/>
    </g>
   </g>
   <g id="matplotlib.axis_1">
    <g id="xtick_1">
     <g id="line2d_1">
      <path d="M 73.23375 477.995625 
L 73.23375 34.475625 
" clip-path="url(#pb727acae90)" style="fill: none; stroke: #b0b0b0; stroke-opacity: 0.3; stroke-width: 0.8; stroke-linecap: square"/>
     </g>
     <g id="line2d_2">
      <defs>
       <path id="ma21dd6f939" d="M 0 0 
L 0 3.5 
" style="stroke: #000000; stroke-width: 0.8"/>
      </defs>
      <g>
       <use xlink:href="#ma21dd6f939" x="73.23375" y="477.995625" style="stroke: #000000; stroke-width: 0.8"/>
      </g>
     </g>
     <g id="text_1">
      <!-- 0 -->
      <g transform="translate(66.87125 500.1925) scale(0.2 -0.2)">
       <defs>
        <path id="DejaVuSans-30" d="M 2034 4250 
Q 1547 4250 1301 3770 
Q 1056 3291 1056 2328 
Q 1056 1369 1301 889 
Q 1547 409 2034 409 
Q 2525 409 2770 889 
Q 3016 1369 3016 2328 
Q 3016 3291 2770 3770 
Q 2525 4250 2034 4250 
z
M 2034 4750 
Q 2819 4750 3233 4129 
Q 3647 3509 3647 2328 
Q 3647 1150 3233 529 
Q 2819 -91 2034 -91 
Q 1250 -91 836 529 
Q 422 1150 422 2328 
Q 422 3509 836 4129 
Q 1250 4750 2034 4750 
z
" transform="scale(0.015625)"/>
       </defs>
       <use xlink:href="#DejaVuSans-30"/>
      </g>
     </g>
    </g>
    <g id="xtick_2">
     <g id="line2d_3">
      <path d="M 200.775392 477.995625 
L 200.775392 34.475625 
" clip-path="url(#pb727acae90)" style="fill: none; stroke: #b0b0b0; stroke-opacity: 0.3; stroke-width: 0.8; stroke-linecap: square"/>
     </g>
     <g id="line2d_4">
      <g>
       <use xlink:href="#ma21dd6f939" x="200.775392" y="477.995625" style="stroke: #000000; stroke-width: 0.8"/>
      </g>
     </g>
     <g id="text_2">
      <!-- 20000 -->
      <g transform="translate(168.962892 500.1925) scale(0.2 -0.2)">
       <defs>
        <path id="DejaVuSans-32" d="M 1228 531 
L 3431 531 
L 3431 0 
L 469 0 
L 469 531 
Q 828 903 1448 1529 
Q 2069 2156 2228 2338 
Q 2531 2678 2651 2914 
Q 2772 3150 2772 3378 
Q 2772 3750 2511 3984 
Q 2250 4219 1831 4219 
Q 1534 4219 1204 4116 
Q 875 4013 500 3803 
L 500 4441 
Q 881 4594 1212 4672 
Q 1544 4750 1819 4750 
Q 2544 4750 2975 4387 
Q 3406 4025 3406 3419 
Q 3406 3131 3298 2873 
Q 3191 2616 2906 2266 
Q 2828 2175 2409 1742 
Q 1991 1309 1228 531 
z
" transform="scale(0.015625)"/>
       </defs>
       <use xlink:href="#DejaVuSans-32"/>
       <use xlink:href="#DejaVuSans-30" transform="translate(63.623047 0)"/>
       <use xlink:href="#DejaVuSans-30" transform="translate(127.246094 0)"/>
       <use xlink:href="#DejaVuSans-30" transform="translate(190.869141 0)"/>
       <use xlink:href="#DejaVuSans-30" transform="translate(254.492188 0)"/>
      </g>
     </g>
    </g>
    <g id="xtick_3">
     <g id="line2d_5">
      <path d="M 328.317035 477.995625 
L 328.317035 34.475625 
" clip-path="url(#pb727acae90)" style="fill: none; stroke: #b0b0b0; stroke-opacity: 0.3; stroke-width: 0.8; stroke-linecap: square"/>
     </g>
     <g id="line2d_6">
      <g>
       <use xlink:href="#ma21dd6f939" x="328.317035" y="477.995625" style="stroke: #000000; stroke-width: 0.8"/>
      </g>
     </g>
     <g id="text_3">
      <!-- 40000 -->
      <g transform="translate(296.504535 500.1925) scale(0.2 -0.2)">
       <defs>
        <path id="DejaVuSans-34" d="M 2419 4116 
L 825 1625 
L 2419 1625 
L 2419 4116 
z
M 2253 4666 
L 3047 4666 
L 3047 1625 
L 3713 1625 
L 3713 1100 
L 3047 1100 
L 3047 0 
L 2419 0 
L 2419 1100 
L 313 1100 
L 313 1709 
L 2253 4666 
z
" transform="scale(0.015625)"/>
       </defs>
       <use xlink:href="#DejaVuSans-34"/>
       <use xlink:href="#DejaVuSans-30" transform="translate(63.623047 0)"/>
       <use xlink:href="#DejaVuSans-30" transform="translate(127.246094 0)"/>
       <use xlink:href="#DejaVuSans-30" transform="translate(190.869141 0)"/>
       <use xlink:href="#DejaVuSans-30" transform="translate(254.492188 0)"/>
      </g>
     </g>
    </g>
    <g id="xtick_4">
     <g id="line2d_7">
      <path d="M 455.858677 477.995625 
L 455.858677 34.475625 
" clip-path="url(#pb727acae90)" style="fill: none; stroke: #b0b0b0; stroke-opacity: 0.3; stroke-width: 0.8; stroke-linecap: square"/>
     </g>
     <g id="line2d_8">
      <g>
       <use xlink:href="#ma21dd6f939" x="455.858677" y="477.995625" style="stroke: #000000; stroke-width: 0.8"/>
      </g>
     </g>
     <g id="text_4">
      <!-- 60000 -->
      <g transform="translate(424.046177 500.1925) scale(0.2 -0.2)">
       <defs>
        <path id="DejaVuSans-36" d="M 2113 2584 
Q 1688 2584 1439 2293 
Q 1191 2003 1191 1497 
Q 1191 994 1439 701 
Q 1688 409 2113 409 
Q 2538 409 2786 701 
Q 3034 994 3034 1497 
Q 3034 2003 2786 2293 
Q 2538 2584 2113 2584 
z
M 3366 4563 
L 3366 3988 
Q 3128 4100 2886 4159 
Q 2644 4219 2406 4219 
Q 1781 4219 1451 3797 
Q 1122 3375 1075 2522 
Q 1259 2794 1537 2939 
Q 1816 3084 2150 3084 
Q 2853 3084 3261 2657 
Q 3669 2231 3669 1497 
Q 3669 778 3244 343 
Q 2819 -91 2113 -91 
Q 1303 -91 875 529 
Q 447 1150 447 2328 
Q 447 3434 972 4092 
Q 1497 4750 2381 4750 
Q 2619 4750 2861 4703 
Q 3103 4656 3366 4563 
z
" transform="scale(0.015625)"/>
       </defs>
       <use xlink:href="#DejaVuSans-36"/>
       <use xlink:href="#DejaVuSans-30" transform="translate(63.623047 0)"/>
       <use xlink:href="#DejaVuSans-30" transform="translate(127.246094 0)"/>
       <use xlink:href="#DejaVuSans-30" transform="translate(190.869141 0)"/>
       <use xlink:href="#DejaVuSans-30" transform="translate(254.492188 0)"/>
      </g>
     </g>
    </g>
    <g id="xtick_5">
     <g id="line2d_9">
      <path d="M 583.40032 477.995625 
L 583.40032 34.475625 
" clip-path="url(#pb727acae90)" style="fill: none; stroke: #b0b0b0; stroke-opacity: 0.3; stroke-width: 0.8; stroke-linecap: square"/>
     </g>
     <g id="line2d_10">
      <g>
       <use xlink:href="#ma21dd6f939" x="583.40032" y="477.995625" style="stroke: #000000; stroke-width: 0.8"/>
      </g>
     </g>
     <g id="text_5">
      <!-- 80000 -->
      <g transform="translate(551.58782 500.1925) scale(0.2 -0.2)">
       <defs>
        <path id="DejaVuSans-38" d="M 2034 2216 
Q 1584 2216 1326 1975 
Q 1069 1734 1069 1313 
Q 1069 891 1326 650 
Q 1584 409 2034 409 
Q 2484 409 2743 651 
Q 3003 894 3003 1313 
Q 3003 1734 2745 1975 
Q 2488 2216 2034 2216 
z
M 1403 2484 
Q 997 2584 770 2862 
Q 544 3141 544 3541 
Q 544 4100 942 4425 
Q 1341 4750 2034 4750 
Q 2731 4750 3128 4425 
Q 3525 4100 3525 3541 
Q 3525 3141 3298 2862 
Q 3072 2584 2669 2484 
Q 3125 2378 3379 2068 
Q 3634 1759 3634 1313 
Q 3634 634 3220 271 
Q 2806 -91 2034 -91 
Q 1263 -91 848 271 
Q 434 634 434 1313 
Q 434 1759 690 2068 
Q 947 2378 1403 2484 
z
M 1172 3481 
Q 1172 3119 1398 2916 
Q 1625 2713 2034 2713 
Q 2441 2713 2670 2916 
Q 2900 3119 2900 3481 
Q 2900 3844 2670 4047 
Q 2441 4250 2034 4250 
Q 1625 4250 1398 4047 
Q 1172 3844 1172 3481 
z
" transform="scale(0.015625)"/>
       </defs>
       <use xlink:href="#DejaVuSans-38"/>
       <use xlink:href="#DejaVuSans-30" transform="translate(63.623047 0)"/>
       <use xlink:href="#DejaVuSans-30" transform="translate(127.246094 0)"/>
       <use xlink:href="#DejaVuSans-30" transform="translate(190.869141 0)"/>
       <use xlink:href="#DejaVuSans-30" transform="translate(254.492188 0)"/>
      </g>
     </g>
    </g>
    <g id="xtick_6">
     <g id="line2d_11">
      <path d="M 710.941962 477.995625 
L 710.941962 34.475625 
" clip-path="url(#pb727acae90)" style="fill: none; stroke: #b0b0b0; stroke-opacity: 0.3; stroke-width: 0.8; stroke-linecap: square"/>
     </g>
     <g id="line2d_12">
      <g>
       <use xlink:href="#ma21dd6f939" x="710.941962" y="477.995625" style="stroke: #000000; stroke-width: 0.8"/>
      </g>
     </g>
     <g id="text_6">
      <!-- 100000 -->
      <g transform="translate(672.766962 500.1925) scale(0.2 -0.2)">
       <defs>
        <path id="DejaVuSans-31" d="M 794 531 
L 1825 531 
L 1825 4091 
L 703 3866 
L 703 4441 
L 1819 4666 
L 2450 4666 
L 2450 531 
L 3481 531 
L 3481 0 
L 794 0 
L 794 531 
z
" transform="scale(0.015625)"/>
       </defs>
       <use xlink:href="#DejaVuSans-31"/>
       <use xlink:href="#DejaVuSans-30" transform="translate(63.623047 0)"/>
       <use xlink:href="#DejaVuSans-30" transform="translate(127.246094 0)"/>
       <use xlink:href="#DejaVuSans-30" transform="translate(190.869141 0)"/>
       <use xlink:href="#DejaVuSans-30" transform="translate(254.492188 0)"/>
       <use xlink:href="#DejaVuSans-30" transform="translate(318.115234 0)"/>
      </g>
     </g>
    </g>
    <g id="text_7">
     <!-- Timesteps -->
     <g transform="translate(346.464375 526.588125) scale(0.24 -0.24)">
      <defs>
       <path id="DejaVuSans-54" d="M -19 4666 
L 3928 4666 
L 3928 4134 
L 2272 4134 
L 2272 0 
L 1638 0 
L 1638 4134 
L -19 4134 
L -19 4666 
z
" transform="scale(0.015625)"/>
       <path id="DejaVuSans-69" d="M 603 3500 
L 1178 3500 
L 1178 0 
L 603 0 
L 603 3500 
z
M 603 4863 
L 1178 4863 
L 1178 4134 
L 603 4134 
L 603 4863 
z
" transform="scale(0.015625)"/>
       <path id="DejaVuSans-6d" d="M 3328 2828 
Q 3544 3216 3844 3400 
Q 4144 3584 4550 3584 
Q 5097 3584 5394 3201 
Q 5691 2819 5691 2113 
L 5691 0 
L 5113 0 
L 5113 2094 
Q 5113 2597 4934 2840 
Q 4756 3084 4391 3084 
Q 3944 3084 3684 2787 
Q 3425 2491 3425 1978 
L 3425 0 
L 2847 0 
L 2847 2094 
Q 2847 2600 2669 2842 
Q 2491 3084 2119 3084 
Q 1678 3084 1418 2786 
Q 1159 2488 1159 1978 
L 1159 0 
L 581 0 
L 581 3500 
L 1159 3500 
L 1159 2956 
Q 1356 3278 1631 3431 
Q 1906 3584 2284 3584 
Q 2666 3584 2933 3390 
Q 3200 3197 3328 2828 
z
" transform="scale(0.015625)"/>
       <path id="DejaVuSans-65" d="M 3597 1894 
L 3597 1613 
L 953 1613 
Q 991 1019 1311 708 
Q 1631 397 2203 397 
Q 2534 397 2845 478 
Q 3156 559 3463 722 
L 3463 178 
Q 3153 47 2828 -22 
Q 2503 -91 2169 -91 
Q 1331 -91 842 396 
Q 353 884 353 1716 
Q 353 2575 817 3079 
Q 1281 3584 2069 3584 
Q 2775 3584 3186 3129 
Q 3597 2675 3597 1894 
z
M 3022 2063 
Q 3016 2534 2758 2815 
Q 2500 3097 2075 3097 
Q 1594 3097 1305 2825 
Q 1016 2553 972 2059 
L 3022 2063 
z
" transform="scale(0.015625)"/>
       <path id="DejaVuSans-73" d="M 2834 3397 
L 2834 2853 
Q 2591 2978 2328 3040 
Q 2066 3103 1784 3103 
Q 1356 3103 1142 2972 
Q 928 2841 928 2578 
Q 928 2378 1081 2264 
Q 1234 2150 1697 2047 
L 1894 2003 
Q 2506 1872 2764 1633 
Q 3022 1394 3022 966 
Q 3022 478 2636 193 
Q 2250 -91 1575 -91 
Q 1294 -91 989 -36 
Q 684 19 347 128 
L 347 722 
Q 666 556 975 473 
Q 1284 391 1588 391 
Q 1994 391 2212 530 
Q 2431 669 2431 922 
Q 2431 1156 2273 1281 
Q 2116 1406 1581 1522 
L 1381 1569 
Q 847 1681 609 1914 
Q 372 2147 372 2553 
Q 372 3047 722 3315 
Q 1072 3584 1716 3584 
Q 2034 3584 2315 3537 
Q 2597 3491 2834 3397 
z
" transform="scale(0.015625)"/>
       <path id="DejaVuSans-74" d="M 1172 4494 
L 1172 3500 
L 2356 3500 
L 2356 3053 
L 1172 3053 
L 1172 1153 
Q 1172 725 1289 603 
Q 1406 481 1766 481 
L 2356 481 
L 2356 0 
L 1766 0 
Q 1100 0 847 248 
Q 594 497 594 1153 
L 594 3053 
L 172 3053 
L 172 3500 
L 594 3500 
L 594 4494 
L 1172 4494 
z
" transform="scale(0.015625)"/>
       <path id="DejaVuSans-70" d="M 1159 525 
L 1159 -1331 
L 581 -1331 
L 581 3500 
L 1159 3500 
L 1159 2969 
Q 1341 3281 1617 3432 
Q 1894 3584 2278 3584 
Q 2916 3584 3314 3078 
Q 3713 2572 3713 1747 
Q 3713 922 3314 415 
Q 2916 -91 2278 -91 
Q 1894 -91 1617 61 
Q 1341 213 1159 525 
z
M 3116 1747 
Q 3116 2381 2855 2742 
Q 2594 3103 2138 3103 
Q 1681 3103 1420 2742 
Q 1159 2381 1159 1747 
Q 1159 1113 1420 752 
Q 1681 391 2138 391 
Q 2594 391 2855 752 
Q 3116 1113 3116 1747 
z
" transform="scale(0.015625)"/>
      </defs>
      <use xlink:href="#DejaVuSans-54"/>
      <use xlink:href="#DejaVuSans-69" transform="translate(57.958984 0)"/>
      <use xlink:href="#DejaVuSans-6d" transform="translate(85.742188 0)"/>
      <use xlink:href="#DejaVuSans-65" transform="translate(183.154297 0)"/>
      <use xlink:href="#DejaVuSans-73" transform="translate(244.677734 0)"/>
      <use xlink:href="#DejaVuSans-74" transform="translate(296.777344 0)"/>
      <use xlink:href="#DejaVuSans-65" transform="translate(335.986328 0)"/>
      <use xlink:href="#DejaVuSans-70" transform="translate(397.509766 0)"/>
      <use xlink:href="#DejaVuSans-73" transform="translate(460.986328 0)"/>
     </g>
    </g>
   </g>
   <g id="matplotlib.axis_2">
    <g id="ytick_1">
     <g id="line2d_13">
      <path d="M 73.23375 477.995625 
L 742.83375 477.995625 
" clip-path="url(#pb727acae90)" style="fill: none; stroke: #b0b0b0; stroke-opacity: 0.3; stroke-width: 0.8; stroke-linecap: square"/>
     </g>
     <g id="line2d_14">
      <defs>
       <path id="m40f946070f" d="M 0 0 
L -3.5 0 
" style="stroke: #000000; stroke-width: 0.8"/>
      </defs>
      <g>
       <use xlink:href="#m40f946070f" x="73.23375" y="477.995625" style="stroke: #000000; stroke-width: 0.8"/>
      </g>
     </g>
     <g id="text_8">
      <!-- 0.0 -->
      <g transform="translate(34.4275 485.594062) scale(0.2 -0.2)">
       <defs>
        <path id="DejaVuSans-2e" d="M 684 794 
L 1344 794 
L 1344 0 
L 684 0 
L 684 794 
z
" transform="scale(0.015625)"/>
       </defs>
       <use xlink:href="#DejaVuSans-30"/>
       <use xlink:href="#DejaVuSans-2e" transform="translate(63.623047 0)"/>
       <use xlink:href="#DejaVuSans-30" transform="translate(95.410156 0)"/>
      </g>
     </g>
    </g>
    <g id="ytick_2">
     <g id="line2d_15">
      <path d="M 73.23375 390.041099 
L 742.83375 390.041099 
" clip-path="url(#pb727acae90)" style="fill: none; stroke: #b0b0b0; stroke-opacity: 0.3; stroke-width: 0.8; stroke-linecap: square"/>
     </g>
     <g id="line2d_16">
      <g>
       <use xlink:href="#m40f946070f" x="73.23375" y="390.041099" style="stroke: #000000; stroke-width: 0.8"/>
      </g>
     </g>
     <g id="text_9">
      <!-- 0.2 -->
      <g transform="translate(34.4275 397.639537) scale(0.2 -0.2)">
       <use xlink:href="#DejaVuSans-30"/>
       <use xlink:href="#DejaVuSans-2e" transform="translate(63.623047 0)"/>
       <use xlink:href="#DejaVuSans-32" transform="translate(95.410156 0)"/>
      </g>
     </g>
    </g>
    <g id="ytick_3">
     <g id="line2d_17">
      <path d="M 73.23375 302.086573 
L 742.83375 302.086573 
" clip-path="url(#pb727acae90)" style="fill: none; stroke: #b0b0b0; stroke-opacity: 0.3; stroke-width: 0.8; stroke-linecap: square"/>
     </g>
     <g id="line2d_18">
      <g>
       <use xlink:href="#m40f946070f" x="73.23375" y="302.086573" style="stroke: #000000; stroke-width: 0.8"/>
      </g>
     </g>
     <g id="text_10">
      <!-- 0.4 -->
      <g transform="translate(34.4275 309.685011) scale(0.2 -0.2)">
       <use xlink:href="#DejaVuSans-30"/>
       <use xlink:href="#DejaVuSans-2e" transform="translate(63.623047 0)"/>
       <use xlink:href="#DejaVuSans-34" transform="translate(95.410156 0)"/>
      </g>
     </g>
    </g>
    <g id="ytick_4">
     <g id="line2d_19">
      <path d="M 73.23375 214.132048 
L 742.83375 214.132048 
" clip-path="url(#pb727acae90)" style="fill: none; stroke: #b0b0b0; stroke-opacity: 0.3; stroke-width: 0.8; stroke-linecap: square"/>
     </g>
     <g id="line2d_20">
      <g>
       <use xlink:href="#m40f946070f" x="73.23375" y="214.132048" style="stroke: #000000; stroke-width: 0.8"/>
      </g>
     </g>
     <g id="text_11">
      <!-- 0.6 -->
      <g transform="translate(34.4275 221.730485) scale(0.2 -0.2)">
       <use xlink:href="#DejaVuSans-30"/>
       <use xlink:href="#DejaVuSans-2e" transform="translate(63.623047 0)"/>
       <use xlink:href="#DejaVuSans-36" transform="translate(95.410156 0)"/>
      </g>
     </g>
    </g>
    <g id="ytick_5">
     <g id="line2d_21">
      <path d="M 73.23375 126.177522 
L 742.83375 126.177522 
" clip-path="url(#pb727acae90)" style="fill: none; stroke: #b0b0b0; stroke-opacity: 0.3; stroke-width: 0.8; stroke-linecap: square"/>
     </g>
     <g id="line2d_22">
      <g>
       <use xlink:href="#m40f946070f" x="73.23375" y="126.177522" style="stroke: #000000; stroke-width: 0.8"/>
      </g>
     </g>
     <g id="text_12">
      <!-- 0.8 -->
      <g transform="translate(34.4275 133.775959) scale(0.2 -0.2)">
       <use xlink:href="#DejaVuSans-30"/>
       <use xlink:href="#DejaVuSans-2e" transform="translate(63.623047 0)"/>
       <use xlink:href="#DejaVuSans-38" transform="translate(95.410156 0)"/>
      </g>
     </g>
    </g>
    <g id="ytick_6">
     <g id="line2d_23">
      <path d="M 73.23375 38.222996 
L 742.83375 38.222996 
" clip-path="url(#pb727acae90)" style="fill: none; stroke: #b0b0b0; stroke-opacity: 0.3; stroke-width: 0.8; stroke-linecap: square"/>
     </g>
     <g id="line2d_24">
      <g>
       <use xlink:href="#m40f946070f" x="73.23375" y="38.222996" style="stroke: #000000; stroke-width: 0.8"/>
      </g>
     </g>
     <g id="text_13">
      <!-- 1.0 -->
      <g transform="translate(34.4275 45.821433) scale(0.2 -0.2)">
       <use xlink:href="#DejaVuSans-31"/>
       <use xlink:href="#DejaVuSans-2e" transform="translate(63.623047 0)"/>
       <use xlink:href="#DejaVuSans-30" transform="translate(95.410156 0)"/>
      </g>
     </g>
    </g>
    <g id="text_14">
     <!-- Mean Episode Reward -->
     <g transform="translate(25.43625 388.38) rotate(-90) scale(0.24 -0.24)">
      <defs>
       <path id="DejaVuSans-4d" d="M 628 4666 
L 1569 4666 
L 2759 1491 
L 3956 4666 
L 4897 4666 
L 4897 0 
L 4281 0 
L 4281 4097 
L 3078 897 
L 2444 897 
L 1241 4097 
L 1241 0 
L 628 0 
L 628 4666 
z
" transform="scale(0.015625)"/>
       <path id="DejaVuSans-61" d="M 2194 1759 
Q 1497 1759 1228 1600 
Q 959 1441 959 1056 
Q 959 750 1161 570 
Q 1363 391 1709 391 
Q 2188 391 2477 730 
Q 2766 1069 2766 1631 
L 2766 1759 
L 2194 1759 
z
M 3341 1997 
L 3341 0 
L 2766 0 
L 2766 531 
Q 2569 213 2275 61 
Q 1981 -91 1556 -91 
Q 1019 -91 701 211 
Q 384 513 384 1019 
Q 384 1609 779 1909 
Q 1175 2209 1959 2209 
L 2766 2209 
L 2766 2266 
Q 2766 2663 2505 2880 
Q 2244 3097 1772 3097 
Q 1472 3097 1187 3025 
Q 903 2953 641 2809 
L 641 3341 
Q 956 3463 1253 3523 
Q 1550 3584 1831 3584 
Q 2591 3584 2966 3190 
Q 3341 2797 3341 1997 
z
" transform="scale(0.015625)"/>
       <path id="DejaVuSans-6e" d="M 3513 2113 
L 3513 0 
L 2938 0 
L 2938 2094 
Q 2938 2591 2744 2837 
Q 2550 3084 2163 3084 
Q 1697 3084 1428 2787 
Q 1159 2491 1159 1978 
L 1159 0 
L 581 0 
L 581 3500 
L 1159 3500 
L 1159 2956 
Q 1366 3272 1645 3428 
Q 1925 3584 2291 3584 
Q 2894 3584 3203 3211 
Q 3513 2838 3513 2113 
z
" transform="scale(0.015625)"/>
       <path id="DejaVuSans-20" transform="scale(0.015625)"/>
       <path id="DejaVuSans-45" d="M 628 4666 
L 3578 4666 
L 3578 4134 
L 1259 4134 
L 1259 2753 
L 3481 2753 
L 3481 2222 
L 1259 2222 
L 1259 531 
L 3634 531 
L 3634 0 
L 628 0 
L 628 4666 
z
" transform="scale(0.015625)"/>
       <path id="DejaVuSans-6f" d="M 1959 3097 
Q 1497 3097 1228 2736 
Q 959 2375 959 1747 
Q 959 1119 1226 758 
Q 1494 397 1959 397 
Q 2419 397 2687 759 
Q 2956 1122 2956 1747 
Q 2956 2369 2687 2733 
Q 2419 3097 1959 3097 
z
M 1959 3584 
Q 2709 3584 3137 3096 
Q 3566 2609 3566 1747 
Q 3566 888 3137 398 
Q 2709 -91 1959 -91 
Q 1206 -91 779 398 
Q 353 888 353 1747 
Q 353 2609 779 3096 
Q 1206 3584 1959 3584 
z
" transform="scale(0.015625)"/>
       <path id="DejaVuSans-64" d="M 2906 2969 
L 2906 4863 
L 3481 4863 
L 3481 0 
L 2906 0 
L 2906 525 
Q 2725 213 2448 61 
Q 2172 -91 1784 -91 
Q 1150 -91 751 415 
Q 353 922 353 1747 
Q 353 2572 751 3078 
Q 1150 3584 1784 3584 
Q 2172 3584 2448 3432 
Q 2725 3281 2906 2969 
z
M 947 1747 
Q 947 1113 1208 752 
Q 1469 391 1925 391 
Q 2381 391 2643 752 
Q 2906 1113 2906 1747 
Q 2906 2381 2643 2742 
Q 2381 3103 1925 3103 
Q 1469 3103 1208 2742 
Q 947 2381 947 1747 
z
" transform="scale(0.015625)"/>
       <path id="DejaVuSans-52" d="M 2841 2188 
Q 3044 2119 3236 1894 
Q 3428 1669 3622 1275 
L 4263 0 
L 3584 0 
L 2988 1197 
Q 2756 1666 2539 1819 
Q 2322 1972 1947 1972 
L 1259 1972 
L 1259 0 
L 628 0 
L 628 4666 
L 2053 4666 
Q 2853 4666 3247 4331 
Q 3641 3997 3641 3322 
Q 3641 2881 3436 2590 
Q 3231 2300 2841 2188 
z
M 1259 4147 
L 1259 2491 
L 2053 2491 
Q 2509 2491 2742 2702 
Q 2975 2913 2975 3322 
Q 2975 3731 2742 3939 
Q 2509 4147 2053 4147 
L 1259 4147 
z
" transform="scale(0.015625)"/>
       <path id="DejaVuSans-77" d="M 269 3500 
L 844 3500 
L 1563 769 
L 2278 3500 
L 2956 3500 
L 3675 769 
L 4391 3500 
L 4966 3500 
L 4050 0 
L 3372 0 
L 2619 2869 
L 1863 0 
L 1184 0 
L 269 3500 
z
" transform="scale(0.015625)"/>
       <path id="DejaVuSans-72" d="M 2631 2963 
Q 2534 3019 2420 3045 
Q 2306 3072 2169 3072 
Q 1681 3072 1420 2755 
Q 1159 2438 1159 1844 
L 1159 0 
L 581 0 
L 581 3500 
L 1159 3500 
L 1159 2956 
Q 1341 3275 1631 3429 
Q 1922 3584 2338 3584 
Q 2397 3584 2469 3576 
Q 2541 3569 2628 3553 
L 2631 2963 
z
" transform="scale(0.015625)"/>
      </defs>
      <use xlink:href="#DejaVuSans-4d"/>
      <use xlink:href="#DejaVuSans-65" transform="translate(86.279297 0)"/>
      <use xlink:href="#DejaVuSans-61" transform="translate(147.802734 0)"/>
      <use xlink:href="#DejaVuSans-6e" transform="translate(209.082031 0)"/>
      <use xlink:href="#DejaVuSans-20" transform="translate(272.460938 0)"/>
      <use xlink:href="#DejaVuSans-45" transform="translate(304.248047 0)"/>
      <use xlink:href="#DejaVuSans-70" transform="translate(367.431641 0)"/>
      <use xlink:href="#DejaVuSans-69" transform="translate(430.908203 0)"/>
      <use xlink:href="#DejaVuSans-73" transform="translate(458.691406 0)"/>
      <use xlink:href="#DejaVuSans-6f" transform="translate(510.791016 0)"/>
      <use xlink:href="#DejaVuSans-64" transform="translate(571.972656 0)"/>
      <use xlink:href="#DejaVuSans-65" transform="translate(635.449219 0)"/>
      <use xlink:href="#DejaVuSans-20" transform="translate(696.972656 0)"/>
      <use xlink:href="#DejaVuSans-52" transform="translate(728.759766 0)"/>
      <use xlink:href="#DejaVuSans-65" transform="translate(793.742188 0)"/>
      <use xlink:href="#DejaVuSans-77" transform="translate(855.265625 0)"/>
      <use xlink:href="#DejaVuSans-61" transform="translate(937.052734 0)"/>
      <use xlink:href="#DejaVuSans-72" transform="translate(998.332031 0)"/>
      <use xlink:href="#DejaVuSans-64" transform="translate(1037.695312 0)"/>
     </g>
    </g>
   </g>
   <g id="line2d_25">
    <path d="M 73.240127 393.699707 
L 76.444691 392.046475 
L 79.649255 394.729563 
L 86.058383 383.262083 
L 89.262946 381.038077 
L 92.46751 378.211536 
L 95.672074 375.856527 
L 98.876638 374.897184 
L 102.081202 375.135486 
L 105.285766 373.613697 
L 108.49033 372.573695 
L 111.694894 372.286973 
L 118.104021 369.420698 
L 121.308585 366.989474 
L 124.513149 364.198581 
L 127.717713 360.843445 
L 130.922277 357.002756 
L 134.126841 354.274215 
L 137.331405 349.502338 
L 140.535969 347.88139 
L 143.740532 341.971398 
L 146.945096 338.478513 
L 153.354224 330.329315 
L 156.558788 327.039755 
L 159.763352 319.58183 
L 162.967916 313.746373 
L 166.17248 309.9723 
L 169.377044 303.025191 
L 172.581607 298.09106 
L 175.786171 296.016224 
L 178.990735 290.296504 
L 182.195299 285.792985 
L 185.399863 281.881814 
L 188.604427 274.224248 
L 191.808991 267.773453 
L 195.013555 263.329157 
L 198.218118 260.331018 
L 201.422682 255.836361 
L 204.627246 247.023848 
L 207.83181 242.434375 
L 211.036374 234.44392 
L 214.240938 229.708497 
L 217.445502 222.481013 
L 220.650066 214.446785 
L 227.059193 201.150249 
L 230.263757 195.735589 
L 233.468321 195.059456 
L 236.672885 189.896411 
L 239.877449 186.2588 
L 243.082013 182.816174 
L 246.286577 179.777305 
L 249.491141 178.641763 
L 255.900268 173.042661 
L 259.104832 172.496153 
L 262.309396 169.823158 
L 265.51396 169.601109 
L 268.718524 169.769053 
L 271.923088 167.41655 
L 275.127652 165.83817 
L 278.332215 163.96351 
L 281.536779 164.251912 
L 284.741343 165.549666 
L 287.945907 162.143354 
L 291.150471 160.96068 
L 294.355035 161.664624 
L 297.559599 161.158888 
L 300.764163 158.423819 
L 303.968727 156.494159 
L 307.17329 157.837447 
L 310.377854 157.46337 
L 313.582418 156.254443 
L 316.786982 154.530109 
L 319.991546 154.746983 
L 323.19611 155.301701 
L 326.400674 155.276637 
L 329.605238 155.545794 
L 332.809801 155.586328 
L 336.014365 154.651919 
L 339.218929 153.0755 
L 342.423493 152.874639 
L 345.628057 148.167738 
L 352.037185 147.593367 
L 355.241749 149.802118 
L 358.446312 149.961543 
L 361.650876 150.939112 
L 364.85544 150.909075 
L 368.060004 149.965366 
L 371.264568 146.025005 
L 374.469132 142.580241 
L 377.673696 140.872647 
L 380.87826 140.801207 
L 384.082824 139.560114 
L 387.287387 141.218865 
L 390.491951 143.603511 
L 393.696515 144.555896 
L 396.901079 145.708237 
L 400.105643 145.816543 
L 403.310207 149.190313 
L 406.514771 150.603869 
L 409.719335 149.903662 
L 412.923898 146.486701 
L 416.128462 143.809489 
L 419.333026 143.000073 
L 422.53759 140.657432 
L 425.742154 139.857131 
L 428.946718 140.987062 
L 432.151282 141.162281 
L 435.355846 142.491471 
L 441.764973 136.969688 
L 444.969537 137.376739 
L 448.174101 136.175388 
L 451.378665 131.967766 
L 454.583229 130.535079 
L 457.787793 129.399531 
L 460.992357 131.42014 
L 464.196921 130.120014 
L 467.401484 127.374467 
L 470.606048 129.065015 
L 473.810612 132.062773 
L 477.015176 130.9594 
L 480.21974 131.32034 
L 483.424304 130.678311 
L 486.628868 132.408372 
L 489.833432 134.866272 
L 496.242559 142.62057 
L 499.447123 140.159557 
L 502.651687 137.979733 
L 505.856251 139.861868 
L 509.060815 139.218935 
L 512.265379 138.257165 
L 515.469943 138.108739 
L 518.674507 133.031932 
L 521.87907 130.043199 
L 525.083634 130.360386 
L 528.288198 128.245785 
L 534.697326 126.644206 
L 537.90189 126.844957 
L 541.106454 128.734799 
L 544.311018 129.694805 
L 547.515581 126.048737 
L 550.720145 127.05828 
L 553.924709 124.618985 
L 557.129273 120.693683 
L 560.333837 118.068663 
L 563.538401 116.670288 
L 566.742965 119.670035 
L 569.947529 119.720852 
L 573.152093 119.601577 
L 576.356656 116.45144 
L 579.56122 116.05349 
L 582.765784 114.130965 
L 585.970348 116.381068 
L 589.174912 118.326697 
L 592.379476 122.18307 
L 598.788604 125.165027 
L 601.993167 121.26164 
L 605.197731 123.110987 
L 608.402295 125.955354 
L 611.606859 128.985202 
L 614.811423 129.034816 
L 618.015987 125.855912 
L 621.220551 126.619465 
L 624.425115 127.081232 
L 627.629678 126.110365 
L 630.834242 127.87328 
L 634.038806 131.402414 
L 637.24337 133.909453 
L 640.447934 132.574272 
L 643.652498 131.065121 
L 646.857062 127.431074 
L 650.061626 129.007254 
L 653.26619 130.036239 
L 659.675317 132.554279 
L 662.879881 131.850783 
L 666.084445 132.302432 
L 669.289009 133.84521 
L 672.493573 136.194809 
L 675.698137 136.084191 
L 678.902701 135.737125 
L 682.107264 135.747919 
L 685.311828 134.461068 
L 688.516392 131.114454 
L 691.720956 130.022349 
L 694.92552 128.475507 
L 698.130084 125.253735 
L 701.334648 122.312811 
L 704.539212 110.405156 
L 707.743776 102.701535 
L 710.948339 103.057329 
L 710.948339 103.057329 
" clip-path="url(#pb727acae90)" style="fill: none; stroke: #008000; stroke-width: 2; stroke-linecap: square"/>
   </g>
   <g id="line2d_26">
    <path d="M 73.240127 440.320704 
L 76.444691 440.054195 
L 79.649255 441.07953 
L 82.853819 441.048543 
L 86.058383 435.548716 
L 89.262946 429.082699 
L 92.46751 426.958825 
L 95.672074 425.048581 
L 98.876638 422.81371 
L 102.081202 421.96477 
L 105.285766 419.12924 
L 108.49033 416.02605 
L 111.694894 414.463596 
L 114.899458 413.24852 
L 118.104021 412.341632 
L 124.513149 409.332354 
L 127.717713 407.791886 
L 130.922277 408.143232 
L 137.331405 405.652775 
L 140.535969 404.847957 
L 143.740532 404.722679 
L 146.945096 403.959907 
L 150.14966 402.524502 
L 156.558788 401.436656 
L 159.763352 399.774597 
L 162.967916 399.602137 
L 166.17248 399.180537 
L 169.377044 398.505275 
L 172.581607 397.300656 
L 178.990735 391.919908 
L 182.195299 389.311906 
L 188.604427 384.666687 
L 191.808991 383.476116 
L 195.013555 380.8425 
L 198.218118 377.636821 
L 201.422682 376.61507 
L 204.627246 374.772031 
L 207.83181 373.486039 
L 211.036374 371.917565 
L 214.240938 368.192643 
L 217.445502 364.169749 
L 220.650066 363.240776 
L 223.854629 359.959141 
L 227.059193 357.659132 
L 230.263757 355.796902 
L 233.468321 350.961782 
L 236.672885 347.896527 
L 239.877449 346.748061 
L 243.082013 345.145497 
L 246.286577 342.541262 
L 249.491141 340.551027 
L 252.695704 337.623759 
L 255.900268 335.175886 
L 259.104832 332.306271 
L 262.309396 330.578649 
L 265.51396 327.796977 
L 268.718524 323.381083 
L 271.923088 319.607569 
L 275.127652 315.304496 
L 278.332215 313.875836 
L 281.536779 311.796869 
L 284.741343 307.243188 
L 287.945907 303.328373 
L 291.150471 300.020474 
L 294.355035 297.942402 
L 297.559599 292.751465 
L 300.764163 288.241189 
L 303.968727 287.215991 
L 307.17329 285.216412 
L 310.377854 282.44311 
L 313.582418 279.347392 
L 316.786982 277.736293 
L 319.991546 274.332249 
L 323.19611 269.532691 
L 326.400674 266.121423 
L 329.605238 261.766017 
L 332.809801 259.736578 
L 336.014365 256.67377 
L 339.218929 251.935502 
L 342.423493 245.502522 
L 345.628057 239.543786 
L 348.832621 232.803903 
L 352.037185 229.815824 
L 355.241749 223.83355 
L 358.446312 222.967849 
L 361.650876 220.87636 
L 364.85544 216.412719 
L 368.060004 213.845208 
L 371.264568 209.764222 
L 374.469132 207.513056 
L 377.673696 203.910469 
L 380.87826 204.027625 
L 384.082824 201.004101 
L 387.287387 198.462568 
L 390.491951 195.125582 
L 393.696515 192.827244 
L 396.901079 191.874505 
L 400.105643 188.880499 
L 406.514771 186.072692 
L 409.719335 182.473093 
L 412.923898 180.314831 
L 419.333026 177.129138 
L 428.946718 171.115229 
L 432.151282 169.839412 
L 435.355846 165.976112 
L 441.764973 164.251446 
L 444.969537 162.909584 
L 448.174101 161.027882 
L 451.378665 158.376625 
L 454.583229 157.474396 
L 457.787793 154.665882 
L 464.196921 153.07138 
L 467.401484 151.550835 
L 473.810612 147.722784 
L 477.015176 146.65064 
L 480.21974 146.288595 
L 483.424304 145.625574 
L 486.628868 145.975416 
L 489.833432 146.564323 
L 496.242559 146.639018 
L 499.447123 145.30308 
L 502.651687 144.435926 
L 505.856251 143.862906 
L 509.060815 145.739113 
L 512.265379 144.894488 
L 515.469943 144.384949 
L 518.674507 143.043309 
L 521.87907 143.511378 
L 525.083634 142.691852 
L 528.288198 142.732264 
L 531.492762 141.117256 
L 534.697326 140.231535 
L 537.90189 140.168127 
L 541.106454 138.627538 
L 544.311018 138.316267 
L 547.515581 138.255952 
L 550.720145 136.598458 
L 553.924709 138.265167 
L 557.129273 140.711263 
L 560.333837 142.161717 
L 563.538401 144.813786 
L 566.742965 147.721815 
L 569.947529 149.662926 
L 573.152093 151.388154 
L 576.356656 151.534952 
L 579.56122 152.792877 
L 582.765784 152.609755 
L 585.970348 153.814806 
L 589.174912 153.106258 
L 592.379476 153.348252 
L 595.58404 153.77223 
L 598.788604 152.036256 
L 601.993167 152.547806 
L 605.197731 150.934751 
L 608.402295 152.028179 
L 611.606859 154.101675 
L 614.811423 153.041073 
L 618.015987 148.234737 
L 621.220551 147.685299 
L 624.425115 146.630557 
L 627.629678 144.693479 
L 630.834242 142.097586 
L 634.038806 140.860174 
L 637.24337 140.900173 
L 640.447934 141.747697 
L 643.652498 141.421864 
L 646.857062 139.043881 
L 650.061626 137.17292 
L 653.26619 136.062641 
L 656.470753 135.403753 
L 659.675317 135.870601 
L 662.879881 134.992104 
L 666.084445 132.752801 
L 669.289009 133.132399 
L 672.493573 133.290555 
L 675.698137 131.828086 
L 678.902701 132.486138 
L 682.107264 131.822556 
L 685.311828 132.834232 
L 688.516392 134.487385 
L 691.720956 135.63226 
L 698.130084 138.927742 
L 701.334648 139.12618 
L 704.539212 139.711807 
L 707.743776 141.202191 
L 710.948339 139.915822 
L 710.948339 139.915822 
" clip-path="url(#pb727acae90)" style="fill: none; stroke: #0000ff; stroke-width: 2; stroke-linecap: square"/>
   </g>
   <g id="line2d_27">
    <path d="M 73.240127 432.691022 
L 76.444691 410.600591 
L 79.649255 403.025117 
L 82.853819 366.589393 
L 86.058383 354.295 
L 89.262946 350.045701 
L 92.46751 342.764355 
L 95.672074 340.132817 
L 98.876638 336.313285 
L 102.081202 331.903417 
L 105.285766 327.696548 
L 108.49033 321.893613 
L 111.694894 314.171788 
L 114.899458 311.752796 
L 118.104021 314.279525 
L 121.308585 313.996795 
L 124.513149 313.125251 
L 127.717713 311.899893 
L 130.922277 312.216088 
L 134.126841 311.716559 
L 137.331405 309.162656 
L 140.535969 306.983172 
L 146.945096 301.27602 
L 150.14966 295.287275 
L 153.354224 291.696409 
L 156.558788 290.127188 
L 159.763352 289.447725 
L 162.967916 286.231039 
L 166.17248 282.042187 
L 172.581607 276.450033 
L 175.786171 273.452359 
L 178.990735 270.841948 
L 182.195299 268.503549 
L 185.399863 265.403834 
L 188.604427 262.764551 
L 191.808991 261.286467 
L 195.013555 258.491616 
L 198.218118 256.271074 
L 201.422682 254.60202 
L 204.627246 252.522302 
L 207.83181 251.861972 
L 211.036374 250.52659 
L 214.240938 250.288475 
L 217.445502 249.123178 
L 220.650066 245.763371 
L 223.854629 245.084051 
L 227.059193 243.471574 
L 230.263757 240.130829 
L 233.468321 237.894725 
L 236.672885 236.267006 
L 239.877449 235.120352 
L 243.082013 235.743964 
L 246.286577 234.061855 
L 249.491141 231.693385 
L 252.695704 230.325233 
L 255.900268 230.268429 
L 259.104832 229.80372 
L 262.309396 228.088939 
L 265.51396 225.635113 
L 268.718524 225.285653 
L 271.923088 222.898232 
L 275.127652 222.53 
L 278.332215 222.652479 
L 281.536779 221.435001 
L 284.741343 222.111691 
L 287.945907 222.063637 
L 291.150471 220.154838 
L 297.559599 223.290434 
L 300.764163 223.229264 
L 303.968727 223.313364 
L 307.17329 222.256873 
L 310.377854 222.196326 
L 313.582418 222.779037 
L 316.786982 223.979625 
L 319.991546 224.039667 
L 323.19611 223.792484 
L 329.605238 222.984254 
L 332.809801 224.487031 
L 336.014365 221.778517 
L 339.218929 219.752525 
L 342.423493 220.86767 
L 345.628057 220.241143 
L 352.037185 217.44315 
L 355.241749 217.147524 
L 358.446312 216.127359 
L 361.650876 214.220309 
L 364.85544 212.738289 
L 368.060004 212.291764 
L 371.264568 212.529871 
L 374.469132 213.19169 
L 377.673696 214.131124 
L 380.87826 214.438275 
L 384.082824 213.278304 
L 387.287387 213.62484 
L 390.491951 212.696887 
L 393.696515 213.941182 
L 396.901079 215.735069 
L 400.105643 214.659686 
L 403.310207 217.033577 
L 406.514771 216.299583 
L 409.719335 213.794574 
L 412.923898 215.716395 
L 416.128462 217.366006 
L 419.333026 219.416812 
L 422.53759 220.780782 
L 425.742154 222.726604 
L 428.946718 224.991268 
L 432.151282 222.861907 
L 435.355846 222.221657 
L 438.56041 220.848623 
L 441.764973 221.507657 
L 444.969537 221.964197 
L 448.174101 221.432668 
L 451.378665 223.514071 
L 454.583229 224.452183 
L 457.787793 223.328333 
L 460.992357 224.118941 
L 467.401484 223.722359 
L 470.606048 224.396474 
L 473.810612 225.651217 
L 477.015176 226.411558 
L 480.21974 227.36244 
L 483.424304 228.010931 
L 486.628868 227.687456 
L 489.833432 228.023409 
L 493.037995 230.236169 
L 496.242559 231.118504 
L 499.447123 231.361732 
L 502.651687 232.721985 
L 505.856251 234.418788 
L 509.060815 233.441279 
L 512.265379 234.895812 
L 515.469943 232.954741 
L 518.674507 231.604425 
L 521.87907 230.120242 
L 525.083634 230.881601 
L 528.288198 230.566964 
L 534.697326 232.546622 
L 537.90189 230.427693 
L 541.106454 232.514009 
L 544.311018 232.766816 
L 547.515581 233.259539 
L 550.720145 235.583771 
L 553.924709 236.332213 
L 557.129273 237.46467 
L 560.333837 238.37011 
L 563.538401 240.770058 
L 566.742965 241.497819 
L 569.947529 240.692639 
L 576.356656 243.163494 
L 579.56122 244.650402 
L 582.765784 245.029193 
L 585.970348 244.634492 
L 589.174912 247.932741 
L 592.379476 249.81938 
L 595.58404 251.336392 
L 598.788604 251.443622 
L 601.993167 251.162258 
L 605.197731 252.493576 
L 608.402295 254.277792 
L 611.606859 253.757439 
L 614.811423 253.080255 
L 618.015987 253.374513 
L 621.220551 253.912582 
L 624.425115 251.45924 
L 627.629678 252.183863 
L 630.834242 253.359501 
L 634.038806 252.639473 
L 637.24337 252.684417 
L 640.447934 252.580648 
L 643.652498 250.768716 
L 646.857062 248.829077 
L 650.061626 247.346283 
L 653.26619 246.100073 
L 656.470753 244.259805 
L 659.675317 243.613587 
L 662.879881 243.176628 
L 666.084445 242.441588 
L 669.289009 238.962858 
L 672.493573 238.877829 
L 675.698137 237.603743 
L 678.902701 234.76787 
L 685.311828 237.33655 
L 688.516392 237.242779 
L 691.720956 236.11937 
L 694.92552 234.060908 
L 698.130084 233.565878 
L 701.334648 232.661066 
L 704.539212 231.074367 
L 707.743776 232.032876 
L 710.948339 230.978974 
L 710.948339 230.978974 
" clip-path="url(#pb727acae90)" style="fill: none; stroke: #ffa500; stroke-width: 2; stroke-linecap: square"/>
   </g>
   <g id="patch_3">
    <path d="M 73.23375 477.995625 
L 73.23375 34.475625 
" style="fill: none; stroke: #000000; stroke-width: 0.8; stroke-linejoin: miter; stroke-linecap: square"/>
   </g>
   <g id="patch_4">
    <path d="M 742.83375 477.995625 
L 742.83375 34.475625 
" style="fill: none; stroke: #000000; stroke-width: 0.8; stroke-linejoin: miter; stroke-linecap: square"/>
   </g>
   <g id="patch_5">
    <path d="M 73.23375 477.995625 
L 742.83375 477.995625 
" style="fill: none; stroke: #000000; stroke-width: 0.8; stroke-linejoin: miter; stroke-linecap: square"/>
   </g>
   <g id="patch_6">
    <path d="M 73.23375 34.475625 
L 742.83375 34.475625 
" style="fill: none; stroke: #000000; stroke-width: 0.8; stroke-linejoin: miter; stroke-linecap: square"/>
   </g>
   <g id="text_15">
    <!-- Transfer Learning: 5x5 to 7x7 Crossing -->
    <g transform="translate(137.72875 28.475625) scale(0.28 -0.28)">
     <defs>
      <path id="DejaVuSans-66" d="M 2375 4863 
L 2375 4384 
L 1825 4384 
Q 1516 4384 1395 4259 
Q 1275 4134 1275 3809 
L 1275 3500 
L 2222 3500 
L 2222 3053 
L 1275 3053 
L 1275 0 
L 697 0 
L 697 3053 
L 147 3053 
L 147 3500 
L 697 3500 
L 697 3744 
Q 697 4328 969 4595 
Q 1241 4863 1831 4863 
L 2375 4863 
z
" transform="scale(0.015625)"/>
      <path id="DejaVuSans-4c" d="M 628 4666 
L 1259 4666 
L 1259 531 
L 3531 531 
L 3531 0 
L 628 0 
L 628 4666 
z
" transform="scale(0.015625)"/>
      <path id="DejaVuSans-67" d="M 2906 1791 
Q 2906 2416 2648 2759 
Q 2391 3103 1925 3103 
Q 1463 3103 1205 2759 
Q 947 2416 947 1791 
Q 947 1169 1205 825 
Q 1463 481 1925 481 
Q 2391 481 2648 825 
Q 2906 1169 2906 1791 
z
M 3481 434 
Q 3481 -459 3084 -895 
Q 2688 -1331 1869 -1331 
Q 1566 -1331 1297 -1286 
Q 1028 -1241 775 -1147 
L 775 -588 
Q 1028 -725 1275 -790 
Q 1522 -856 1778 -856 
Q 2344 -856 2625 -561 
Q 2906 -266 2906 331 
L 2906 616 
Q 2728 306 2450 153 
Q 2172 0 1784 0 
Q 1141 0 747 490 
Q 353 981 353 1791 
Q 353 2603 747 3093 
Q 1141 3584 1784 3584 
Q 2172 3584 2450 3431 
Q 2728 3278 2906 2969 
L 2906 3500 
L 3481 3500 
L 3481 434 
z
" transform="scale(0.015625)"/>
      <path id="DejaVuSans-3a" d="M 750 794 
L 1409 794 
L 1409 0 
L 750 0 
L 750 794 
z
M 750 3309 
L 1409 3309 
L 1409 2516 
L 750 2516 
L 750 3309 
z
" transform="scale(0.015625)"/>
      <path id="DejaVuSans-35" d="M 691 4666 
L 3169 4666 
L 3169 4134 
L 1269 4134 
L 1269 2991 
Q 1406 3038 1543 3061 
Q 1681 3084 1819 3084 
Q 2600 3084 3056 2656 
Q 3513 2228 3513 1497 
Q 3513 744 3044 326 
Q 2575 -91 1722 -91 
Q 1428 -91 1123 -41 
Q 819 9 494 109 
L 494 744 
Q 775 591 1075 516 
Q 1375 441 1709 441 
Q 2250 441 2565 725 
Q 2881 1009 2881 1497 
Q 2881 1984 2565 2268 
Q 2250 2553 1709 2553 
Q 1456 2553 1204 2497 
Q 953 2441 691 2322 
L 691 4666 
z
" transform="scale(0.015625)"/>
      <path id="DejaVuSans-78" d="M 3513 3500 
L 2247 1797 
L 3578 0 
L 2900 0 
L 1881 1375 
L 863 0 
L 184 0 
L 1544 1831 
L 300 3500 
L 978 3500 
L 1906 2253 
L 2834 3500 
L 3513 3500 
z
" transform="scale(0.015625)"/>
      <path id="DejaVuSans-37" d="M 525 4666 
L 3525 4666 
L 3525 4397 
L 1831 0 
L 1172 0 
L 2766 4134 
L 525 4134 
L 525 4666 
z
" transform="scale(0.015625)"/>
      <path id="DejaVuSans-43" d="M 4122 4306 
L 4122 3641 
Q 3803 3938 3442 4084 
Q 3081 4231 2675 4231 
Q 1875 4231 1450 3742 
Q 1025 3253 1025 2328 
Q 1025 1406 1450 917 
Q 1875 428 2675 428 
Q 3081 428 3442 575 
Q 3803 722 4122 1019 
L 4122 359 
Q 3791 134 3420 21 
Q 3050 -91 2638 -91 
Q 1578 -91 968 557 
Q 359 1206 359 2328 
Q 359 3453 968 4101 
Q 1578 4750 2638 4750 
Q 3056 4750 3426 4639 
Q 3797 4528 4122 4306 
z
" transform="scale(0.015625)"/>
     </defs>
     <use xlink:href="#DejaVuSans-54"/>
     <use xlink:href="#DejaVuSans-72" transform="translate(46.333984 0)"/>
     <use xlink:href="#DejaVuSans-61" transform="translate(87.447266 0)"/>
     <use xlink:href="#DejaVuSans-6e" transform="translate(148.726562 0)"/>
     <use xlink:href="#DejaVuSans-73" transform="translate(212.105469 0)"/>
     <use xlink:href="#DejaVuSans-66" transform="translate(264.205078 0)"/>
     <use xlink:href="#DejaVuSans-65" transform="translate(299.410156 0)"/>
     <use xlink:href="#DejaVuSans-72" transform="translate(360.933594 0)"/>
     <use xlink:href="#DejaVuSans-20" transform="translate(402.046875 0)"/>
     <use xlink:href="#DejaVuSans-4c" transform="translate(433.833984 0)"/>
     <use xlink:href="#DejaVuSans-65" transform="translate(487.796875 0)"/>
     <use xlink:href="#DejaVuSans-61" transform="translate(549.320312 0)"/>
     <use xlink:href="#DejaVuSans-72" transform="translate(610.599609 0)"/>
     <use xlink:href="#DejaVuSans-6e" transform="translate(649.962891 0)"/>
     <use xlink:href="#DejaVuSans-69" transform="translate(713.341797 0)"/>
     <use xlink:href="#DejaVuSans-6e" transform="translate(741.125 0)"/>
     <use xlink:href="#DejaVuSans-67" transform="translate(804.503906 0)"/>
     <use xlink:href="#DejaVuSans-3a" transform="translate(867.980469 0)"/>
     <use xlink:href="#DejaVuSans-20" transform="translate(901.671875 0)"/>
     <use xlink:href="#DejaVuSans-35" transform="translate(933.458984 0)"/>
     <use xlink:href="#DejaVuSans-78" transform="translate(997.082031 0)"/>
     <use xlink:href="#DejaVuSans-35" transform="translate(1056.261719 0)"/>
     <use xlink:href="#DejaVuSans-20" transform="translate(1119.884766 0)"/>
     <use xlink:href="#DejaVuSans-74" transform="translate(1151.671875 0)"/>
     <use xlink:href="#DejaVuSans-6f" transform="translate(1190.880859 0)"/>
     <use xlink:href="#DejaVuSans-20" transform="translate(1252.0625 0)"/>
     <use xlink:href="#DejaVuSans-37" transform="translate(1283.849609 0)"/>
     <use xlink:href="#DejaVuSans-78" transform="translate(1347.472656 0)"/>
     <use xlink:href="#DejaVuSans-37" transform="translate(1406.652344 0)"/>
     <use xlink:href="#DejaVuSans-20" transform="translate(1470.275391 0)"/>
     <use xlink:href="#DejaVuSans-43" transform="translate(1502.0625 0)"/>
     <use xlink:href="#DejaVuSans-72" transform="translate(1571.886719 0)"/>
     <use xlink:href="#DejaVuSans-6f" transform="translate(1610.75 0)"/>
     <use xlink:href="#DejaVuSans-73" transform="translate(1671.931641 0)"/>
     <use xlink:href="#DejaVuSans-73" transform="translate(1724.03125 0)"/>
     <use xlink:href="#DejaVuSans-69" transform="translate(1776.130859 0)"/>
     <use xlink:href="#DejaVuSans-6e" transform="translate(1803.914062 0)"/>
     <use xlink:href="#DejaVuSans-67" transform="translate(1867.292969 0)"/>
    </g>
   </g>
   <g id="legend_1">
    <g id="patch_7">
     <path d="M 393.85875 467.995625 
L 728.83375 467.995625 
Q 732.83375 467.995625 732.83375 463.995625 
L 732.83375 377.926875 
Q 732.83375 373.926875 728.83375 373.926875 
L 393.85875 373.926875 
Q 389.85875 373.926875 389.85875 377.926875 
L 389.85875 463.995625 
Q 389.85875 467.995625 393.85875 467.995625 
z
" style="fill: #ffffff; opacity: 0.8; stroke: #cccccc; stroke-linejoin: miter"/>
    </g>
    <g id="line2d_28">
     <path d="M 397.85875 390.12375 
L 417.85875 390.12375 
L 437.85875 390.12375 
" style="fill: none; stroke: #008000; stroke-width: 2; stroke-linecap: square"/>
    </g>
    <g id="text_16">
     <!-- 5x5 baseline (n=20) -->
     <g transform="translate(453.85875 397.12375) scale(0.2 -0.2)">
      <defs>
       <path id="DejaVuSans-62" d="M 3116 1747 
Q 3116 2381 2855 2742 
Q 2594 3103 2138 3103 
Q 1681 3103 1420 2742 
Q 1159 2381 1159 1747 
Q 1159 1113 1420 752 
Q 1681 391 2138 391 
Q 2594 391 2855 752 
Q 3116 1113 3116 1747 
z
M 1159 2969 
Q 1341 3281 1617 3432 
Q 1894 3584 2278 3584 
Q 2916 3584 3314 3078 
Q 3713 2572 3713 1747 
Q 3713 922 3314 415 
Q 2916 -91 2278 -91 
Q 1894 -91 1617 61 
Q 1341 213 1159 525 
L 1159 0 
L 581 0 
L 581 4863 
L 1159 4863 
L 1159 2969 
z
" transform="scale(0.015625)"/>
       <path id="DejaVuSans-6c" d="M 603 4863 
L 1178 4863 
L 1178 0 
L 603 0 
L 603 4863 
z
" transform="scale(0.015625)"/>
       <path id="DejaVuSans-28" d="M 1984 4856 
Q 1566 4138 1362 3434 
Q 1159 2731 1159 2009 
Q 1159 1288 1364 580 
Q 1569 -128 1984 -844 
L 1484 -844 
Q 1016 -109 783 600 
Q 550 1309 550 2009 
Q 550 2706 781 3412 
Q 1013 4119 1484 4856 
L 1984 4856 
z
" transform="scale(0.015625)"/>
       <path id="DejaVuSans-3d" d="M 678 2906 
L 4684 2906 
L 4684 2381 
L 678 2381 
L 678 2906 
z
M 678 1631 
L 4684 1631 
L 4684 1100 
L 678 1100 
L 678 1631 
z
" transform="scale(0.015625)"/>
       <path id="DejaVuSans-29" d="M 513 4856 
L 1013 4856 
Q 1481 4119 1714 3412 
Q 1947 2706 1947 2009 
Q 1947 1309 1714 600 
Q 1481 -109 1013 -844 
L 513 -844 
Q 928 -128 1133 580 
Q 1338 1288 1338 2009 
Q 1338 2731 1133 3434 
Q 928 4138 513 4856 
z
" transform="scale(0.015625)"/>
      </defs>
      <use xlink:href="#DejaVuSans-35"/>
      <use xlink:href="#DejaVuSans-78" transform="translate(63.623047 0)"/>
      <use xlink:href="#DejaVuSans-35" transform="translate(122.802734 0)"/>
      <use xlink:href="#DejaVuSans-20" transform="translate(186.425781 0)"/>
      <use xlink:href="#DejaVuSans-62" transform="translate(218.212891 0)"/>
      <use xlink:href="#DejaVuSans-61" transform="translate(281.689453 0)"/>
      <use xlink:href="#DejaVuSans-73" transform="translate(342.96875 0)"/>
      <use xlink:href="#DejaVuSans-65" transform="translate(395.068359 0)"/>
      <use xlink:href="#DejaVuSans-6c" transform="translate(456.591797 0)"/>
      <use xlink:href="#DejaVuSans-69" transform="translate(484.375 0)"/>
      <use xlink:href="#DejaVuSans-6e" transform="translate(512.158203 0)"/>
      <use xlink:href="#DejaVuSans-65" transform="translate(575.537109 0)"/>
      <use xlink:href="#DejaVuSans-20" transform="translate(637.060547 0)"/>
      <use xlink:href="#DejaVuSans-28" transform="translate(668.847656 0)"/>
      <use xlink:href="#DejaVuSans-6e" transform="translate(707.861328 0)"/>
      <use xlink:href="#DejaVuSans-3d" transform="translate(771.240234 0)"/>
      <use xlink:href="#DejaVuSans-32" transform="translate(855.029297 0)"/>
      <use xlink:href="#DejaVuSans-30" transform="translate(918.652344 0)"/>
      <use xlink:href="#DejaVuSans-29" transform="translate(982.275391 0)"/>
     </g>
    </g>
    <g id="line2d_29">
     <path d="M 397.85875 419.48 
L 417.85875 419.48 
L 437.85875 419.48 
" style="fill: none; stroke: #0000ff; stroke-width: 2; stroke-linecap: square"/>
    </g>
    <g id="text_17">
     <!-- 7x7 baseline (n=20) -->
     <g transform="translate(453.85875 426.48) scale(0.2 -0.2)">
      <use xlink:href="#DejaVuSans-37"/>
      <use xlink:href="#DejaVuSans-78" transform="translate(63.623047 0)"/>
      <use xlink:href="#DejaVuSans-37" transform="translate(122.802734 0)"/>
      <use xlink:href="#DejaVuSans-20" transform="translate(186.425781 0)"/>
      <use xlink:href="#DejaVuSans-62" transform="translate(218.212891 0)"/>
      <use xlink:href="#DejaVuSans-61" transform="translate(281.689453 0)"/>
      <use xlink:href="#DejaVuSans-73" transform="translate(342.96875 0)"/>
      <use xlink:href="#DejaVuSans-65" transform="translate(395.068359 0)"/>
      <use xlink:href="#DejaVuSans-6c" transform="translate(456.591797 0)"/>
      <use xlink:href="#DejaVuSans-69" transform="translate(484.375 0)"/>
      <use xlink:href="#DejaVuSans-6e" transform="translate(512.158203 0)"/>
      <use xlink:href="#DejaVuSans-65" transform="translate(575.537109 0)"/>
      <use xlink:href="#DejaVuSans-20" transform="translate(637.060547 0)"/>
      <use xlink:href="#DejaVuSans-28" transform="translate(668.847656 0)"/>
      <use xlink:href="#DejaVuSans-6e" transform="translate(707.861328 0)"/>
      <use xlink:href="#DejaVuSans-3d" transform="translate(771.240234 0)"/>
      <use xlink:href="#DejaVuSans-32" transform="translate(855.029297 0)"/>
      <use xlink:href="#DejaVuSans-30" transform="translate(918.652344 0)"/>
      <use xlink:href="#DejaVuSans-29" transform="translate(982.275391 0)"/>
     </g>
    </g>
    <g id="line2d_30">
     <path d="M 397.85875 448.83625 
L 417.85875 448.83625 
L 437.85875 448.83625 
" style="fill: none; stroke: #ffa500; stroke-width: 2; stroke-linecap: square"/>
    </g>
    <g id="text_18">
     <!-- Transfer 5x5 to 7x7 (n=20) -->
     <g transform="translate(453.85875 455.83625) scale(0.2 -0.2)">
      <use xlink:href="#DejaVuSans-54"/>
      <use xlink:href="#DejaVuSans-72" transform="translate(46.333984 0)"/>
      <use xlink:href="#DejaVuSans-61" transform="translate(87.447266 0)"/>
      <use xlink:href="#DejaVuSans-6e" transform="translate(148.726562 0)"/>
      <use xlink:href="#DejaVuSans-73" transform="translate(212.105469 0)"/>
      <use xlink:href="#DejaVuSans-66" transform="translate(264.205078 0)"/>
      <use xlink:href="#DejaVuSans-65" transform="translate(299.410156 0)"/>
      <use xlink:href="#DejaVuSans-72" transform="translate(360.933594 0)"/>
      <use xlink:href="#DejaVuSans-20" transform="translate(402.046875 0)"/>
      <use xlink:href="#DejaVuSans-35" transform="translate(433.833984 0)"/>
      <use xlink:href="#DejaVuSans-78" transform="translate(497.457031 0)"/>
      <use xlink:href="#DejaVuSans-35" transform="translate(556.636719 0)"/>
      <use xlink:href="#DejaVuSans-20" transform="translate(620.259766 0)"/>
      <use xlink:href="#DejaVuSans-74" transform="translate(652.046875 0)"/>
      <use xlink:href="#DejaVuSans-6f" transform="translate(691.255859 0)"/>
      <use xlink:href="#DejaVuSans-20" transform="translate(752.4375 0)"/>
      <use xlink:href="#DejaVuSans-37" transform="translate(784.224609 0)"/>
      <use xlink:href="#DejaVuSans-78" transform="translate(847.847656 0)"/>
      <use xlink:href="#DejaVuSans-37" transform="translate(907.027344 0)"/>
      <use xlink:href="#DejaVuSans-20" transform="translate(970.650391 0)"/>
      <use xlink:href="#DejaVuSans-28" transform="translate(1002.4375 0)"/>
      <use xlink:href="#DejaVuSans-6e" transform="translate(1041.451172 0)"/>
      <use xlink:href="#DejaVuSans-3d" transform="translate(1104.830078 0)"/>
      <use xlink:href="#DejaVuSans-32" transform="translate(1188.619141 0)"/>
      <use xlink:href="#DejaVuSans-30" transform="translate(1252.242188 0)"/>
      <use xlink:href="#DejaVuSans-29" transform="translate(1315.865234 0)"/>
     </g>
    </g>
   </g>
  </g>
 </g>
 <defs>
  <clipPath id="pb727acae90">
   <rect x="73.23375" y="34.475625" width="669.6" height="443.52"/>
  </clipPath>
 </defs>
</svg>
