<?xml version="1.0" encoding="utf-8" standalone="no"?>
<!DOCTYPE svg PUBLIC "-//W3C//DTD SVG 1.1//EN"
  "http://www.w3.org/Graphics/SVG/1.1/DTD/svg11.dtd">
<svg xmlns:xlink="http://www.w3.org/1999/xlink" width="756.316962pt" height="519.016014pt" viewBox="0 0 756.316962 519.016014" xmlns="http://www.w3.org/2000/svg" version="1.1">
 <metadata>
  <rdf:RDF xmlns:dc="http://purl.org/dc/elements/1.1/" xmlns:cc="http://creativecommons.org/ns#" xmlns:rdf="http://www.w3.org/1999/02/22-rdf-syntax-ns#">
   <cc:Work>
    <dc:type rdf:resource="http://purl.org/dc/dcmitype/StillImage"/>
    <dc:date>2025-08-11T17:57:40.801683</dc:date>
    <dc:format>image/svg+xml</dc:format>
    <dc:creator>
     <cc:Agent>
      <dc:title>Matplotlib v3.10.3, https://matplotlib.org/</dc:title>
     </cc:Agent>
    </dc:creator>
   </cc:Work>
  </rdf:RDF>
 </metadata>
 <defs>
  <style type="text/css">*{stroke-linejoin: round; stroke-linecap: butt}</style>
 </defs>
 <g id="figure_1">
  <g id="patch_1">
   <path d="M 0 519.016014 
L 756.316962 519.016014 
L 756.316962 0 
L 0 0 
z
" style="fill: #ffffff"/>
  </g>
  <g id="axes_1">
   <g id="patch_2">
    <path d="M 73.23375 458.232264 
L 742.83375 458.232264 
L 742.83375 14.712264 
L 73.23375 14.712264 
z
" style="fill: #ffffff"/>
   </g>
   <g id="FillBetweenPolyCollection_1">
    <defs>
     <path id="m232a5552a8" d="M 73.240127 -149.94974 
L 73.240127 -60.78375 
L 76.444691 -61.052932 
L 79.649255 -61.31559 
L 82.853819 -61.953038 
L 86.058383 -66.578134 
L 89.262946 -71.671406 
L 92.46751 -78.474406 
L 95.672074 -89.014048 
L 98.876638 -89.595281 
L 102.081202 -91.448062 
L 105.285766 -92.381808 
L 108.49033 -98.745292 
L 111.694894 -99.046001 
L 114.899458 -106.270393 
L 118.104021 -107.635385 
L 121.308585 -108.993346 
L 124.513149 -112.238858 
L 127.717713 -115.682339 
L 130.922277 -117.588174 
L 134.126841 -117.688295 
L 137.331405 -119.730196 
L 140.535969 -119.730196 
L 143.740532 -119.730196 
L 146.945096 -119.730196 
L 150.14966 -122.735013 
L 153.354224 -124.988744 
L 156.558788 -124.988744 
L 159.763352 -129.176668 
L 162.967916 -130.591045 
L 166.17248 -131.162028 
L 169.377044 -132.48256 
L 172.581607 -133.229184 
L 175.786171 -134.042518 
L 178.990735 -134.042518 
L 182.195299 -134.616589 
L 185.399863 -134.766472 
L 188.604427 -136.479321 
L 191.808991 -137.378471 
L 195.013555 -137.378471 
L 198.218118 -137.378471 
L 201.422682 -138.210379 
L 204.627246 -140.344438 
L 207.83181 -144.045804 
L 211.036374 -144.959287 
L 214.240938 -147.031215 
L 217.445502 -150.521716 
L 220.650066 -151.641814 
L 223.854629 -153.09785 
L 227.059193 -153.581863 
L 230.263757 -154.473541 
L 233.468321 -158.372692 
L 236.672885 -161.430045 
L 239.877449 -161.581703 
L 243.082013 -162.822617 
L 246.286577 -165.393937 
L 249.491141 -166.496503 
L 252.695704 -177.816392 
L 255.900268 -182.53272 
L 259.104832 -184.478671 
L 262.309396 -185.355926 
L 265.51396 -190.290009 
L 268.718524 -194.982495 
L 271.923088 -197.829388 
L 275.127652 -199.112179 
L 278.332215 -199.112179 
L 281.536779 -199.112179 
L 284.741343 -200.662256 
L 287.945907 -201.441001 
L 291.150471 -202.567144 
L 294.355035 -202.567144 
L 297.559599 -202.567144 
L 300.764163 -203.288077 
L 303.968727 -206.857198 
L 307.17329 -206.857198 
L 310.377854 -211.149853 
L 313.582418 -211.84767 
L 316.786982 -211.84767 
L 319.991546 -212.312149 
L 323.19611 -215.716878 
L 326.400674 -218.158641 
L 329.605238 -222.470472 
L 332.809801 -222.470472 
L 336.014365 -225.019536 
L 339.218929 -243.259356 
L 342.423493 -253.141881 
L 345.628057 -254.811252 
L 348.832621 -256.745832 
L 352.037185 -256.745832 
L 355.241749 -256.809517 
L 358.446312 -257.189496 
L 361.650876 -257.189496 
L 364.85544 -259.285886 
L 368.060004 -259.367216 
L 371.264568 -260.542432 
L 374.469132 -260.542432 
L 377.673696 -260.542432 
L 380.87826 -260.596608 
L 384.082824 -260.596608 
L 387.287387 -263.728244 
L 390.491951 -269.594194 
L 393.696515 -274.269864 
L 396.901079 -274.269864 
L 400.105643 -274.269864 
L 403.310207 -274.269864 
L 406.514771 -274.269864 
L 409.719335 -276.157228 
L 412.923898 -276.157228 
L 416.128462 -276.157228 
L 419.333026 -276.157228 
L 422.53759 -276.157228 
L 425.742154 -276.157228 
L 428.946718 -276.157228 
L 432.151282 -276.157228 
L 435.355846 -276.157228 
L 438.56041 -276.157228 
L 441.764973 -276.157228 
L 444.969537 -276.157228 
L 448.174101 -276.157228 
L 451.378665 -276.157228 
L 454.583229 -276.157228 
L 457.787793 -276.157228 
L 460.992357 -276.157228 
L 464.196921 -278.311653 
L 467.401484 -278.503812 
L 470.606048 -281.198077 
L 473.810612 -283.671231 
L 477.015176 -283.671231 
L 480.21974 -289.267363 
L 483.424304 -294.491392 
L 486.628868 -297.866527 
L 489.833432 -302.794413 
L 493.037995 -304.085053 
L 496.242559 -304.085053 
L 499.447123 -309.952072 
L 502.651687 -313.363869 
L 505.856251 -319.386273 
L 509.060815 -319.386273 
L 512.265379 -319.555659 
L 515.469943 -321.25762 
L 518.674507 -321.25762 
L 521.87907 -321.303573 
L 525.083634 -321.303573 
L 528.288198 -321.303573 
L 531.492762 -321.303573 
L 534.697326 -321.628878 
L 537.90189 -321.628878 
L 541.106454 -323.427287 
L 544.311018 -323.427287 
L 547.515581 -323.427287 
L 550.720145 -324.237319 
L 553.924709 -324.237319 
L 557.129273 -326.024916 
L 560.333837 -326.565919 
L 563.538401 -326.565919 
L 566.742965 -326.565919 
L 569.947529 -326.565919 
L 573.152093 -326.565919 
L 576.356656 -326.565919 
L 579.56122 -326.565919 
L 582.765784 -326.565919 
L 585.970348 -326.565919 
L 589.174912 -326.565919 
L 592.379476 -326.565919 
L 595.58404 -326.565919 
L 598.788604 -326.565919 
L 601.993167 -326.565919 
L 605.197731 -326.565919 
L 608.402295 -326.565919 
L 611.606859 -326.565919 
L 614.811423 -326.565919 
L 618.015987 -328.121233 
L 621.220551 -329.174885 
L 624.425115 -329.174885 
L 627.629678 -329.174885 
L 630.834242 -329.174885 
L 634.038806 -329.174885 
L 637.24337 -329.174885 
L 640.447934 -329.174885 
L 643.652498 -329.174885 
L 646.857062 -329.174885 
L 650.061626 -329.174885 
L 653.26619 -329.174885 
L 656.470753 -329.174885 
L 659.675317 -329.174885 
L 662.879881 -329.174885 
L 666.084445 -329.174885 
L 669.289009 -329.174885 
L 672.493573 -329.174885 
L 675.698137 -329.174885 
L 678.902701 -329.174885 
L 682.107264 -329.174885 
L 685.311828 -329.174885 
L 688.516392 -329.174885 
L 691.720956 -329.174885 
L 694.92552 -329.174885 
L 698.130084 -329.174885 
L 701.334648 -329.174885 
L 704.539212 -329.174885 
L 707.743776 -329.174885 
L 710.948339 -329.174885 
L 710.948339 -483.18375 
L 710.948339 -483.18375 
L 707.743776 -483.18375 
L 704.539212 -483.059521 
L 701.334648 -483.059521 
L 698.130084 -483.059521 
L 694.92552 -483.059521 
L 691.720956 -483.059521 
L 688.516392 -483.059521 
L 685.311828 -483.059521 
L 682.107264 -483.059521 
L 678.902701 -483.059521 
L 675.698137 -483.059521 
L 672.493573 -483.059521 
L 669.289009 -483.059521 
L 666.084445 -483.059521 
L 662.879881 -483.059521 
L 659.675317 -483.059521 
L 656.470753 -483.059521 
L 653.26619 -483.059521 
L 650.061626 -483.059521 
L 646.857062 -483.059521 
L 643.652498 -483.059521 
L 640.447934 -483.059521 
L 637.24337 -483.059521 
L 634.038806 -483.059521 
L 630.834242 -483.059521 
L 627.629678 -483.059521 
L 624.425115 -483.059521 
L 621.220551 -483.059521 
L 618.015987 -483.059521 
L 614.811423 -483.059521 
L 611.606859 -483.059521 
L 608.402295 -483.059521 
L 605.197731 -483.059521 
L 601.993167 -483.059521 
L 598.788604 -483.059521 
L 595.58404 -483.059521 
L 592.379476 -483.059521 
L 589.174912 -483.059521 
L 585.970348 -482.71292 
L 582.765784 -482.325421 
L 579.56122 -482.325421 
L 576.356656 -481.663467 
L 573.152093 -481.240056 
L 569.947529 -480.991127 
L 566.742965 -480.991127 
L 563.538401 -480.991127 
L 560.333837 -480.991127 
L 557.129273 -480.991127 
L 553.924709 -480.991127 
L 550.720145 -480.989321 
L 547.515581 -477.047694 
L 544.311018 -476.985492 
L 541.106454 -475.545441 
L 537.90189 -475.545441 
L 534.697326 -475.545441 
L 531.492762 -475.545441 
L 528.288198 -475.545441 
L 525.083634 -475.545441 
L 521.87907 -475.286854 
L 518.674507 -474.834176 
L 515.469943 -474.834176 
L 512.265379 -474.834176 
L 509.060815 -474.834176 
L 505.856251 -474.834176 
L 502.651687 -474.834176 
L 499.447123 -474.776115 
L 496.242559 -474.776115 
L 493.037995 -474.776115 
L 489.833432 -474.776115 
L 486.628868 -474.009637 
L 483.424304 -471.988508 
L 480.21974 -471.573535 
L 477.015176 -470.582349 
L 473.810612 -470.582349 
L 470.606048 -469.633199 
L 467.401484 -469.441799 
L 464.196921 -467.3399 
L 460.992357 -467.020027 
L 457.787793 -467.020027 
L 454.583229 -466.387444 
L 451.378665 -465.379933 
L 448.174101 -465.379933 
L 444.969537 -465.379933 
L 441.764973 -465.379933 
L 438.56041 -462.214202 
L 435.355846 -462.145949 
L 432.151282 -460.846759 
L 428.946718 -460.017843 
L 425.742154 -460.017843 
L 422.53759 -460.017843 
L 419.333026 -458.66956 
L 416.128462 -458.66956 
L 412.923898 -456.670292 
L 409.719335 -453.894167 
L 406.514771 -450.373985 
L 403.310207 -449.889456 
L 400.105643 -447.949276 
L 396.901079 -447.949276 
L 393.696515 -446.196083 
L 390.491951 -445.27924 
L 387.287387 -442.784083 
L 384.082824 -442.784083 
L 380.87826 -442.784083 
L 377.673696 -441.24323 
L 374.469132 -441.24323 
L 371.264568 -440.970134 
L 368.060004 -439.891337 
L 364.85544 -439.491464 
L 361.650876 -439.201216 
L 358.446312 -437.696593 
L 355.241749 -437.039905 
L 352.037185 -436.179439 
L 348.832621 -431.423614 
L 345.628057 -423.777539 
L 342.423493 -418.58594 
L 339.218929 -414.316063 
L 336.014365 -409.977108 
L 332.809801 -406.272284 
L 329.605238 -402.869375 
L 326.400674 -402.076902 
L 323.19611 -399.949358 
L 319.991546 -398.44828 
L 316.786982 -395.55263 
L 313.582418 -395.55263 
L 310.377854 -394.472855 
L 307.17329 -391.565216 
L 303.968727 -386.638319 
L 300.764163 -380.240904 
L 297.559599 -366.543577 
L 294.355035 -355.137551 
L 291.150471 -343.861975 
L 287.945907 -336.076572 
L 284.741343 -328.080658 
L 281.536779 -316.746003 
L 278.332215 -311.600804 
L 275.127652 -303.498746 
L 271.923088 -287.95723 
L 268.718524 -285.530895 
L 265.51396 -274.483372 
L 262.309396 -268.285083 
L 259.104832 -265.527068 
L 255.900268 -261.394204 
L 252.695704 -251.503946 
L 249.491141 -244.310465 
L 246.286577 -238.849136 
L 243.082013 -231.681994 
L 239.877449 -220.951709 
L 236.672885 -216.595783 
L 233.468321 -208.025436 
L 230.263757 -203.433231 
L 227.059193 -202.975846 
L 223.854629 -202.975846 
L 220.650066 -202.455354 
L 217.445502 -199.402257 
L 214.240938 -193.15054 
L 211.036374 -190.707371 
L 207.83181 -186.797316 
L 204.627246 -185.454913 
L 201.422682 -185.44168 
L 198.218118 -179.357626 
L 195.013555 -175.708615 
L 191.808991 -174.736185 
L 188.604427 -170.882972 
L 185.399863 -170.004178 
L 182.195299 -167.203242 
L 178.990735 -166.672534 
L 175.786171 -165.858629 
L 172.581607 -162.802847 
L 169.377044 -161.994179 
L 166.17248 -160.60628 
L 162.967916 -159.303603 
L 159.763352 -159.119476 
L 156.558788 -159.119476 
L 153.354224 -159.119476 
L 150.14966 -159.119476 
L 146.945096 -159.119476 
L 143.740532 -159.119476 
L 140.535969 -158.493507 
L 137.331405 -158.159408 
L 134.126841 -158.159408 
L 130.922277 -158.159408 
L 127.717713 -158.159408 
L 124.513149 -158.159408 
L 121.308585 -158.159408 
L 118.104021 -158.159408 
L 114.899458 -158.159408 
L 111.694894 -157.901245 
L 108.49033 -156.822131 
L 105.285766 -155.517649 
L 102.081202 -155.246435 
L 98.876638 -155.246435 
L 95.672074 -155.246435 
L 92.46751 -155.246435 
L 89.262946 -155.246435 
L 86.058383 -155.19123 
L 82.853819 -155.19123 
L 79.649255 -155.19123 
L 76.444691 -155.19123 
L 73.240127 -149.94974 
z
" style="stroke: #008000; stroke-opacity: 0.3"/>
    </defs>
    <g clip-path="url(#p304f52305c)">
     <use xlink:href="#m232a5552a8" x="0" y="519.016014" style="fill: #008000; fill-opacity: 0.3; stroke: #008000; stroke-opacity: 0.3"/>
    </g>
   </g>
   <g id="FillBetweenPolyCollection_2">
    <defs>
     <path id="mcfd923c8d3" d="M 73.240127 -244.625509 
L 73.240127 -60.78375 
L 76.444691 -60.78375 
L 79.649255 -61.991242 
L 82.853819 -61.991242 
L 86.058383 -61.991242 
L 89.262946 -67.388555 
L 92.46751 -79.123477 
L 95.672074 -79.123477 
L 98.876638 -79.206824 
L 102.081202 -84.790015 
L 105.285766 -97.955621 
L 108.49033 -128.019939 
L 111.694894 -145.262322 
L 114.899458 -156.903753 
L 118.104021 -163.814103 
L 121.308585 -164.019098 
L 124.513149 -164.019098 
L 127.717713 -166.767864 
L 130.922277 -168.120687 
L 134.126841 -177.155651 
L 137.331405 -177.155651 
L 140.535969 -177.155651 
L 143.740532 -178.285391 
L 146.945096 -183.960382 
L 150.14966 -185.80877 
L 153.354224 -187.98682 
L 156.558788 -191.81836 
L 159.763352 -191.81836 
L 162.967916 -194.138699 
L 166.17248 -202.401957 
L 169.377044 -218.527344 
L 172.581607 -228.749026 
L 175.786171 -239.132578 
L 178.990735 -245.0749 
L 182.195299 -250.34635 
L 185.399863 -253.075738 
L 188.604427 -253.075738 
L 191.808991 -253.513426 
L 195.013555 -256.16009 
L 198.218118 -260.67038 
L 201.422682 -262.055301 
L 204.627246 -262.579866 
L 207.83181 -265.051985 
L 211.036374 -265.434301 
L 214.240938 -265.434301 
L 217.445502 -266.131423 
L 220.650066 -266.131423 
L 223.854629 -266.131423 
L 227.059193 -266.131423 
L 230.263757 -267.281782 
L 233.468321 -267.791092 
L 236.672885 -267.791092 
L 239.877449 -267.942657 
L 243.082013 -267.942657 
L 246.286577 -274.248003 
L 249.491141 -276.35383 
L 252.695704 -276.35383 
L 255.900268 -278.796491 
L 259.104832 -287.923319 
L 262.309396 -293.504829 
L 265.51396 -294.588851 
L 268.718524 -294.588851 
L 271.923088 -294.588851 
L 275.127652 -294.588851 
L 278.332215 -294.588851 
L 281.536779 -294.588851 
L 284.741343 -294.588851 
L 287.945907 -294.588851 
L 291.150471 -297.914167 
L 294.355035 -297.914167 
L 297.559599 -297.914167 
L 300.764163 -297.914167 
L 303.968727 -297.914167 
L 307.17329 -297.97168 
L 310.377854 -300.075005 
L 313.582418 -300.390179 
L 316.786982 -302.26119 
L 319.991546 -302.281746 
L 323.19611 -308.070295 
L 326.400674 -309.868443 
L 329.605238 -309.868443 
L 332.809801 -309.868443 
L 336.014365 -312.649989 
L 339.218929 -312.649989 
L 342.423493 -312.649989 
L 345.628057 -312.649989 
L 348.832621 -312.649989 
L 352.037185 -312.649989 
L 355.241749 -313.922415 
L 358.446312 -314.962434 
L 361.650876 -314.962434 
L 364.85544 -314.962434 
L 368.060004 -314.962434 
L 371.264568 -314.962434 
L 374.469132 -314.962434 
L 377.673696 -314.962434 
L 380.87826 -314.962434 
L 384.082824 -314.962434 
L 387.287387 -316.572136 
L 390.491951 -316.572136 
L 393.696515 -316.572136 
L 396.901079 -316.572136 
L 400.105643 -316.572136 
L 403.310207 -316.572136 
L 406.514771 -316.572136 
L 409.719335 -316.572136 
L 412.923898 -316.728854 
L 416.128462 -318.651867 
L 419.333026 -318.651867 
L 422.53759 -318.651867 
L 425.742154 -318.651867 
L 428.946718 -318.651867 
L 432.151282 -318.651867 
L 435.355846 -318.651867 
L 438.56041 -318.651867 
L 441.764973 -318.651867 
L 444.969537 -318.651867 
L 448.174101 -318.651867 
L 451.378665 -318.651867 
L 454.583229 -318.651867 
L 457.787793 -318.651867 
L 460.992357 -318.651867 
L 464.196921 -318.651867 
L 467.401484 -318.651867 
L 470.606048 -318.651867 
L 473.810612 -318.651867 
L 477.015176 -318.651867 
L 480.21974 -318.651867 
L 483.424304 -318.651867 
L 486.628868 -318.651867 
L 489.833432 -318.651867 
L 493.037995 -318.651867 
L 496.242559 -318.651867 
L 499.447123 -318.651867 
L 502.651687 -318.651867 
L 505.856251 -318.651867 
L 509.060815 -318.651867 
L 512.265379 -318.651867 
L 515.469943 -318.651867 
L 518.674507 -318.651867 
L 521.87907 -318.651867 
L 525.083634 -318.651867 
L 528.288198 -318.651867 
L 531.492762 -318.651867 
L 534.697326 -318.651867 
L 537.90189 -318.651867 
L 541.106454 -318.651867 
L 544.311018 -318.651867 
L 547.515581 -318.651867 
L 550.720145 -318.651867 
L 553.924709 -318.651867 
L 557.129273 -318.651867 
L 560.333837 -318.651867 
L 563.538401 -318.651867 
L 566.742965 -318.651867 
L 569.947529 -318.651867 
L 573.152093 -318.651867 
L 576.356656 -318.651867 
L 579.56122 -318.651867 
L 582.765784 -318.651867 
L 585.970348 -318.651867 
L 589.174912 -318.651867 
L 592.379476 -318.651867 
L 595.58404 -318.651867 
L 598.788604 -318.651867 
L 601.993167 -318.651867 
L 605.197731 -318.651867 
L 608.402295 -318.651867 
L 611.606859 -318.651867 
L 614.811423 -318.651867 
L 618.015987 -318.651867 
L 621.220551 -318.651867 
L 624.425115 -318.651867 
L 627.629678 -318.651867 
L 630.834242 -318.651867 
L 634.038806 -318.651867 
L 637.24337 -318.651867 
L 640.447934 -318.651867 
L 643.652498 -318.651867 
L 646.857062 -318.651867 
L 650.061626 -318.651867 
L 653.26619 -318.651867 
L 656.470753 -318.651867 
L 659.675317 -318.651867 
L 662.879881 -318.651867 
L 666.084445 -318.651867 
L 669.289009 -318.651867 
L 672.493573 -318.651867 
L 675.698137 -318.651867 
L 678.902701 -318.651867 
L 682.107264 -318.651867 
L 685.311828 -318.651867 
L 688.516392 -318.651867 
L 691.720956 -318.651867 
L 694.92552 -318.651867 
L 698.130084 -318.651867 
L 701.334648 -318.651867 
L 704.539212 -318.651867 
L 707.743776 -318.651867 
L 710.948339 -318.651867 
L 710.948339 -470.759735 
L 710.948339 -470.759735 
L 707.743776 -470.270223 
L 704.539212 -468.788297 
L 701.334648 -467.178137 
L 698.130084 -465.76549 
L 694.92552 -462.668652 
L 691.720956 -459.220693 
L 688.516392 -459.220693 
L 685.311828 -459.220693 
L 682.107264 -459.220693 
L 678.902701 -459.220693 
L 675.698137 -459.220693 
L 672.493573 -459.220693 
L 669.289009 -459.220693 
L 666.084445 -456.992359 
L 662.879881 -456.992359 
L 659.675317 -456.780736 
L 656.470753 -456.486339 
L 653.26619 -454.627396 
L 650.061626 -452.498399 
L 646.857062 -450.950797 
L 643.652498 -445.063408 
L 640.447934 -445.063408 
L 637.24337 -445.063408 
L 634.038806 -439.925383 
L 630.834242 -432.57935 
L 627.629678 -432.57935 
L 624.425115 -432.57935 
L 621.220551 -431.090606 
L 618.015987 -431.090606 
L 614.811423 -431.090606 
L 611.606859 -431.090606 
L 608.402295 -431.090606 
L 605.197731 -431.090606 
L 601.993167 -431.090606 
L 598.788604 -431.090606 
L 595.58404 -431.090606 
L 592.379476 -431.090606 
L 589.174912 -431.090606 
L 585.970348 -431.090606 
L 582.765784 -431.090606 
L 579.56122 -431.090606 
L 576.356656 -431.090606 
L 573.152093 -431.090606 
L 569.947529 -430.566744 
L 566.742965 -422.092732 
L 563.538401 -422.092732 
L 560.333837 -422.092732 
L 557.129273 -422.092732 
L 553.924709 -422.092732 
L 550.720145 -422.092732 
L 547.515581 -422.092732 
L 544.311018 -422.092732 
L 541.106454 -422.092732 
L 537.90189 -422.092732 
L 534.697326 -422.092732 
L 531.492762 -422.092732 
L 528.288198 -422.092732 
L 525.083634 -422.092732 
L 521.87907 -422.092732 
L 518.674507 -422.092732 
L 515.469943 -422.092732 
L 512.265379 -422.092732 
L 509.060815 -422.092732 
L 505.856251 -422.092732 
L 502.651687 -422.092732 
L 499.447123 -422.092732 
L 496.242559 -422.092732 
L 493.037995 -422.092732 
L 489.833432 -422.092732 
L 486.628868 -422.092732 
L 483.424304 -422.092732 
L 480.21974 -422.092732 
L 477.015176 -422.092732 
L 473.810612 -422.092732 
L 470.606048 -422.092732 
L 467.401484 -422.092732 
L 464.196921 -422.092732 
L 460.992357 -420.186536 
L 457.787793 -417.431099 
L 454.583229 -412.543466 
L 451.378665 -409.773337 
L 448.174101 -407.502944 
L 444.969537 -398.792368 
L 441.764973 -398.792368 
L 438.56041 -398.792368 
L 435.355846 -398.792368 
L 432.151282 -398.792368 
L 428.946718 -398.792368 
L 425.742154 -398.792368 
L 422.53759 -398.792368 
L 419.333026 -398.792368 
L 416.128462 -398.792368 
L 412.923898 -398.792368 
L 409.719335 -398.792368 
L 406.514771 -398.297933 
L 403.310207 -398.297933 
L 400.105643 -397.402086 
L 396.901079 -397.402086 
L 393.696515 -397.402086 
L 390.491951 -397.402086 
L 387.287387 -397.402086 
L 384.082824 -397.402086 
L 380.87826 -395.1543 
L 377.673696 -392.913693 
L 374.469132 -392.913693 
L 371.264568 -390.166191 
L 368.060004 -389.482067 
L 364.85544 -384.54801 
L 361.650876 -384.54801 
L 358.446312 -384.54801 
L 355.241749 -384.54801 
L 352.037185 -382.049857 
L 348.832621 -382.049857 
L 345.628057 -378.882476 
L 342.423493 -378.882476 
L 339.218929 -375.64027 
L 336.014365 -374.502552 
L 332.809801 -374.502552 
L 329.605238 -372.923163 
L 326.400674 -372.923163 
L 323.19611 -372.923163 
L 319.991546 -372.923163 
L 316.786982 -372.923163 
L 313.582418 -372.923163 
L 310.377854 -368.722654 
L 307.17329 -368.722654 
L 303.968727 -365.861763 
L 300.764163 -363.060049 
L 297.559599 -362.101003 
L 294.355035 -361.986127 
L 291.150471 -361.986127 
L 287.945907 -361.986127 
L 284.741343 -360.855466 
L 281.536779 -357.576882 
L 278.332215 -355.732411 
L 275.127652 -355.732411 
L 271.923088 -355.732411 
L 268.718524 -355.732411 
L 265.51396 -354.075695 
L 262.309396 -354.075695 
L 259.104832 -354.075695 
L 255.900268 -354.075695 
L 252.695704 -353.758248 
L 249.491141 -353.758248 
L 246.286577 -353.758248 
L 243.082013 -353.758248 
L 239.877449 -353.758248 
L 236.672885 -353.758248 
L 233.468321 -352.665422 
L 230.263757 -350.231525 
L 227.059193 -347.924002 
L 223.854629 -342.649976 
L 220.650066 -342.364223 
L 217.445502 -342.364223 
L 214.240938 -342.364223 
L 211.036374 -340.957631 
L 207.83181 -333.688652 
L 204.627246 -332.202638 
L 201.422682 -332.202638 
L 198.218118 -332.202638 
L 195.013555 -332.202638 
L 191.808991 -332.202638 
L 188.604427 -330.244354 
L 185.399863 -328.011515 
L 182.195299 -326.273057 
L 178.990735 -318.890229 
L 175.786171 -314.583844 
L 172.581607 -314.521554 
L 169.377044 -314.521554 
L 166.17248 -311.54668 
L 162.967916 -295.431964 
L 159.763352 -293.400312 
L 156.558788 -292.141032 
L 153.354224 -291.287827 
L 150.14966 -290.887064 
L 146.945096 -290.512309 
L 143.740532 -289.984879 
L 140.535969 -289.984879 
L 137.331405 -289.984879 
L 134.126841 -289.984879 
L 130.922277 -289.984879 
L 127.717713 -289.984879 
L 124.513149 -289.984879 
L 121.308585 -289.984879 
L 118.104021 -289.984879 
L 114.899458 -289.984879 
L 111.694894 -285.740495 
L 108.49033 -285.740495 
L 105.285766 -285.710488 
L 102.081202 -281.492706 
L 98.876638 -281.492706 
L 95.672074 -281.492706 
L 92.46751 -279.652379 
L 89.262946 -278.118041 
L 86.058383 -278.118041 
L 82.853819 -264.092344 
L 79.649255 -261.862252 
L 76.444691 -253.784514 
L 73.240127 -244.625509 
z
" style="stroke: #0000ff; stroke-opacity: 0.3"/>
    </defs>
    <g clip-path="url(#p304f52305c)">
     <use xlink:href="#mcfd923c8d3" x="0" y="519.016014" style="fill: #0000ff; fill-opacity: 0.3; stroke: #0000ff; stroke-opacity: 0.3"/>
    </g>
   </g>
   <g id="matplotlib.axis_1">
    <g id="xtick_1">
     <g id="line2d_1">
      <path d="M 73.23375 458.232264 
L 73.23375 14.712264 
" clip-path="url(#p304f52305c)" style="fill: none; stroke: #b0b0b0; stroke-opacity: 0.3; stroke-width: 0.8; stroke-linecap: square"/>
     </g>
     <g id="line2d_2">
      <defs>
       <path id="m007cd3fb5f" d="M 0 0 
L 0 3.5 
" style="stroke: #000000; stroke-width: 0.8"/>
      </defs>
      <g>
       <use xlink:href="#m007cd3fb5f" x="73.23375" y="458.232264" style="stroke: #000000; stroke-width: 0.8"/>
      </g>
     </g>
     <g id="text_1">
      <!-- 0 -->
      <g transform="translate(66.87125 480.429139) scale(0.2 -0.2)">
       <defs>
        <path id="DejaVuSans-30" d="M 2034 4250 
Q 1547 4250 1301 3770 
Q 1056 3291 1056 2328 
Q 1056 1369 1301 889 
Q 1547 409 2034 409 
Q 2525 409 2770 889 
Q 3016 1369 3016 2328 
Q 3016 3291 2770 3770 
Q 2525 4250 2034 4250 
z
M 2034 4750 
Q 2819 4750 3233 4129 
Q 3647 3509 3647 2328 
Q 3647 1150 3233 529 
Q 2819 -91 2034 -91 
Q 1250 -91 836 529 
Q 422 1150 422 2328 
Q 422 3509 836 4129 
Q 1250 4750 2034 4750 
z
" transform="scale(0.015625)"/>
       </defs>
       <use xlink:href="#DejaVuSans-30"/>
      </g>
     </g>
    </g>
    <g id="xtick_2">
     <g id="line2d_3">
      <path d="M 200.775392 458.232264 
L 200.775392 14.712264 
" clip-path="url(#p304f52305c)" style="fill: none; stroke: #b0b0b0; stroke-opacity: 0.3; stroke-width: 0.8; stroke-linecap: square"/>
     </g>
     <g id="line2d_4">
      <g>
       <use xlink:href="#m007cd3fb5f" x="200.775392" y="458.232264" style="stroke: #000000; stroke-width: 0.8"/>
      </g>
     </g>
     <g id="text_2">
      <!-- 20000 -->
      <g transform="translate(168.962892 480.429139) scale(0.2 -0.2)">
       <defs>
        <path id="DejaVuSans-32" d="M 1228 531 
L 3431 531 
L 3431 0 
L 469 0 
L 469 531 
Q 828 903 1448 1529 
Q 2069 2156 2228 2338 
Q 2531 2678 2651 2914 
Q 2772 3150 2772 3378 
Q 2772 3750 2511 3984 
Q 2250 4219 1831 4219 
Q 1534 4219 1204 4116 
Q 875 4013 500 3803 
L 500 4441 
Q 881 4594 1212 4672 
Q 1544 4750 1819 4750 
Q 2544 4750 2975 4387 
Q 3406 4025 3406 3419 
Q 3406 3131 3298 2873 
Q 3191 2616 2906 2266 
Q 2828 2175 2409 1742 
Q 1991 1309 1228 531 
z
" transform="scale(0.015625)"/>
       </defs>
       <use xlink:href="#DejaVuSans-32"/>
       <use xlink:href="#DejaVuSans-30" transform="translate(63.623047 0)"/>
       <use xlink:href="#DejaVuSans-30" transform="translate(127.246094 0)"/>
       <use xlink:href="#DejaVuSans-30" transform="translate(190.869141 0)"/>
       <use xlink:href="#DejaVuSans-30" transform="translate(254.492188 0)"/>
      </g>
     </g>
    </g>
    <g id="xtick_3">
     <g id="line2d_5">
      <path d="M 328.317035 458.232264 
L 328.317035 14.712264 
" clip-path="url(#p304f52305c)" style="fill: none; stroke: #b0b0b0; stroke-opacity: 0.3; stroke-width: 0.8; stroke-linecap: square"/>
     </g>
     <g id="line2d_6">
      <g>
       <use xlink:href="#m007cd3fb5f" x="328.317035" y="458.232264" style="stroke: #000000; stroke-width: 0.8"/>
      </g>
     </g>
     <g id="text_3">
      <!-- 40000 -->
      <g transform="translate(296.504535 480.429139) scale(0.2 -0.2)">
       <defs>
        <path id="DejaVuSans-34" d="M 2419 4116 
L 825 1625 
L 2419 1625 
L 2419 4116 
z
M 2253 4666 
L 3047 4666 
L 3047 1625 
L 3713 1625 
L 3713 1100 
L 3047 1100 
L 3047 0 
L 2419 0 
L 2419 1100 
L 313 1100 
L 313 1709 
L 2253 4666 
z
" transform="scale(0.015625)"/>
       </defs>
       <use xlink:href="#DejaVuSans-34"/>
       <use xlink:href="#DejaVuSans-30" transform="translate(63.623047 0)"/>
       <use xlink:href="#DejaVuSans-30" transform="translate(127.246094 0)"/>
       <use xlink:href="#DejaVuSans-30" transform="translate(190.869141 0)"/>
       <use xlink:href="#DejaVuSans-30" transform="translate(254.492188 0)"/>
      </g>
     </g>
    </g>
    <g id="xtick_4">
     <g id="line2d_7">
      <path d="M 455.858677 458.232264 
L 455.858677 14.712264 
" clip-path="url(#p304f52305c)" style="fill: none; stroke: #b0b0b0; stroke-opacity: 0.3; stroke-width: 0.8; stroke-linecap: square"/>
     </g>
     <g id="line2d_8">
      <g>
       <use xlink:href="#m007cd3fb5f" x="455.858677" y="458.232264" style="stroke: #000000; stroke-width: 0.8"/>
      </g>
     </g>
     <g id="text_4">
      <!-- 60000 -->
      <g transform="translate(424.046177 480.429139) scale(0.2 -0.2)">
       <defs>
        <path id="DejaVuSans-36" d="M 2113 2584 
Q 1688 2584 1439 2293 
Q 1191 2003 1191 1497 
Q 1191 994 1439 701 
Q 1688 409 2113 409 
Q 2538 409 2786 701 
Q 3034 994 3034 1497 
Q 3034 2003 2786 2293 
Q 2538 2584 2113 2584 
z
M 3366 4563 
L 3366 3988 
Q 3128 4100 2886 4159 
Q 2644 4219 2406 4219 
Q 1781 4219 1451 3797 
Q 1122 3375 1075 2522 
Q 1259 2794 1537 2939 
Q 1816 3084 2150 3084 
Q 2853 3084 3261 2657 
Q 3669 2231 3669 1497 
Q 3669 778 3244 343 
Q 2819 -91 2113 -91 
Q 1303 -91 875 529 
Q 447 1150 447 2328 
Q 447 3434 972 4092 
Q 1497 4750 2381 4750 
Q 2619 4750 2861 4703 
Q 3103 4656 3366 4563 
z
" transform="scale(0.015625)"/>
       </defs>
       <use xlink:href="#DejaVuSans-36"/>
       <use xlink:href="#DejaVuSans-30" transform="translate(63.623047 0)"/>
       <use xlink:href="#DejaVuSans-30" transform="translate(127.246094 0)"/>
       <use xlink:href="#DejaVuSans-30" transform="translate(190.869141 0)"/>
       <use xlink:href="#DejaVuSans-30" transform="translate(254.492188 0)"/>
      </g>
     </g>
    </g>
    <g id="xtick_5">
     <g id="line2d_9">
      <path d="M 583.40032 458.232264 
L 583.40032 14.712264 
" clip-path="url(#p304f52305c)" style="fill: none; stroke: #b0b0b0; stroke-opacity: 0.3; stroke-width: 0.8; stroke-linecap: square"/>
     </g>
     <g id="line2d_10">
      <g>
       <use xlink:href="#m007cd3fb5f" x="583.40032" y="458.232264" style="stroke: #000000; stroke-width: 0.8"/>
      </g>
     </g>
     <g id="text_5">
      <!-- 80000 -->
      <g transform="translate(551.58782 480.429139) scale(0.2 -0.2)">
       <defs>
        <path id="DejaVuSans-38" d="M 2034 2216 
Q 1584 2216 1326 1975 
Q 1069 1734 1069 1313 
Q 1069 891 1326 650 
Q 1584 409 2034 409 
Q 2484 409 2743 651 
Q 3003 894 3003 1313 
Q 3003 1734 2745 1975 
Q 2488 2216 2034 2216 
z
M 1403 2484 
Q 997 2584 770 2862 
Q 544 3141 544 3541 
Q 544 4100 942 4425 
Q 1341 4750 2034 4750 
Q 2731 4750 3128 4425 
Q 3525 4100 3525 3541 
Q 3525 3141 3298 2862 
Q 3072 2584 2669 2484 
Q 3125 2378 3379 2068 
Q 3634 1759 3634 1313 
Q 3634 634 3220 271 
Q 2806 -91 2034 -91 
Q 1263 -91 848 271 
Q 434 634 434 1313 
Q 434 1759 690 2068 
Q 947 2378 1403 2484 
z
M 1172 3481 
Q 1172 3119 1398 2916 
Q 1625 2713 2034 2713 
Q 2441 2713 2670 2916 
Q 2900 3119 2900 3481 
Q 2900 3844 2670 4047 
Q 2441 4250 2034 4250 
Q 1625 4250 1398 4047 
Q 1172 3844 1172 3481 
z
" transform="scale(0.015625)"/>
       </defs>
       <use xlink:href="#DejaVuSans-38"/>
       <use xlink:href="#DejaVuSans-30" transform="translate(63.623047 0)"/>
       <use xlink:href="#DejaVuSans-30" transform="translate(127.246094 0)"/>
       <use xlink:href="#DejaVuSans-30" transform="translate(190.869141 0)"/>
       <use xlink:href="#DejaVuSans-30" transform="translate(254.492188 0)"/>
      </g>
     </g>
    </g>
    <g id="xtick_6">
     <g id="line2d_11">
      <path d="M 710.941962 458.232264 
L 710.941962 14.712264 
" clip-path="url(#p304f52305c)" style="fill: none; stroke: #b0b0b0; stroke-opacity: 0.3; stroke-width: 0.8; stroke-linecap: square"/>
     </g>
     <g id="line2d_12">
      <g>
       <use xlink:href="#m007cd3fb5f" x="710.941962" y="458.232264" style="stroke: #000000; stroke-width: 0.8"/>
      </g>
     </g>
     <g id="text_6">
      <!-- 100000 -->
      <g transform="translate(672.766962 480.429139) scale(0.2 -0.2)">
       <defs>
        <path id="DejaVuSans-31" d="M 794 531 
L 1825 531 
L 1825 4091 
L 703 3866 
L 703 4441 
L 1819 4666 
L 2450 4666 
L 2450 531 
L 3481 531 
L 3481 0 
L 794 0 
L 794 531 
z
" transform="scale(0.015625)"/>
       </defs>
       <use xlink:href="#DejaVuSans-31"/>
       <use xlink:href="#DejaVuSans-30" transform="translate(63.623047 0)"/>
       <use xlink:href="#DejaVuSans-30" transform="translate(127.246094 0)"/>
       <use xlink:href="#DejaVuSans-30" transform="translate(190.869141 0)"/>
       <use xlink:href="#DejaVuSans-30" transform="translate(254.492188 0)"/>
       <use xlink:href="#DejaVuSans-30" transform="translate(318.115234 0)"/>
      </g>
     </g>
    </g>
    <g id="text_7">
     <!-- Timesteps -->
     <g transform="translate(346.464375 506.824764) scale(0.24 -0.24)">
      <defs>
       <path id="DejaVuSans-54" d="M -19 4666 
L 3928 4666 
L 3928 4134 
L 2272 4134 
L 2272 0 
L 1638 0 
L 1638 4134 
L -19 4134 
L -19 4666 
z
" transform="scale(0.015625)"/>
       <path id="DejaVuSans-69" d="M 603 3500 
L 1178 3500 
L 1178 0 
L 603 0 
L 603 3500 
z
M 603 4863 
L 1178 4863 
L 1178 4134 
L 603 4134 
L 603 4863 
z
" transform="scale(0.015625)"/>
       <path id="DejaVuSans-6d" d="M 3328 2828 
Q 3544 3216 3844 3400 
Q 4144 3584 4550 3584 
Q 5097 3584 5394 3201 
Q 5691 2819 5691 2113 
L 5691 0 
L 5113 0 
L 5113 2094 
Q 5113 2597 4934 2840 
Q 4756 3084 4391 3084 
Q 3944 3084 3684 2787 
Q 3425 2491 3425 1978 
L 3425 0 
L 2847 0 
L 2847 2094 
Q 2847 2600 2669 2842 
Q 2491 3084 2119 3084 
Q 1678 3084 1418 2786 
Q 1159 2488 1159 1978 
L 1159 0 
L 581 0 
L 581 3500 
L 1159 3500 
L 1159 2956 
Q 1356 3278 1631 3431 
Q 1906 3584 2284 3584 
Q 2666 3584 2933 3390 
Q 3200 3197 3328 2828 
z
" transform="scale(0.015625)"/>
       <path id="DejaVuSans-65" d="M 3597 1894 
L 3597 1613 
L 953 1613 
Q 991 1019 1311 708 
Q 1631 397 2203 397 
Q 2534 397 2845 478 
Q 3156 559 3463 722 
L 3463 178 
Q 3153 47 2828 -22 
Q 2503 -91 2169 -91 
Q 1331 -91 842 396 
Q 353 884 353 1716 
Q 353 2575 817 3079 
Q 1281 3584 2069 3584 
Q 2775 3584 3186 3129 
Q 3597 2675 3597 1894 
z
M 3022 2063 
Q 3016 2534 2758 2815 
Q 2500 3097 2075 3097 
Q 1594 3097 1305 2825 
Q 1016 2553 972 2059 
L 3022 2063 
z
" transform="scale(0.015625)"/>
       <path id="DejaVuSans-73" d="M 2834 3397 
L 2834 2853 
Q 2591 2978 2328 3040 
Q 2066 3103 1784 3103 
Q 1356 3103 1142 2972 
Q 928 2841 928 2578 
Q 928 2378 1081 2264 
Q 1234 2150 1697 2047 
L 1894 2003 
Q 2506 1872 2764 1633 
Q 3022 1394 3022 966 
Q 3022 478 2636 193 
Q 2250 -91 1575 -91 
Q 1294 -91 989 -36 
Q 684 19 347 128 
L 347 722 
Q 666 556 975 473 
Q 1284 391 1588 391 
Q 1994 391 2212 530 
Q 2431 669 2431 922 
Q 2431 1156 2273 1281 
Q 2116 1406 1581 1522 
L 1381 1569 
Q 847 1681 609 1914 
Q 372 2147 372 2553 
Q 372 3047 722 3315 
Q 1072 3584 1716 3584 
Q 2034 3584 2315 3537 
Q 2597 3491 2834 3397 
z
" transform="scale(0.015625)"/>
       <path id="DejaVuSans-74" d="M 1172 4494 
L 1172 3500 
L 2356 3500 
L 2356 3053 
L 1172 3053 
L 1172 1153 
Q 1172 725 1289 603 
Q 1406 481 1766 481 
L 2356 481 
L 2356 0 
L 1766 0 
Q 1100 0 847 248 
Q 594 497 594 1153 
L 594 3053 
L 172 3053 
L 172 3500 
L 594 3500 
L 594 4494 
L 1172 4494 
z
" transform="scale(0.015625)"/>
       <path id="DejaVuSans-70" d="M 1159 525 
L 1159 -1331 
L 581 -1331 
L 581 3500 
L 1159 3500 
L 1159 2969 
Q 1341 3281 1617 3432 
Q 1894 3584 2278 3584 
Q 2916 3584 3314 3078 
Q 3713 2572 3713 1747 
Q 3713 922 3314 415 
Q 2916 -91 2278 -91 
Q 1894 -91 1617 61 
Q 1341 213 1159 525 
z
M 3116 1747 
Q 3116 2381 2855 2742 
Q 2594 3103 2138 3103 
Q 1681 3103 1420 2742 
Q 1159 2381 1159 1747 
Q 1159 1113 1420 752 
Q 1681 391 2138 391 
Q 2594 391 2855 752 
Q 3116 1113 3116 1747 
z
" transform="scale(0.015625)"/>
      </defs>
      <use xlink:href="#DejaVuSans-54"/>
      <use xlink:href="#DejaVuSans-69" transform="translate(57.958984 0)"/>
      <use xlink:href="#DejaVuSans-6d" transform="translate(85.742188 0)"/>
      <use xlink:href="#DejaVuSans-65" transform="translate(183.154297 0)"/>
      <use xlink:href="#DejaVuSans-73" transform="translate(244.677734 0)"/>
      <use xlink:href="#DejaVuSans-74" transform="translate(296.777344 0)"/>
      <use xlink:href="#DejaVuSans-65" transform="translate(335.986328 0)"/>
      <use xlink:href="#DejaVuSans-70" transform="translate(397.509766 0)"/>
      <use xlink:href="#DejaVuSans-73" transform="translate(460.986328 0)"/>
     </g>
    </g>
   </g>
   <g id="matplotlib.axis_2">
    <g id="ytick_1">
     <g id="line2d_13">
      <path d="M 73.23375 458.232264 
L 742.83375 458.232264 
" clip-path="url(#p304f52305c)" style="fill: none; stroke: #b0b0b0; stroke-opacity: 0.3; stroke-width: 0.8; stroke-linecap: square"/>
     </g>
     <g id="line2d_14">
      <defs>
       <path id="m8d13bcf4da" d="M 0 0 
L -3.5 0 
" style="stroke: #000000; stroke-width: 0.8"/>
      </defs>
      <g>
       <use xlink:href="#m8d13bcf4da" x="73.23375" y="458.232264" style="stroke: #000000; stroke-width: 0.8"/>
      </g>
     </g>
     <g id="text_8">
      <!-- 0.0 -->
      <g transform="translate(34.4275 465.830702) scale(0.2 -0.2)">
       <defs>
        <path id="DejaVuSans-2e" d="M 684 794 
L 1344 794 
L 1344 0 
L 684 0 
L 684 794 
z
" transform="scale(0.015625)"/>
       </defs>
       <use xlink:href="#DejaVuSans-30"/>
       <use xlink:href="#DejaVuSans-2e" transform="translate(63.623047 0)"/>
       <use xlink:href="#DejaVuSans-30" transform="translate(95.410156 0)"/>
      </g>
     </g>
    </g>
    <g id="ytick_2">
     <g id="line2d_15">
      <path d="M 73.23375 369.545499 
L 742.83375 369.545499 
" clip-path="url(#p304f52305c)" style="fill: none; stroke: #b0b0b0; stroke-opacity: 0.3; stroke-width: 0.8; stroke-linecap: square"/>
     </g>
     <g id="line2d_16">
      <g>
       <use xlink:href="#m8d13bcf4da" x="73.23375" y="369.545499" style="stroke: #000000; stroke-width: 0.8"/>
      </g>
     </g>
     <g id="text_9">
      <!-- 0.2 -->
      <g transform="translate(34.4275 377.143937) scale(0.2 -0.2)">
       <use xlink:href="#DejaVuSans-30"/>
       <use xlink:href="#DejaVuSans-2e" transform="translate(63.623047 0)"/>
       <use xlink:href="#DejaVuSans-32" transform="translate(95.410156 0)"/>
      </g>
     </g>
    </g>
    <g id="ytick_3">
     <g id="line2d_17">
      <path d="M 73.23375 280.858734 
L 742.83375 280.858734 
" clip-path="url(#p304f52305c)" style="fill: none; stroke: #b0b0b0; stroke-opacity: 0.3; stroke-width: 0.8; stroke-linecap: square"/>
     </g>
     <g id="line2d_18">
      <g>
       <use xlink:href="#m8d13bcf4da" x="73.23375" y="280.858734" style="stroke: #000000; stroke-width: 0.8"/>
      </g>
     </g>
     <g id="text_10">
      <!-- 0.4 -->
      <g transform="translate(34.4275 288.457171) scale(0.2 -0.2)">
       <use xlink:href="#DejaVuSans-30"/>
       <use xlink:href="#DejaVuSans-2e" transform="translate(63.623047 0)"/>
       <use xlink:href="#DejaVuSans-34" transform="translate(95.410156 0)"/>
      </g>
     </g>
    </g>
    <g id="ytick_4">
     <g id="line2d_19">
      <path d="M 73.23375 192.171968 
L 742.83375 192.171968 
" clip-path="url(#p304f52305c)" style="fill: none; stroke: #b0b0b0; stroke-opacity: 0.3; stroke-width: 0.8; stroke-linecap: square"/>
     </g>
     <g id="line2d_20">
      <g>
       <use xlink:href="#m8d13bcf4da" x="73.23375" y="192.171968" style="stroke: #000000; stroke-width: 0.8"/>
      </g>
     </g>
     <g id="text_11">
      <!-- 0.6 -->
      <g transform="translate(34.4275 199.770406) scale(0.2 -0.2)">
       <use xlink:href="#DejaVuSans-30"/>
       <use xlink:href="#DejaVuSans-2e" transform="translate(63.623047 0)"/>
       <use xlink:href="#DejaVuSans-36" transform="translate(95.410156 0)"/>
      </g>
     </g>
    </g>
    <g id="ytick_5">
     <g id="line2d_21">
      <path d="M 73.23375 103.485203 
L 742.83375 103.485203 
" clip-path="url(#p304f52305c)" style="fill: none; stroke: #b0b0b0; stroke-opacity: 0.3; stroke-width: 0.8; stroke-linecap: square"/>
     </g>
     <g id="line2d_22">
      <g>
       <use xlink:href="#m8d13bcf4da" x="73.23375" y="103.485203" style="stroke: #000000; stroke-width: 0.8"/>
      </g>
     </g>
     <g id="text_12">
      <!-- 0.8 -->
      <g transform="translate(34.4275 111.08364) scale(0.2 -0.2)">
       <use xlink:href="#DejaVuSans-30"/>
       <use xlink:href="#DejaVuSans-2e" transform="translate(63.623047 0)"/>
       <use xlink:href="#DejaVuSans-38" transform="translate(95.410156 0)"/>
      </g>
     </g>
    </g>
    <g id="ytick_6">
     <g id="line2d_23">
      <path d="M 73.23375 14.798437 
L 742.83375 14.798437 
" clip-path="url(#p304f52305c)" style="fill: none; stroke: #b0b0b0; stroke-opacity: 0.3; stroke-width: 0.8; stroke-linecap: square"/>
     </g>
     <g id="line2d_24">
      <g>
       <use xlink:href="#m8d13bcf4da" x="73.23375" y="14.798437" style="stroke: #000000; stroke-width: 0.8"/>
      </g>
     </g>
     <g id="text_13">
      <!-- 1.0 -->
      <g transform="translate(34.4275 22.396875) scale(0.2 -0.2)">
       <use xlink:href="#DejaVuSans-31"/>
       <use xlink:href="#DejaVuSans-2e" transform="translate(63.623047 0)"/>
       <use xlink:href="#DejaVuSans-30" transform="translate(95.410156 0)"/>
      </g>
     </g>
    </g>
    <g id="text_14">
     <!-- Best Episode Reward (Running Max) -->
     <g transform="translate(25.43625 453.464139) rotate(-90) scale(0.24 -0.24)">
      <defs>
       <path id="DejaVuSans-42" d="M 1259 2228 
L 1259 519 
L 2272 519 
Q 2781 519 3026 730 
Q 3272 941 3272 1375 
Q 3272 1813 3026 2020 
Q 2781 2228 2272 2228 
L 1259 2228 
z
M 1259 4147 
L 1259 2741 
L 2194 2741 
Q 2656 2741 2882 2914 
Q 3109 3088 3109 3444 
Q 3109 3797 2882 3972 
Q 2656 4147 2194 4147 
L 1259 4147 
z
M 628 4666 
L 2241 4666 
Q 2963 4666 3353 4366 
Q 3744 4066 3744 3513 
Q 3744 3084 3544 2831 
Q 3344 2578 2956 2516 
Q 3422 2416 3680 2098 
Q 3938 1781 3938 1306 
Q 3938 681 3513 340 
Q 3088 0 2303 0 
L 628 0 
L 628 4666 
z
" transform="scale(0.015625)"/>
       <path id="DejaVuSans-20" transform="scale(0.015625)"/>
       <path id="DejaVuSans-45" d="M 628 4666 
L 3578 4666 
L 3578 4134 
L 1259 4134 
L 1259 2753 
L 3481 2753 
L 3481 2222 
L 1259 2222 
L 1259 531 
L 3634 531 
L 3634 0 
L 628 0 
L 628 4666 
z
" transform="scale(0.015625)"/>
       <path id="DejaVuSans-6f" d="M 1959 3097 
Q 1497 3097 1228 2736 
Q 959 2375 959 1747 
Q 959 1119 1226 758 
Q 1494 397 1959 397 
Q 2419 397 2687 759 
Q 2956 1122 2956 1747 
Q 2956 2369 2687 2733 
Q 2419 3097 1959 3097 
z
M 1959 3584 
Q 2709 3584 3137 3096 
Q 3566 2609 3566 1747 
Q 3566 888 3137 398 
Q 2709 -91 1959 -91 
Q 1206 -91 779 398 
Q 353 888 353 1747 
Q 353 2609 779 3096 
Q 1206 3584 1959 3584 
z
" transform="scale(0.015625)"/>
       <path id="DejaVuSans-64" d="M 2906 2969 
L 2906 4863 
L 3481 4863 
L 3481 0 
L 2906 0 
L 2906 525 
Q 2725 213 2448 61 
Q 2172 -91 1784 -91 
Q 1150 -91 751 415 
Q 353 922 353 1747 
Q 353 2572 751 3078 
Q 1150 3584 1784 3584 
Q 2172 3584 2448 3432 
Q 2725 3281 2906 2969 
z
M 947 1747 
Q 947 1113 1208 752 
Q 1469 391 1925 391 
Q 2381 391 2643 752 
Q 2906 1113 2906 1747 
Q 2906 2381 2643 2742 
Q 2381 3103 1925 3103 
Q 1469 3103 1208 2742 
Q 947 2381 947 1747 
z
" transform="scale(0.015625)"/>
       <path id="DejaVuSans-52" d="M 2841 2188 
Q 3044 2119 3236 1894 
Q 3428 1669 3622 1275 
L 4263 0 
L 3584 0 
L 2988 1197 
Q 2756 1666 2539 1819 
Q 2322 1972 1947 1972 
L 1259 1972 
L 1259 0 
L 628 0 
L 628 4666 
L 2053 4666 
Q 2853 4666 3247 4331 
Q 3641 3997 3641 3322 
Q 3641 2881 3436 2590 
Q 3231 2300 2841 2188 
z
M 1259 4147 
L 1259 2491 
L 2053 2491 
Q 2509 2491 2742 2702 
Q 2975 2913 2975 3322 
Q 2975 3731 2742 3939 
Q 2509 4147 2053 4147 
L 1259 4147 
z
" transform="scale(0.015625)"/>
       <path id="DejaVuSans-77" d="M 269 3500 
L 844 3500 
L 1563 769 
L 2278 3500 
L 2956 3500 
L 3675 769 
L 4391 3500 
L 4966 3500 
L 4050 0 
L 3372 0 
L 2619 2869 
L 1863 0 
L 1184 0 
L 269 3500 
z
" transform="scale(0.015625)"/>
       <path id="DejaVuSans-61" d="M 2194 1759 
Q 1497 1759 1228 1600 
Q 959 1441 959 1056 
Q 959 750 1161 570 
Q 1363 391 1709 391 
Q 2188 391 2477 730 
Q 2766 1069 2766 1631 
L 2766 1759 
L 2194 1759 
z
M 3341 1997 
L 3341 0 
L 2766 0 
L 2766 531 
Q 2569 213 2275 61 
Q 1981 -91 1556 -91 
Q 1019 -91 701 211 
Q 384 513 384 1019 
Q 384 1609 779 1909 
Q 1175 2209 1959 2209 
L 2766 2209 
L 2766 2266 
Q 2766 2663 2505 2880 
Q 2244 3097 1772 3097 
Q 1472 3097 1187 3025 
Q 903 2953 641 2809 
L 641 3341 
Q 956 3463 1253 3523 
Q 1550 3584 1831 3584 
Q 2591 3584 2966 3190 
Q 3341 2797 3341 1997 
z
" transform="scale(0.015625)"/>
       <path id="DejaVuSans-72" d="M 2631 2963 
Q 2534 3019 2420 3045 
Q 2306 3072 2169 3072 
Q 1681 3072 1420 2755 
Q 1159 2438 1159 1844 
L 1159 0 
L 581 0 
L 581 3500 
L 1159 3500 
L 1159 2956 
Q 1341 3275 1631 3429 
Q 1922 3584 2338 3584 
Q 2397 3584 2469 3576 
Q 2541 3569 2628 3553 
L 2631 2963 
z
" transform="scale(0.015625)"/>
       <path id="DejaVuSans-28" d="M 1984 4856 
Q 1566 4138 1362 3434 
Q 1159 2731 1159 2009 
Q 1159 1288 1364 580 
Q 1569 -128 1984 -844 
L 1484 -844 
Q 1016 -109 783 600 
Q 550 1309 550 2009 
Q 550 2706 781 3412 
Q 1013 4119 1484 4856 
L 1984 4856 
z
" transform="scale(0.015625)"/>
       <path id="DejaVuSans-75" d="M 544 1381 
L 544 3500 
L 1119 3500 
L 1119 1403 
Q 1119 906 1312 657 
Q 1506 409 1894 409 
Q 2359 409 2629 706 
Q 2900 1003 2900 1516 
L 2900 3500 
L 3475 3500 
L 3475 0 
L 2900 0 
L 2900 538 
Q 2691 219 2414 64 
Q 2138 -91 1772 -91 
Q 1169 -91 856 284 
Q 544 659 544 1381 
z
M 1991 3584 
L 1991 3584 
z
" transform="scale(0.015625)"/>
       <path id="DejaVuSans-6e" d="M 3513 2113 
L 3513 0 
L 2938 0 
L 2938 2094 
Q 2938 2591 2744 2837 
Q 2550 3084 2163 3084 
Q 1697 3084 1428 2787 
Q 1159 2491 1159 1978 
L 1159 0 
L 581 0 
L 581 3500 
L 1159 3500 
L 1159 2956 
Q 1366 3272 1645 3428 
Q 1925 3584 2291 3584 
Q 2894 3584 3203 3211 
Q 3513 2838 3513 2113 
z
" transform="scale(0.015625)"/>
       <path id="DejaVuSans-67" d="M 2906 1791 
Q 2906 2416 2648 2759 
Q 2391 3103 1925 3103 
Q 1463 3103 1205 2759 
Q 947 2416 947 1791 
Q 947 1169 1205 825 
Q 1463 481 1925 481 
Q 2391 481 2648 825 
Q 2906 1169 2906 1791 
z
M 3481 434 
Q 3481 -459 3084 -895 
Q 2688 -1331 1869 -1331 
Q 1566 -1331 1297 -1286 
Q 1028 -1241 775 -1147 
L 775 -588 
Q 1028 -725 1275 -790 
Q 1522 -856 1778 -856 
Q 2344 -856 2625 -561 
Q 2906 -266 2906 331 
L 2906 616 
Q 2728 306 2450 153 
Q 2172 0 1784 0 
Q 1141 0 747 490 
Q 353 981 353 1791 
Q 353 2603 747 3093 
Q 1141 3584 1784 3584 
Q 2172 3584 2450 3431 
Q 2728 3278 2906 2969 
L 2906 3500 
L 3481 3500 
L 3481 434 
z
" transform="scale(0.015625)"/>
       <path id="DejaVuSans-4d" d="M 628 4666 
L 1569 4666 
L 2759 1491 
L 3956 4666 
L 4897 4666 
L 4897 0 
L 4281 0 
L 4281 4097 
L 3078 897 
L 2444 897 
L 1241 4097 
L 1241 0 
L 628 0 
L 628 4666 
z
" transform="scale(0.015625)"/>
       <path id="DejaVuSans-78" d="M 3513 3500 
L 2247 1797 
L 3578 0 
L 2900 0 
L 1881 1375 
L 863 0 
L 184 0 
L 1544 1831 
L 300 3500 
L 978 3500 
L 1906 2253 
L 2834 3500 
L 3513 3500 
z
" transform="scale(0.015625)"/>
       <path id="DejaVuSans-29" d="M 513 4856 
L 1013 4856 
Q 1481 4119 1714 3412 
Q 1947 2706 1947 2009 
Q 1947 1309 1714 600 
Q 1481 -109 1013 -844 
L 513 -844 
Q 928 -128 1133 580 
Q 1338 1288 1338 2009 
Q 1338 2731 1133 3434 
Q 928 4138 513 4856 
z
" transform="scale(0.015625)"/>
      </defs>
      <use xlink:href="#DejaVuSans-42"/>
      <use xlink:href="#DejaVuSans-65" transform="translate(68.603516 0)"/>
      <use xlink:href="#DejaVuSans-73" transform="translate(130.126953 0)"/>
      <use xlink:href="#DejaVuSans-74" transform="translate(182.226562 0)"/>
      <use xlink:href="#DejaVuSans-20" transform="translate(221.435547 0)"/>
      <use xlink:href="#DejaVuSans-45" transform="translate(253.222656 0)"/>
      <use xlink:href="#DejaVuSans-70" transform="translate(316.40625 0)"/>
      <use xlink:href="#DejaVuSans-69" transform="translate(379.882812 0)"/>
      <use xlink:href="#DejaVuSans-73" transform="translate(407.666016 0)"/>
      <use xlink:href="#DejaVuSans-6f" transform="translate(459.765625 0)"/>
      <use xlink:href="#DejaVuSans-64" transform="translate(520.947266 0)"/>
      <use xlink:href="#DejaVuSans-65" transform="translate(584.423828 0)"/>
      <use xlink:href="#DejaVuSans-20" transform="translate(645.947266 0)"/>
      <use xlink:href="#DejaVuSans-52" transform="translate(677.734375 0)"/>
      <use xlink:href="#DejaVuSans-65" transform="translate(742.716797 0)"/>
      <use xlink:href="#DejaVuSans-77" transform="translate(804.240234 0)"/>
      <use xlink:href="#DejaVuSans-61" transform="translate(886.027344 0)"/>
      <use xlink:href="#DejaVuSans-72" transform="translate(947.306641 0)"/>
      <use xlink:href="#DejaVuSans-64" transform="translate(986.669922 0)"/>
      <use xlink:href="#DejaVuSans-20" transform="translate(1050.146484 0)"/>
      <use xlink:href="#DejaVuSans-28" transform="translate(1081.933594 0)"/>
      <use xlink:href="#DejaVuSans-52" transform="translate(1120.947266 0)"/>
      <use xlink:href="#DejaVuSans-75" transform="translate(1185.929688 0)"/>
      <use xlink:href="#DejaVuSans-6e" transform="translate(1249.308594 0)"/>
      <use xlink:href="#DejaVuSans-6e" transform="translate(1312.6875 0)"/>
      <use xlink:href="#DejaVuSans-69" transform="translate(1376.066406 0)"/>
      <use xlink:href="#DejaVuSans-6e" transform="translate(1403.849609 0)"/>
      <use xlink:href="#DejaVuSans-67" transform="translate(1467.228516 0)"/>
      <use xlink:href="#DejaVuSans-20" transform="translate(1530.705078 0)"/>
      <use xlink:href="#DejaVuSans-4d" transform="translate(1562.492188 0)"/>
      <use xlink:href="#DejaVuSans-61" transform="translate(1648.771484 0)"/>
      <use xlink:href="#DejaVuSans-78" transform="translate(1710.050781 0)"/>
      <use xlink:href="#DejaVuSans-29" transform="translate(1769.230469 0)"/>
     </g>
    </g>
   </g>
   <g id="line2d_25">
    <path d="M 73.240127 420.243692 
L 79.649255 410.158608 
L 82.853819 407.431144 
L 86.058383 404.0883 
L 89.262946 397.690182 
L 92.46751 394.489038 
L 95.672074 391.969572 
L 98.876638 390.074489 
L 102.081202 389.126816 
L 105.285766 386.280652 
L 108.49033 384.79085 
L 111.694894 383.901531 
L 114.899458 382.078065 
L 118.104021 381.52962 
L 124.513149 379.469794 
L 127.717713 377.883568 
L 130.922277 377.546448 
L 137.331405 376.373337 
L 140.535969 376.274238 
L 146.945096 375.503241 
L 153.354224 374.191057 
L 156.558788 373.976664 
L 159.763352 373.298535 
L 166.17248 372.164801 
L 172.581607 371.345368 
L 175.786171 369.913381 
L 182.195299 366.11534 
L 188.604427 362.570587 
L 191.808991 361.009847 
L 195.013555 358.817089 
L 198.218118 356.022712 
L 201.422682 354.658372 
L 207.83181 351.267934 
L 211.036374 349.903821 
L 214.240938 346.688498 
L 217.445502 342.813581 
L 220.650066 341.086395 
L 223.854629 338.031411 
L 227.059193 335.675771 
L 230.263757 333.094185 
L 236.672885 325.202155 
L 239.877449 323.978367 
L 246.286577 319.719123 
L 249.491141 318.08094 
L 252.695704 314.445603 
L 255.900268 311.551728 
L 259.104832 309.281083 
L 262.309396 308.11598 
L 265.51396 305.330243 
L 268.718524 300.940079 
L 271.923088 297.383807 
L 275.127652 293.11274 
L 278.332215 290.622176 
L 281.536779 288.649754 
L 284.741343 284.489361 
L 287.945907 280.965176 
L 291.150471 276.482181 
L 294.355035 273.716998 
L 297.559599 269.794337 
L 300.764163 265.410385 
L 303.968727 262.991694 
L 307.17329 260.889001 
L 310.377854 258.056464 
L 313.582418 255.485926 
L 316.786982 253.800147 
L 319.991546 250.161915 
L 323.19611 245.614162 
L 326.400674 242.155214 
L 329.605238 237.870398 
L 332.809801 235.583534 
L 336.014365 232.835624 
L 339.218929 227.964044 
L 342.423493 221.785032 
L 345.628057 216.376431 
L 348.832621 209.778507 
L 352.037185 206.423156 
L 355.241749 200.88003 
L 361.650876 195.877571 
L 364.85544 192.266883 
L 368.060004 189.017824 
L 371.264568 185.022279 
L 374.469132 182.253071 
L 377.673696 179.296028 
L 380.87826 177.601481 
L 384.082824 175.230354 
L 387.287387 172.287049 
L 390.491951 168.651058 
L 393.696515 165.554143 
L 396.901079 164.034118 
L 400.105643 161.551746 
L 403.310207 159.220548 
L 406.514771 157.224003 
L 416.128462 149.908507 
L 419.333026 148.227119 
L 422.53759 145.656049 
L 425.742154 143.974227 
L 428.946718 142.046505 
L 432.151282 140.869944 
L 435.355846 138.261704 
L 438.56041 137.674115 
L 444.969537 134.927213 
L 448.174101 133.623789 
L 451.378665 131.463318 
L 454.583229 129.967952 
L 457.787793 127.697257 
L 460.992357 126.285383 
L 467.401484 123.091516 
L 470.606048 120.873824 
L 473.810612 118.374683 
L 477.015176 117.05786 
L 480.21974 115.917989 
L 486.628868 113.367186 
L 489.833432 112.748811 
L 493.037995 112.531949 
L 496.242559 111.98022 
L 499.447123 110.085101 
L 502.651687 109.416716 
L 505.856251 108.154724 
L 509.060815 107.79966 
L 512.265379 106.803856 
L 515.469943 106.38841 
L 518.674507 105.347096 
L 521.87907 104.122031 
L 525.083634 103.715717 
L 528.288198 103.521199 
L 534.697326 103.445789 
L 537.90189 102.929451 
L 541.106454 101.914123 
L 550.720145 98.37356 
L 553.924709 98.12872 
L 560.333837 96.718983 
L 566.742965 96.629194 
L 569.947529 96.171494 
L 573.152093 95.974797 
L 576.356656 95.641083 
L 579.56122 94.856183 
L 589.174912 93.273471 
L 592.379476 92.858485 
L 598.788604 92.772443 
L 601.993167 92.335742 
L 608.402295 91.870732 
L 614.811423 91.870732 
L 618.015987 91.707014 
L 624.425115 90.044306 
L 630.834242 86.693843 
L 634.038806 84.807753 
L 637.24337 84.274406 
L 643.652498 84.092189 
L 646.857062 83.432376 
L 656.470753 79.682957 
L 659.675317 79.464055 
L 662.879881 77.623567 
L 666.084445 76.343317 
L 669.289009 76.253485 
L 672.493573 75.584638 
L 678.902701 75.584638 
L 682.107264 75.425856 
L 688.516392 75.425856 
L 691.720956 75.313128 
L 698.130084 75.225362 
L 707.743776 74.740474 
L 710.948339 74.059363 
L 710.948339 74.059363 
" clip-path="url(#p304f52305c)" style="fill: none; stroke: #008000; stroke-width: 2; stroke-linecap: square"/>
   </g>
   <g id="line2d_26">
    <path d="M 73.240127 412.550491 
L 76.444691 378.449424 
L 79.649255 354.79081 
L 82.853819 337.983334 
L 86.058383 323.900429 
L 89.262946 318.088215 
L 92.46751 309.581109 
L 95.672074 302.563134 
L 98.876638 298.098682 
L 102.081202 294.053579 
L 105.285766 290.571751 
L 108.49033 283.68544 
L 111.694894 279.160156 
L 114.899458 276.091765 
L 118.104021 275.002644 
L 121.308585 273.760362 
L 124.513149 272.799613 
L 127.717713 271.974413 
L 130.922277 271.300403 
L 134.126841 269.607766 
L 137.331405 268.61939 
L 140.535969 267.409886 
L 143.740532 265.996764 
L 146.945096 264.7507 
L 150.14966 261.44905 
L 153.354224 259.281457 
L 156.558788 256.162786 
L 159.763352 254.875352 
L 162.967916 252.737418 
L 166.17248 248.408583 
L 169.377044 245.366584 
L 172.581607 243.072189 
L 175.786171 239.928068 
L 178.990735 237.587676 
L 182.195299 234.266496 
L 185.399863 231.391385 
L 188.604427 227.93563 
L 191.808991 225.456802 
L 195.013555 222.193693 
L 198.218118 219.967963 
L 201.422682 218.322789 
L 204.627246 215.48256 
L 207.83181 214.496869 
L 211.036374 212.751231 
L 214.240938 211.797314 
L 217.445502 210.659704 
L 220.650066 209.112213 
L 223.854629 208.77381 
L 227.059193 207.215665 
L 230.263757 205.80207 
L 233.468321 204.515967 
L 236.672885 204.043942 
L 239.877449 203.339121 
L 243.082013 203.29358 
L 246.286577 201.526201 
L 249.491141 200.515918 
L 252.695704 198.952773 
L 255.900268 197.681343 
L 259.104832 195.636083 
L 262.309396 194.172979 
L 265.51396 192.106977 
L 268.718524 191.069097 
L 271.923088 189.828235 
L 275.127652 188.991441 
L 278.332215 187.620746 
L 281.536779 186.973806 
L 284.741343 186.56621 
L 287.945907 186.37566 
L 291.150471 185.34945 
L 297.559599 185.334585 
L 300.764163 185.045313 
L 310.377854 183.303696 
L 313.582418 182.60865 
L 316.786982 182.04157 
L 319.991546 181.962479 
L 329.605238 180.078591 
L 332.809801 179.621241 
L 339.218929 178.34517 
L 342.423493 177.490585 
L 345.628057 177.474389 
L 352.037185 176.245285 
L 355.241749 175.468277 
L 358.446312 174.806139 
L 361.650876 173.566189 
L 371.264568 170.503773 
L 377.673696 169.423363 
L 384.082824 167.833753 
L 387.287387 167.629065 
L 390.491951 167.255776 
L 396.901079 167.173035 
L 403.310207 167.078735 
L 406.514771 166.738888 
L 409.719335 166.523881 
L 412.923898 166.470924 
L 416.128462 166.268501 
L 428.946718 166.169906 
L 435.355846 166.095969 
L 444.969537 166.095969 
L 448.174101 165.188099 
L 454.583229 164.708049 
L 457.787793 164.24256 
L 464.196921 163.798595 
L 473.810612 163.753217 
L 525.083634 163.753217 
L 528.288198 163.091985 
L 531.492762 162.577688 
L 534.697326 162.496542 
L 537.90189 162.177996 
L 541.106454 162.058928 
L 544.311018 161.813276 
L 566.742965 161.813276 
L 569.947529 161.006227 
L 579.56122 160.956336 
L 621.220551 160.956336 
L 624.425115 160.81455 
L 627.629678 160.222382 
L 634.038806 157.821306 
L 637.24337 157.280461 
L 643.652498 157.280461 
L 646.857062 156.660736 
L 650.061626 156.497831 
L 656.470753 154.835398 
L 659.675317 154.314655 
L 662.879881 153.678497 
L 672.493573 153.316346 
L 675.698137 151.928084 
L 678.902701 148.945196 
L 682.107264 148.815711 
L 688.516392 148.080377 
L 694.92552 146.382737 
L 698.130084 146.074541 
L 710.948339 145.589243 
L 710.948339 145.589243 
" clip-path="url(#p304f52305c)" style="fill: none; stroke: #0000ff; stroke-width: 2; stroke-linecap: square"/>
   </g>
   <g id="patch_3">
    <path d="M 73.23375 458.232264 
L 73.23375 14.712264 
" style="fill: none; stroke: #000000; stroke-width: 0.8; stroke-linejoin: miter; stroke-linecap: square"/>
   </g>
   <g id="patch_4">
    <path d="M 742.83375 458.232264 
L 742.83375 14.712264 
" style="fill: none; stroke: #000000; stroke-width: 0.8; stroke-linejoin: miter; stroke-linecap: square"/>
   </g>
   <g id="patch_5">
    <path d="M 73.23375 458.232264 
L 742.83375 458.232264 
" style="fill: none; stroke: #000000; stroke-width: 0.8; stroke-linejoin: miter; stroke-linecap: square"/>
   </g>
   <g id="patch_6">
    <path d="M 73.23375 14.712264 
L 742.83375 14.712264 
" style="fill: none; stroke: #000000; stroke-width: 0.8; stroke-linejoin: miter; stroke-linecap: square"/>
   </g>
   <g id="legend_1">
    <g id="patch_7">
     <path d="M 393.85875 448.232264 
L 728.83375 448.232264 
Q 732.83375 448.232264 732.83375 444.232264 
L 732.83375 387.519764 
Q 732.83375 383.519764 728.83375 383.519764 
L 393.85875 383.519764 
Q 389.85875 383.519764 389.85875 387.519764 
L 389.85875 444.232264 
Q 389.85875 448.232264 393.85875 448.232264 
z
" style="fill: #ffffff; opacity: 0.8; stroke: #cccccc; stroke-linejoin: miter"/>
    </g>
    <g id="line2d_27">
     <path d="M 397.85875 399.716639 
L 417.85875 399.716639 
L 437.85875 399.716639 
" style="fill: none; stroke: #008000; stroke-width: 2; stroke-linecap: square"/>
    </g>
    <g id="text_15">
     <!-- 7x7 baseline (n=20) -->
     <g transform="translate(453.85875 406.716639) scale(0.2 -0.2)">
      <defs>
       <path id="DejaVuSans-37" d="M 525 4666 
L 3525 4666 
L 3525 4397 
L 1831 0 
L 1172 0 
L 2766 4134 
L 525 4134 
L 525 4666 
z
" transform="scale(0.015625)"/>
       <path id="DejaVuSans-62" d="M 3116 1747 
Q 3116 2381 2855 2742 
Q 2594 3103 2138 3103 
Q 1681 3103 1420 2742 
Q 1159 2381 1159 1747 
Q 1159 1113 1420 752 
Q 1681 391 2138 391 
Q 2594 391 2855 752 
Q 3116 1113 3116 1747 
z
M 1159 2969 
Q 1341 3281 1617 3432 
Q 1894 3584 2278 3584 
Q 2916 3584 3314 3078 
Q 3713 2572 3713 1747 
Q 3713 922 3314 415 
Q 2916 -91 2278 -91 
Q 1894 -91 1617 61 
Q 1341 213 1159 525 
L 1159 0 
L 581 0 
L 581 4863 
L 1159 4863 
L 1159 2969 
z
" transform="scale(0.015625)"/>
       <path id="DejaVuSans-6c" d="M 603 4863 
L 1178 4863 
L 1178 0 
L 603 0 
L 603 4863 
z
" transform="scale(0.015625)"/>
       <path id="DejaVuSans-3d" d="M 678 2906 
L 4684 2906 
L 4684 2381 
L 678 2381 
L 678 2906 
z
M 678 1631 
L 4684 1631 
L 4684 1100 
L 678 1100 
L 678 1631 
z
" transform="scale(0.015625)"/>
      </defs>
      <use xlink:href="#DejaVuSans-37"/>
      <use xlink:href="#DejaVuSans-78" transform="translate(63.623047 0)"/>
      <use xlink:href="#DejaVuSans-37" transform="translate(122.802734 0)"/>
      <use xlink:href="#DejaVuSans-20" transform="translate(186.425781 0)"/>
      <use xlink:href="#DejaVuSans-62" transform="translate(218.212891 0)"/>
      <use xlink:href="#DejaVuSans-61" transform="translate(281.689453 0)"/>
      <use xlink:href="#DejaVuSans-73" transform="translate(342.96875 0)"/>
      <use xlink:href="#DejaVuSans-65" transform="translate(395.068359 0)"/>
      <use xlink:href="#DejaVuSans-6c" transform="translate(456.591797 0)"/>
      <use xlink:href="#DejaVuSans-69" transform="translate(484.375 0)"/>
      <use xlink:href="#DejaVuSans-6e" transform="translate(512.158203 0)"/>
      <use xlink:href="#DejaVuSans-65" transform="translate(575.537109 0)"/>
      <use xlink:href="#DejaVuSans-20" transform="translate(637.060547 0)"/>
      <use xlink:href="#DejaVuSans-28" transform="translate(668.847656 0)"/>
      <use xlink:href="#DejaVuSans-6e" transform="translate(707.861328 0)"/>
      <use xlink:href="#DejaVuSans-3d" transform="translate(771.240234 0)"/>
      <use xlink:href="#DejaVuSans-32" transform="translate(855.029297 0)"/>
      <use xlink:href="#DejaVuSans-30" transform="translate(918.652344 0)"/>
      <use xlink:href="#DejaVuSans-29" transform="translate(982.275391 0)"/>
     </g>
    </g>
    <g id="line2d_28">
     <path d="M 397.85875 429.072889 
L 417.85875 429.072889 
L 437.85875 429.072889 
" style="fill: none; stroke: #0000ff; stroke-width: 2; stroke-linecap: square"/>
    </g>
    <g id="text_16">
     <!-- Transfer 5x5 to 7x7 (n=20) -->
     <g transform="translate(453.85875 436.072889) scale(0.2 -0.2)">
      <defs>
       <path id="DejaVuSans-66" d="M 2375 4863 
L 2375 4384 
L 1825 4384 
Q 1516 4384 1395 4259 
Q 1275 4134 1275 3809 
L 1275 3500 
L 2222 3500 
L 2222 3053 
L 1275 3053 
L 1275 0 
L 697 0 
L 697 3053 
L 147 3053 
L 147 3500 
L 697 3500 
L 697 3744 
Q 697 4328 969 4595 
Q 1241 4863 1831 4863 
L 2375 4863 
z
" transform="scale(0.015625)"/>
       <path id="DejaVuSans-35" d="M 691 4666 
L 3169 4666 
L 3169 4134 
L 1269 4134 
L 1269 2991 
Q 1406 3038 1543 3061 
Q 1681 3084 1819 3084 
Q 2600 3084 3056 2656 
Q 3513 2228 3513 1497 
Q 3513 744 3044 326 
Q 2575 -91 1722 -91 
Q 1428 -91 1123 -41 
Q 819 9 494 109 
L 494 744 
Q 775 591 1075 516 
Q 1375 441 1709 441 
Q 2250 441 2565 725 
Q 2881 1009 2881 1497 
Q 2881 1984 2565 2268 
Q 2250 2553 1709 2553 
Q 1456 2553 1204 2497 
Q 953 2441 691 2322 
L 691 4666 
z
" transform="scale(0.015625)"/>
      </defs>
      <use xlink:href="#DejaVuSans-54"/>
      <use xlink:href="#DejaVuSans-72" transform="translate(46.333984 0)"/>
      <use xlink:href="#DejaVuSans-61" transform="translate(87.447266 0)"/>
      <use xlink:href="#DejaVuSans-6e" transform="translate(148.726562 0)"/>
      <use xlink:href="#DejaVuSans-73" transform="translate(212.105469 0)"/>
      <use xlink:href="#DejaVuSans-66" transform="translate(264.205078 0)"/>
      <use xlink:href="#DejaVuSans-65" transform="translate(299.410156 0)"/>
      <use xlink:href="#DejaVuSans-72" transform="translate(360.933594 0)"/>
      <use xlink:href="#DejaVuSans-20" transform="translate(402.046875 0)"/>
      <use xlink:href="#DejaVuSans-35" transform="translate(433.833984 0)"/>
      <use xlink:href="#DejaVuSans-78" transform="translate(497.457031 0)"/>
      <use xlink:href="#DejaVuSans-35" transform="translate(556.636719 0)"/>
      <use xlink:href="#DejaVuSans-20" transform="translate(620.259766 0)"/>
      <use xlink:href="#DejaVuSans-74" transform="translate(652.046875 0)"/>
      <use xlink:href="#DejaVuSans-6f" transform="translate(691.255859 0)"/>
      <use xlink:href="#DejaVuSans-20" transform="translate(752.4375 0)"/>
      <use xlink:href="#DejaVuSans-37" transform="translate(784.224609 0)"/>
      <use xlink:href="#DejaVuSans-78" transform="translate(847.847656 0)"/>
      <use xlink:href="#DejaVuSans-37" transform="translate(907.027344 0)"/>
      <use xlink:href="#DejaVuSans-20" transform="translate(970.650391 0)"/>
      <use xlink:href="#DejaVuSans-28" transform="translate(1002.4375 0)"/>
      <use xlink:href="#DejaVuSans-6e" transform="translate(1041.451172 0)"/>
      <use xlink:href="#DejaVuSans-3d" transform="translate(1104.830078 0)"/>
      <use xlink:href="#DejaVuSans-32" transform="translate(1188.619141 0)"/>
      <use xlink:href="#DejaVuSans-30" transform="translate(1252.242188 0)"/>
      <use xlink:href="#DejaVuSans-29" transform="translate(1315.865234 0)"/>
     </g>
    </g>
   </g>
  </g>
 </g>
 <defs>
  <clipPath id="p304f52305c">
   <rect x="73.23375" y="14.712264" width="669.6" height="443.52"/>
  </clipPath>
 </defs>
</svg>
