<?xml version="1.0" encoding="utf-8" standalone="no"?>
<!DOCTYPE svg PUBLIC "-//W3C//DTD SVG 1.1//EN"
  "http://www.w3.org/Graphics/SVG/1.1/DTD/svg11.dtd">
<svg xmlns:xlink="http://www.w3.org/1999/xlink" width="864pt" height="576pt" viewBox="0 0 864 576" xmlns="http://www.w3.org/2000/svg" version="1.1">
 <metadata>
  <rdf:RDF xmlns:dc="http://purl.org/dc/elements/1.1/" xmlns:cc="http://creativecommons.org/ns#" xmlns:rdf="http://www.w3.org/1999/02/22-rdf-syntax-ns#">
   <cc:Work>
    <dc:type rdf:resource="http://purl.org/dc/dcmitype/StillImage"/>
    <dc:date>2025-08-11T11:48:32.471350</dc:date>
    <dc:format>image/svg+xml</dc:format>
    <dc:creator>
     <cc:Agent>
      <dc:title>Matplotlib v3.10.3, https://matplotlib.org/</dc:title>
     </cc:Agent>
    </dc:creator>
   </cc:Work>
  </rdf:RDF>
 </metadata>
 <defs>
  <style type="text/css">*{stroke-linejoin: round; stroke-linecap: butt}</style>
 </defs>
 <g id="figure_1">
  <g id="patch_1">
   <path d="M 0 576 
L 864 576 
L 864 0 
L 0 0 
z
" style="fill: #ffffff"/>
  </g>
  <g id="axes_1">
   <g id="patch_2">
    <path d="M 108 512.64 
L 777.6 512.64 
L 777.6 69.12 
L 108 69.12 
z
" style="fill: #ffffff"/>
   </g>
   <g id="FillBetweenPolyCollection_1">
    <defs>
     <path id="ma40005bea6" d="M 108.006377 -164.014523 
L 108.006377 -63.36 
L 111.210941 -63.36 
L 114.415505 -63.36 
L 117.620069 -63.752893 
L 120.824633 -64.80735 
L 124.029196 -64.80735 
L 127.23376 -66.0745 
L 130.438324 -66.0745 
L 133.642888 -66.0745 
L 136.847452 -66.630459 
L 140.052016 -68.099822 
L 143.25658 -70.73153 
L 146.461144 -72.909156 
L 149.665708 -75.207272 
L 152.870271 -77.145932 
L 156.074835 -77.662615 
L 159.279399 -77.662615 
L 162.483963 -77.662615 
L 165.688527 -77.662615 
L 168.893091 -77.662615 
L 172.097655 -79.68985 
L 175.302219 -83.083101 
L 178.506782 -85.745653 
L 181.711346 -87.05842 
L 184.91591 -87.380319 
L 188.120474 -87.636883 
L 191.325038 -88.358436 
L 194.529602 -89.106035 
L 197.734166 -89.687863 
L 200.93873 -90.483717 
L 204.143294 -91.128716 
L 207.347857 -92.948368 
L 210.552421 -94.854198 
L 213.756985 -94.918086 
L 216.961549 -94.918086 
L 220.166113 -94.918086 
L 223.370677 -96.930071 
L 226.575241 -101.840938 
L 229.779805 -103.038482 
L 232.984368 -103.422131 
L 236.188932 -104.845814 
L 239.393496 -108.012294 
L 242.59806 -111.021158 
L 245.802624 -114.458232 
L 249.007188 -117.524916 
L 252.211752 -117.689631 
L 255.416316 -117.689631 
L 258.620879 -117.689631 
L 261.825443 -123.196788 
L 265.030007 -127.502863 
L 268.234571 -127.848377 
L 271.439135 -128.999791 
L 274.643699 -129.792128 
L 277.848263 -131.095061 
L 281.052827 -133.03521 
L 284.257391 -134.643177 
L 287.461954 -135.976289 
L 290.666518 -137.560992 
L 293.871082 -138.514023 
L 297.075646 -140.302816 
L 300.28021 -141.299124 
L 303.484774 -142.107284 
L 306.689338 -143.527897 
L 309.893902 -145.642074 
L 313.098465 -146.529569 
L 316.303029 -147.963133 
L 319.507593 -150.130562 
L 322.712157 -151.984689 
L 325.916721 -153.086497 
L 329.121285 -154.495366 
L 332.325849 -155.891075 
L 335.530413 -156.275649 
L 338.734977 -156.275649 
L 341.93954 -156.275649 
L 345.144104 -157.252384 
L 348.348668 -157.537042 
L 351.553232 -158.952986 
L 354.757796 -161.367905 
L 357.96236 -161.886264 
L 361.166924 -162.401476 
L 364.371488 -163.542284 
L 367.576051 -165.46365 
L 370.780615 -167.340113 
L 373.985179 -168.305641 
L 377.189743 -169.372456 
L 380.394307 -169.961681 
L 383.598871 -170.211403 
L 386.803435 -172.917043 
L 390.007999 -174.040208 
L 393.212562 -175.818994 
L 396.417126 -177.408736 
L 399.62169 -180.971626 
L 402.826254 -183.061463 
L 406.030818 -183.908063 
L 409.235382 -185.441495 
L 412.439946 -187.538085 
L 415.64451 -189.418029 
L 418.849074 -189.418029 
L 422.053637 -189.418029 
L 425.258201 -190.055828 
L 428.462765 -190.623657 
L 431.667329 -190.623657 
L 434.871893 -190.623657 
L 438.076457 -190.645029 
L 441.281021 -190.959889 
L 444.485585 -190.959889 
L 447.690148 -190.959889 
L 450.894712 -190.959889 
L 454.099276 -190.959889 
L 457.30384 -191.181635 
L 460.508404 -191.313606 
L 463.712968 -191.485769 
L 466.917532 -191.65441 
L 470.122096 -191.65441 
L 473.32666 -192.113721 
L 476.531223 -194.435983 
L 479.735787 -195.948175 
L 482.940351 -196.851627 
L 486.144915 -199.587682 
L 489.349479 -202.426603 
L 492.554043 -202.72887 
L 495.758607 -206.599525 
L 498.963171 -209.454267 
L 502.167734 -210.973315 
L 505.372298 -213.083784 
L 508.576862 -214.412831 
L 511.781426 -216.196221 
L 514.98599 -216.332136 
L 518.190554 -216.332136 
L 521.395118 -216.332136 
L 524.599682 -218.092809 
L 527.804245 -218.13745 
L 531.008809 -218.13745 
L 534.213373 -218.13745 
L 537.417937 -218.13745 
L 540.622501 -218.13745 
L 543.827065 -218.13745 
L 547.031629 -218.13745 
L 550.236193 -218.13745 
L 553.440757 -218.13745 
L 556.64532 -218.13745 
L 559.849884 -218.562625 
L 563.054448 -221.629415 
L 566.259012 -224.420682 
L 569.463576 -225.52475 
L 572.66814 -225.52475 
L 575.872704 -225.52475 
L 579.077268 -225.52475 
L 582.281831 -225.52475 
L 585.486395 -225.52475 
L 588.690959 -225.52475 
L 591.895523 -225.52475 
L 595.100087 -226.088713 
L 598.304651 -226.088713 
L 601.509215 -226.088713 
L 604.713779 -226.088713 
L 607.918343 -229.728869 
L 611.122906 -230.881368 
L 614.32747 -230.881368 
L 617.532034 -230.881368 
L 620.736598 -230.881368 
L 623.941162 -230.881368 
L 627.145726 -230.881368 
L 630.35029 -230.881368 
L 633.554854 -230.881368 
L 636.759417 -230.881368 
L 639.963981 -230.881368 
L 643.168545 -230.881368 
L 646.373109 -230.881368 
L 649.577673 -230.881368 
L 652.782237 -230.881368 
L 655.986801 -230.881368 
L 659.191365 -230.881368 
L 662.395928 -230.881368 
L 665.600492 -230.881368 
L 668.805056 -230.881368 
L 672.00962 -230.881368 
L 675.214184 -230.881368 
L 678.418748 -230.881368 
L 681.623312 -230.881368 
L 684.827876 -230.881368 
L 688.03244 -230.881368 
L 691.237003 -230.881368 
L 694.441567 -230.881368 
L 697.646131 -230.881368 
L 700.850695 -230.881368 
L 704.055259 -230.881368 
L 707.259823 -230.881368 
L 710.464387 -230.881368 
L 713.668951 -230.881368 
L 716.873514 -230.881368 
L 720.078078 -230.881368 
L 723.282642 -230.881368 
L 726.487206 -230.881368 
L 729.69177 -230.881368 
L 732.896334 -231.412275 
L 736.100898 -231.412275 
L 739.305462 -231.412275 
L 742.510026 -231.412275 
L 745.714589 -231.412275 
L 745.714589 -484.952713 
L 745.714589 -484.952713 
L 742.510026 -483.680044 
L 739.305462 -483.458948 
L 736.100898 -483.458948 
L 732.896334 -483.458948 
L 729.69177 -483.458948 
L 726.487206 -483.458948 
L 723.282642 -480.543098 
L 720.078078 -480.543098 
L 716.873514 -480.543098 
L 713.668951 -480.543098 
L 710.464387 -480.543098 
L 707.259823 -480.543098 
L 704.055259 -480.543098 
L 700.850695 -480.456738 
L 697.646131 -479.585996 
L 694.441567 -476.140706 
L 691.237003 -474.088341 
L 688.03244 -473.622373 
L 684.827876 -471.473945 
L 681.623312 -470.360981 
L 678.418748 -468.713181 
L 675.214184 -468.713181 
L 672.00962 -468.713181 
L 668.805056 -468.468945 
L 665.600492 -467.314755 
L 662.395928 -467.314755 
L 659.191365 -467.314755 
L 655.986801 -467.314755 
L 652.782237 -467.314755 
L 649.577673 -467.314755 
L 646.373109 -467.314755 
L 643.168545 -467.314755 
L 639.963981 -467.314755 
L 636.759417 -467.314755 
L 633.554854 -467.314755 
L 630.35029 -467.314755 
L 627.145726 -464.383608 
L 623.941162 -464.383608 
L 620.736598 -463.863458 
L 617.532034 -463.046764 
L 614.32747 -463.046764 
L 611.122906 -463.046764 
L 607.918343 -463.046764 
L 604.713779 -463.046764 
L 601.509215 -463.046764 
L 598.304651 -463.046764 
L 595.100087 -463.046764 
L 591.895523 -463.046764 
L 588.690959 -463.046764 
L 585.486395 -463.046764 
L 582.281831 -461.597 
L 579.077268 -459.023978 
L 575.872704 -455.908627 
L 572.66814 -454.770482 
L 569.463576 -452.176514 
L 566.259012 -446.510139 
L 563.054448 -445.608792 
L 559.849884 -445.608792 
L 556.64532 -444.053913 
L 553.440757 -443.976897 
L 550.236193 -443.939664 
L 547.031629 -443.939664 
L 543.827065 -443.058131 
L 540.622501 -443.058131 
L 537.417937 -440.962603 
L 534.213373 -440.962603 
L 531.008809 -440.962603 
L 527.804245 -434.402408 
L 524.599682 -434.402408 
L 521.395118 -425.211284 
L 518.190554 -422.258602 
L 514.98599 -416.524951 
L 511.781426 -413.298952 
L 508.576862 -410.047347 
L 505.372298 -406.138612 
L 502.167734 -406.138612 
L 498.963171 -406.138612 
L 495.758607 -406.138612 
L 492.554043 -405.710051 
L 489.349479 -405.710051 
L 486.144915 -405.710051 
L 482.940351 -404.524333 
L 479.735787 -404.524333 
L 476.531223 -403.712205 
L 473.32666 -403.070693 
L 470.122096 -402.262514 
L 466.917532 -401.425845 
L 463.712968 -401.405296 
L 460.508404 -399.975591 
L 457.30384 -399.220217 
L 454.099276 -398.220828 
L 450.894712 -398.042181 
L 447.690148 -398.042181 
L 444.485585 -398.042181 
L 441.281021 -398.042181 
L 438.076457 -395.20739 
L 434.871893 -395.20739 
L 431.667329 -392.89527 
L 428.462765 -389.805002 
L 425.258201 -389.805002 
L 422.053637 -385.741537 
L 418.849074 -381.319882 
L 415.64451 -378.990497 
L 412.439946 -374.899168 
L 409.235382 -371.786338 
L 406.030818 -368.220544 
L 402.826254 -360.765035 
L 399.62169 -356.866655 
L 396.417126 -353.113971 
L 393.212562 -350.617674 
L 390.007999 -346.58524 
L 386.803435 -340.679474 
L 383.598871 -335.532183 
L 380.394307 -329.871504 
L 377.189743 -326.400847 
L 373.985179 -320.480442 
L 370.780615 -315.977855 
L 367.576051 -312.43468 
L 364.371488 -298.934639 
L 361.166924 -291.052256 
L 357.96236 -278.032789 
L 354.757796 -278.032789 
L 351.553232 -272.934727 
L 348.348668 -266.260149 
L 345.144104 -261.045166 
L 341.93954 -251.77823 
L 338.734977 -245.337867 
L 335.530413 -241.552439 
L 332.325849 -236.762413 
L 329.121285 -230.724446 
L 325.916721 -227.179372 
L 322.712157 -224.309931 
L 319.507593 -218.889423 
L 316.303029 -214.139042 
L 313.098465 -212.352006 
L 309.893902 -210.184007 
L 306.689338 -207.750782 
L 303.484774 -202.958789 
L 300.28021 -201.219283 
L 297.075646 -193.370249 
L 293.871082 -190.199471 
L 290.666518 -189.629268 
L 287.461954 -185.346107 
L 284.257391 -179.559318 
L 281.052827 -177.898881 
L 277.848263 -176.300126 
L 274.643699 -173.448795 
L 271.439135 -172.676092 
L 268.234571 -172.676092 
L 265.030007 -172.676092 
L 261.825443 -172.676092 
L 258.620879 -172.676092 
L 255.416316 -172.676092 
L 252.211752 -172.676092 
L 249.007188 -172.676092 
L 245.802624 -172.676092 
L 242.59806 -172.676092 
L 239.393496 -172.676092 
L 236.188932 -172.676092 
L 232.984368 -172.676092 
L 229.779805 -172.676092 
L 226.575241 -172.676092 
L 223.370677 -172.676092 
L 220.166113 -172.575397 
L 216.961549 -171.017084 
L 213.756985 -170.327845 
L 210.552421 -170.327845 
L 207.347857 -170.327845 
L 204.143294 -170.327845 
L 200.93873 -170.327845 
L 197.734166 -170.327845 
L 194.529602 -170.327845 
L 191.325038 -170.327845 
L 188.120474 -170.327845 
L 184.91591 -170.327845 
L 181.711346 -170.327845 
L 178.506782 -170.327845 
L 175.302219 -170.327845 
L 172.097655 -170.327845 
L 168.893091 -170.327845 
L 165.688527 -170.327845 
L 162.483963 -170.327845 
L 159.279399 -170.327845 
L 156.074835 -170.327845 
L 152.870271 -170.327845 
L 149.665708 -170.327845 
L 146.461144 -170.327845 
L 143.25658 -170.327845 
L 140.052016 -170.327845 
L 136.847452 -170.327845 
L 133.642888 -165.707154 
L 130.438324 -165.707154 
L 127.23376 -165.707154 
L 124.029196 -165.707154 
L 120.824633 -165.707154 
L 117.620069 -165.707154 
L 114.415505 -165.707154 
L 111.210941 -164.014523 
L 108.006377 -164.014523 
z
" style="stroke: #008000; stroke-opacity: 0.3"/>
    </defs>
    <g clip-path="url(#p5bf21b7d78)">
     <use xlink:href="#ma40005bea6" x="0" y="576" style="fill: #008000; fill-opacity: 0.3; stroke: #008000; stroke-opacity: 0.3"/>
    </g>
   </g>
   <g id="FillBetweenPolyCollection_2">
    <defs>
     <path id="me5cde7b1aa" d="M 108.006377 -182.906104 
L 108.006377 -63.36 
L 111.210941 -63.36 
L 114.415505 -63.36 
L 117.620069 -63.360004 
L 120.824633 -63.360007 
L 124.029196 -63.360007 
L 127.23376 -63.360009 
L 130.438324 -63.360011 
L 133.642888 -63.360011 
L 136.847452 -63.360061 
L 140.052016 -63.360061 
L 143.25658 -63.360078 
L 146.461144 -63.36012 
L 149.665708 -63.36012 
L 152.870271 -63.360659 
L 156.074835 -63.360989 
L 159.279399 -63.361036 
L 162.483963 -63.361717 
L 165.688527 -63.361717 
L 168.893091 -63.366191 
L 172.097655 -63.373978 
L 175.302219 -63.373978 
L 178.506782 -63.382004 
L 181.711346 -63.385074 
L 184.91591 -63.417717 
L 188.120474 -64.587949 
L 191.325038 -65.456897 
L 194.529602 -65.530394 
L 197.734166 -65.621987 
L 200.93873 -83.848865 
L 204.143294 -88.44942 
L 207.347857 -89.377987 
L 210.552421 -96.048337 
L 213.756985 -100.029325 
L 216.961549 -108.729615 
L 220.166113 -118.93143 
L 223.370677 -130.93392 
L 226.575241 -134.005371 
L 229.779805 -137.984759 
L 232.984368 -141.654001 
L 236.188932 -142.6218 
L 239.393496 -142.861468 
L 242.59806 -145.01418 
L 245.802624 -145.01418 
L 249.007188 -145.077503 
L 252.211752 -147.047287 
L 255.416316 -150.187529 
L 258.620879 -151.203997 
L 261.825443 -152.304722 
L 265.030007 -153.704654 
L 268.234571 -153.711262 
L 271.439135 -154.69278 
L 274.643699 -159.355347 
L 277.848263 -162.05734 
L 281.052827 -162.728427 
L 284.257391 -166.581885 
L 287.461954 -172.744476 
L 290.666518 -177.187878 
L 293.871082 -179.83315 
L 297.075646 -197.188137 
L 300.28021 -204.463632 
L 303.484774 -204.80451 
L 306.689338 -204.80451 
L 309.893902 -207.372973 
L 313.098465 -217.229679 
L 316.303029 -219.383383 
L 319.507593 -223.115332 
L 322.712157 -225.702037 
L 325.916721 -227.609157 
L 329.121285 -228.359197 
L 332.325849 -229.216936 
L 335.530413 -230.246496 
L 338.734977 -234.087809 
L 341.93954 -239.980088 
L 345.144104 -239.980088 
L 348.348668 -239.980088 
L 351.553232 -240.430052 
L 354.757796 -240.430052 
L 357.96236 -240.430052 
L 361.166924 -240.510983 
L 364.371488 -241.413707 
L 367.576051 -241.630771 
L 370.780615 -244.52849 
L 373.985179 -246.640914 
L 377.189743 -248.15687 
L 380.394307 -248.15687 
L 383.598871 -248.15687 
L 386.803435 -248.15687 
L 390.007999 -248.15687 
L 393.212562 -248.15687 
L 396.417126 -248.15687 
L 399.62169 -248.15687 
L 402.826254 -248.15687 
L 406.030818 -248.15687 
L 409.235382 -248.15687 
L 412.439946 -248.15687 
L 415.64451 -248.15687 
L 418.849074 -248.15687 
L 422.053637 -248.393788 
L 425.258201 -248.393788 
L 428.462765 -248.393788 
L 431.667329 -248.393788 
L 434.871893 -248.393788 
L 438.076457 -248.393788 
L 441.281021 -248.393788 
L 444.485585 -248.393788 
L 447.690148 -248.448445 
L 450.894712 -249.830304 
L 454.099276 -253.540973 
L 457.30384 -255.427321 
L 460.508404 -255.427321 
L 463.712968 -255.427321 
L 466.917532 -256.86283 
L 470.122096 -258.25932 
L 473.32666 -258.25932 
L 476.531223 -258.25932 
L 479.735787 -258.812338 
L 482.940351 -258.812338 
L 486.144915 -258.812338 
L 489.349479 -262.228364 
L 492.554043 -263.257676 
L 495.758607 -266.357396 
L 498.963171 -268.318762 
L 502.167734 -274.959361 
L 505.372298 -274.959361 
L 508.576862 -274.959361 
L 511.781426 -280.868485 
L 514.98599 -283.147402 
L 518.190554 -283.28303 
L 521.395118 -286.718976 
L 524.599682 -291.602475 
L 527.804245 -294.116885 
L 531.008809 -294.116885 
L 534.213373 -295.23069 
L 537.417937 -296.992929 
L 540.622501 -296.992929 
L 543.827065 -296.992929 
L 547.031629 -296.992929 
L 550.236193 -296.992929 
L 553.440757 -296.992929 
L 556.64532 -296.992929 
L 559.849884 -298.509164 
L 563.054448 -299.482387 
L 566.259012 -299.482387 
L 569.463576 -301.588553 
L 572.66814 -301.588553 
L 575.872704 -301.588553 
L 579.077268 -301.588553 
L 582.281831 -301.588553 
L 585.486395 -301.588553 
L 588.690959 -301.588553 
L 591.895523 -301.588553 
L 595.100087 -301.588553 
L 598.304651 -301.588553 
L 601.509215 -301.588553 
L 604.713779 -301.588553 
L 607.918343 -301.588553 
L 611.122906 -301.588553 
L 614.32747 -301.588553 
L 617.532034 -301.588553 
L 620.736598 -301.588553 
L 623.941162 -301.588553 
L 627.145726 -301.588553 
L 630.35029 -301.588553 
L 633.554854 -301.588553 
L 636.759417 -301.588553 
L 639.963981 -301.588553 
L 643.168545 -301.588553 
L 646.373109 -301.588553 
L 649.577673 -301.588553 
L 652.782237 -301.588553 
L 655.986801 -301.588553 
L 659.191365 -301.588553 
L 662.395928 -301.588553 
L 665.600492 -301.588553 
L 668.805056 -301.588553 
L 672.00962 -301.588553 
L 675.214184 -301.588553 
L 678.418748 -301.588553 
L 681.623312 -301.588553 
L 684.827876 -301.588553 
L 688.03244 -301.588553 
L 691.237003 -301.588553 
L 694.441567 -301.588553 
L 697.646131 -301.588553 
L 700.850695 -301.588553 
L 704.055259 -301.588553 
L 707.259823 -301.588553 
L 710.464387 -301.588553 
L 713.668951 -301.588553 
L 716.873514 -301.588553 
L 720.078078 -301.588553 
L 723.282642 -301.588553 
L 726.487206 -301.588553 
L 729.69177 -301.588553 
L 732.896334 -302.526508 
L 736.100898 -303.354008 
L 739.305462 -303.354008 
L 742.510026 -303.354008 
L 745.714589 -303.354008 
L 745.714589 -405.949374 
L 745.714589 -405.949374 
L 742.510026 -405.949374 
L 739.305462 -405.949374 
L 736.100898 -405.949374 
L 732.896334 -405.949374 
L 729.69177 -405.949374 
L 726.487206 -405.949374 
L 723.282642 -405.949374 
L 720.078078 -405.949374 
L 716.873514 -405.949374 
L 713.668951 -405.949374 
L 710.464387 -405.949374 
L 707.259823 -405.949374 
L 704.055259 -405.949374 
L 700.850695 -405.949374 
L 697.646131 -405.949374 
L 694.441567 -405.949374 
L 691.237003 -405.949374 
L 688.03244 -405.949374 
L 684.827876 -405.949374 
L 681.623312 -405.949374 
L 678.418748 -405.949374 
L 675.214184 -405.949374 
L 672.00962 -405.949374 
L 668.805056 -405.949374 
L 665.600492 -405.949374 
L 662.395928 -405.949374 
L 659.191365 -405.949374 
L 655.986801 -405.949374 
L 652.782237 -405.949374 
L 649.577673 -405.949374 
L 646.373109 -405.949374 
L 643.168545 -405.949374 
L 639.963981 -405.949374 
L 636.759417 -405.949374 
L 633.554854 -405.949374 
L 630.35029 -405.949374 
L 627.145726 -405.949374 
L 623.941162 -405.949374 
L 620.736598 -405.949374 
L 617.532034 -405.949374 
L 614.32747 -405.949374 
L 611.122906 -405.949374 
L 607.918343 -405.949374 
L 604.713779 -405.949374 
L 601.509215 -405.949374 
L 598.304651 -405.949374 
L 595.100087 -405.949374 
L 591.895523 -405.949374 
L 588.690959 -405.949374 
L 585.486395 -405.949374 
L 582.281831 -405.949374 
L 579.077268 -405.949374 
L 575.872704 -405.949374 
L 572.66814 -405.949374 
L 569.463576 -405.949374 
L 566.259012 -405.949374 
L 563.054448 -405.949374 
L 559.849884 -405.949374 
L 556.64532 -405.949374 
L 553.440757 -405.949374 
L 550.236193 -405.949374 
L 547.031629 -405.949374 
L 543.827065 -405.949374 
L 540.622501 -405.949374 
L 537.417937 -405.949374 
L 534.213373 -405.949374 
L 531.008809 -405.949374 
L 527.804245 -405.949374 
L 524.599682 -405.949374 
L 521.395118 -405.949374 
L 518.190554 -405.949374 
L 514.98599 -405.949374 
L 511.781426 -405.949374 
L 508.576862 -405.949374 
L 505.372298 -404.72733 
L 502.167734 -404.322904 
L 498.963171 -404.322904 
L 495.758607 -403.817611 
L 492.554043 -403.817611 
L 489.349479 -403.817611 
L 486.144915 -403.817611 
L 482.940351 -403.817611 
L 479.735787 -403.41056 
L 476.531223 -403.274578 
L 473.32666 -403.274578 
L 470.122096 -402.507645 
L 466.917532 -402.312769 
L 463.712968 -400.180667 
L 460.508404 -399.210714 
L 457.30384 -399.210714 
L 454.099276 -396.786783 
L 450.894712 -396.786783 
L 447.690148 -396.15919 
L 444.485585 -395.875399 
L 441.281021 -394.756245 
L 438.076457 -394.528709 
L 434.871893 -391.773089 
L 431.667329 -391.62283 
L 428.462765 -391.62283 
L 425.258201 -391.164912 
L 422.053637 -391.164912 
L 418.849074 -389.401974 
L 415.64451 -389.401974 
L 412.439946 -389.401974 
L 409.235382 -387.814596 
L 406.030818 -386.766177 
L 402.826254 -386.766177 
L 399.62169 -384.703983 
L 396.417126 -384.703983 
L 393.212562 -384.1825 
L 390.007999 -383.122803 
L 386.803435 -380.719622 
L 383.598871 -378.631367 
L 380.394307 -374.757895 
L 377.189743 -372.187632 
L 373.985179 -372.187632 
L 370.780615 -372.187632 
L 367.576051 -370.827305 
L 364.371488 -369.518096 
L 361.166924 -368.361296 
L 357.96236 -367.134117 
L 354.757796 -366.037495 
L 351.553232 -359.886946 
L 348.348668 -358.35091 
L 345.144104 -358.35091 
L 341.93954 -358.35091 
L 338.734977 -355.181674 
L 335.530413 -353.674481 
L 332.325849 -353.621644 
L 329.121285 -348.62698 
L 325.916721 -346.174173 
L 322.712157 -346.174173 
L 319.507593 -344.011893 
L 316.303029 -342.977763 
L 313.098465 -339.440213 
L 309.893902 -338.061402 
L 306.689338 -336.058696 
L 303.484774 -332.663785 
L 300.28021 -329.546563 
L 297.075646 -325.707432 
L 293.871082 -325.707432 
L 290.666518 -325.707432 
L 287.461954 -325.707432 
L 284.257391 -325.707432 
L 281.052827 -325.707432 
L 277.848263 -325.707432 
L 274.643699 -325.707432 
L 271.439135 -325.707432 
L 268.234571 -325.707432 
L 265.030007 -325.707432 
L 261.825443 -325.707432 
L 258.620879 -325.707432 
L 255.416316 -325.707432 
L 252.211752 -325.707432 
L 249.007188 -325.707432 
L 245.802624 -325.707432 
L 242.59806 -325.707432 
L 239.393496 -325.707432 
L 236.188932 -325.707432 
L 232.984368 -325.707432 
L 229.779805 -325.707432 
L 226.575241 -325.707432 
L 223.370677 -325.707432 
L 220.166113 -325.707432 
L 216.961549 -325.707432 
L 213.756985 -325.707432 
L 210.552421 -325.707432 
L 207.347857 -325.707432 
L 204.143294 -325.707432 
L 200.93873 -325.707432 
L 197.734166 -325.707432 
L 194.529602 -325.707432 
L 191.325038 -325.707432 
L 188.120474 -325.707432 
L 184.91591 -325.707432 
L 181.711346 -325.707432 
L 178.506782 -325.707432 
L 175.302219 -325.707432 
L 172.097655 -325.707432 
L 168.893091 -325.707432 
L 165.688527 -325.707432 
L 162.483963 -325.707432 
L 159.279399 -325.707432 
L 156.074835 -325.707432 
L 152.870271 -323.511587 
L 149.665708 -322.909877 
L 146.461144 -320.445315 
L 143.25658 -320.445315 
L 140.052016 -320.445315 
L 136.847452 -320.445315 
L 133.642888 -316.032175 
L 130.438324 -314.078088 
L 127.23376 -310.332343 
L 124.029196 -308.888496 
L 120.824633 -303.206942 
L 117.620069 -295.57983 
L 114.415505 -295.57983 
L 111.210941 -263.861821 
L 108.006377 -182.906104 
z
" style="stroke: #0000ff; stroke-opacity: 0.3"/>
    </defs>
    <g clip-path="url(#p5bf21b7d78)">
     <use xlink:href="#me5cde7b1aa" x="0" y="576" style="fill: #0000ff; fill-opacity: 0.3; stroke: #0000ff; stroke-opacity: 0.3"/>
    </g>
   </g>
   <g id="FillBetweenPolyCollection_3">
    <defs>
     <path id="m1aabb56e7d" d="M 108.006377 -208.579905 
L 108.006377 -63.36 
L 111.210941 -63.36 
L 114.415505 -63.36 
L 117.620069 -66.14911 
L 120.824633 -73.645625 
L 124.029196 -78.71704 
L 127.23376 -84.865547 
L 130.438324 -84.865547 
L 133.642888 -84.865547 
L 136.847452 -84.865547 
L 140.052016 -84.865547 
L 143.25658 -89.633535 
L 146.461144 -91.392495 
L 149.665708 -91.392495 
L 152.870271 -96.614979 
L 156.074835 -109.679918 
L 159.279399 -122.49003 
L 162.483963 -125.258173 
L 165.688527 -125.258173 
L 168.893091 -125.3506 
L 172.097655 -137.201191 
L 175.302219 -141.19866 
L 178.506782 -145.324108 
L 181.711346 -150.696562 
L 184.91591 -153.8981 
L 188.120474 -155.501956 
L 191.325038 -156.94419 
L 194.529602 -159.282047 
L 197.734166 -165.257743 
L 200.93873 -166.886231 
L 204.143294 -167.418132 
L 207.347857 -168.124697 
L 210.552421 -171.839183 
L 213.756985 -176.017357 
L 216.961549 -177.073082 
L 220.166113 -180.161189 
L 223.370677 -180.161189 
L 226.575241 -180.288956 
L 229.779805 -180.383249 
L 232.984368 -183.820938 
L 236.188932 -185.230033 
L 239.393496 -185.349092 
L 242.59806 -186.147047 
L 245.802624 -186.34069 
L 249.007188 -187.953557 
L 252.211752 -190.407627 
L 255.416316 -190.60814 
L 258.620879 -190.60814 
L 261.825443 -195.914564 
L 265.030007 -197.768879 
L 268.234571 -203.782608 
L 271.439135 -211.966328 
L 274.643699 -219.170878 
L 277.848263 -221.026762 
L 281.052827 -225.887779 
L 284.257391 -232.298844 
L 287.461954 -235.786063 
L 290.666518 -236.542042 
L 293.871082 -236.949481 
L 297.075646 -238.100095 
L 300.28021 -239.069441 
L 303.484774 -239.149372 
L 306.689338 -240.473997 
L 309.893902 -243.267136 
L 313.098465 -247.499445 
L 316.303029 -248.165491 
L 319.507593 -249.19995 
L 322.712157 -249.88347 
L 325.916721 -251.011976 
L 329.121285 -253.740139 
L 332.325849 -256.788471 
L 335.530413 -258.026172 
L 338.734977 -261.642952 
L 341.93954 -267.157191 
L 345.144104 -272.538067 
L 348.348668 -276.175195 
L 351.553232 -277.814885 
L 354.757796 -281.252164 
L 357.96236 -281.73761 
L 361.166924 -281.73761 
L 364.371488 -284.268047 
L 367.576051 -285.564832 
L 370.780615 -286.464144 
L 373.985179 -287.780771 
L 377.189743 -289.483647 
L 380.394307 -294.172357 
L 383.598871 -297.463467 
L 386.803435 -299.317855 
L 390.007999 -304.064206 
L 393.212562 -304.774227 
L 396.417126 -306.19461 
L 399.62169 -310.257523 
L 402.826254 -310.257523 
L 406.030818 -315.34962 
L 409.235382 -317.997493 
L 412.439946 -317.997493 
L 415.64451 -317.997493 
L 418.849074 -318.733184 
L 422.053637 -320.452198 
L 425.258201 -320.452198 
L 428.462765 -320.452198 
L 431.667329 -320.680585 
L 434.871893 -320.680585 
L 438.076457 -322.790124 
L 441.281021 -325.449034 
L 444.485585 -329.882971 
L 447.690148 -330.959626 
L 450.894712 -334.291564 
L 454.099276 -334.291564 
L 457.30384 -334.645892 
L 460.508404 -335.645751 
L 463.712968 -335.645751 
L 466.917532 -335.645751 
L 470.122096 -335.645751 
L 473.32666 -336.841652 
L 476.531223 -336.841652 
L 479.735787 -336.841652 
L 482.940351 -336.841652 
L 486.144915 -336.841652 
L 489.349479 -336.841652 
L 492.554043 -336.841652 
L 495.758607 -336.841652 
L 498.963171 -336.841652 
L 502.167734 -336.841652 
L 505.372298 -336.841652 
L 508.576862 -336.841652 
L 511.781426 -336.841652 
L 514.98599 -336.841652 
L 518.190554 -336.841652 
L 521.395118 -336.841652 
L 524.599682 -336.841652 
L 527.804245 -336.841652 
L 531.008809 -336.841652 
L 534.213373 -336.841652 
L 537.417937 -336.841652 
L 540.622501 -336.841652 
L 543.827065 -336.841652 
L 547.031629 -336.841652 
L 550.236193 -336.841652 
L 553.440757 -336.841652 
L 556.64532 -336.841652 
L 559.849884 -336.841652 
L 563.054448 -336.841652 
L 566.259012 -336.841652 
L 569.463576 -336.841652 
L 572.66814 -336.841652 
L 575.872704 -336.841652 
L 579.077268 -336.841652 
L 582.281831 -336.841652 
L 585.486395 -336.841652 
L 588.690959 -336.841652 
L 591.895523 -336.841652 
L 595.100087 -336.841652 
L 598.304651 -336.841652 
L 601.509215 -336.841652 
L 604.713779 -336.841652 
L 607.918343 -336.841652 
L 611.122906 -336.841652 
L 614.32747 -336.841652 
L 617.532034 -336.841652 
L 620.736598 -336.841652 
L 623.941162 -336.841652 
L 627.145726 -336.841652 
L 630.35029 -336.841652 
L 633.554854 -336.841652 
L 636.759417 -336.841652 
L 639.963981 -336.841652 
L 643.168545 -336.841652 
L 646.373109 -336.841652 
L 649.577673 -336.841652 
L 652.782237 -336.841652 
L 655.986801 -336.841652 
L 659.191365 -336.841652 
L 662.395928 -336.841652 
L 665.600492 -336.841652 
L 668.805056 -336.841652 
L 672.00962 -336.841652 
L 675.214184 -336.841652 
L 678.418748 -336.841652 
L 681.623312 -336.841652 
L 684.827876 -336.841652 
L 688.03244 -336.841652 
L 691.237003 -336.841652 
L 694.441567 -336.841652 
L 697.646131 -336.841652 
L 700.850695 -336.841652 
L 704.055259 -336.841652 
L 707.259823 -336.841652 
L 710.464387 -336.841652 
L 713.668951 -336.841652 
L 716.873514 -336.841652 
L 720.078078 -336.841652 
L 723.282642 -336.841652 
L 726.487206 -336.841652 
L 729.69177 -336.841652 
L 732.896334 -336.841652 
L 736.100898 -336.841652 
L 739.305462 -336.841652 
L 742.510026 -336.841652 
L 745.714589 -336.841652 
L 745.714589 -485.76 
L 745.714589 -485.76 
L 742.510026 -485.76 
L 739.305462 -485.76 
L 736.100898 -485.76 
L 732.896334 -485.76 
L 729.69177 -485.76 
L 726.487206 -485.76 
L 723.282642 -485.76 
L 720.078078 -485.76 
L 716.873514 -485.76 
L 713.668951 -485.76 
L 710.464387 -485.76 
L 707.259823 -485.76 
L 704.055259 -485.76 
L 700.850695 -485.76 
L 697.646131 -485.76 
L 694.441567 -485.7559 
L 691.237003 -485.399759 
L 688.03244 -485.399759 
L 684.827876 -485.111071 
L 681.623312 -484.919981 
L 678.418748 -484.919981 
L 675.214184 -484.919981 
L 672.00962 -484.919981 
L 668.805056 -484.919981 
L 665.600492 -484.919981 
L 662.395928 -484.919981 
L 659.191365 -484.919981 
L 655.986801 -484.919981 
L 652.782237 -484.919981 
L 649.577673 -484.919981 
L 646.373109 -484.919981 
L 643.168545 -484.919981 
L 639.963981 -484.919981 
L 636.759417 -484.919981 
L 633.554854 -484.919981 
L 630.35029 -484.919981 
L 627.145726 -484.919981 
L 623.941162 -484.919981 
L 620.736598 -484.919981 
L 617.532034 -484.36905 
L 614.32747 -484.36905 
L 611.122906 -484.36905 
L 607.918343 -484.36905 
L 604.713779 -484.36905 
L 601.509215 -482.991263 
L 598.304651 -482.991263 
L 595.100087 -482.991263 
L 591.895523 -482.991263 
L 588.690959 -482.991263 
L 585.486395 -482.991263 
L 582.281831 -482.991263 
L 579.077268 -482.991263 
L 575.872704 -482.532764 
L 572.66814 -482.371445 
L 569.463576 -480.421229 
L 566.259012 -480.161696 
L 563.054448 -479.67393 
L 559.849884 -479.513727 
L 556.64532 -479.513727 
L 553.440757 -479.513727 
L 550.236193 -479.513727 
L 547.031629 -479.513727 
L 543.827065 -479.513727 
L 540.622501 -479.513727 
L 537.417937 -479.513727 
L 534.213373 -479.513727 
L 531.008809 -479.513727 
L 527.804245 -479.513727 
L 524.599682 -479.513727 
L 521.395118 -479.342995 
L 518.190554 -477.056925 
L 514.98599 -477.056925 
L 511.781426 -477.056925 
L 508.576862 -477.056925 
L 505.372298 -477.056925 
L 502.167734 -477.056925 
L 498.963171 -477.056925 
L 495.758607 -477.056925 
L 492.554043 -477.056925 
L 489.349479 -477.056925 
L 486.144915 -477.056925 
L 482.940351 -477.056925 
L 479.735787 -477.056925 
L 476.531223 -477.056925 
L 473.32666 -477.056925 
L 470.122096 -477.056925 
L 466.917532 -477.056925 
L 463.712968 -475.852506 
L 460.508404 -474.922643 
L 457.30384 -468.215555 
L 454.099276 -468.154641 
L 450.894712 -468.154641 
L 447.690148 -468.154641 
L 444.485585 -468.154641 
L 441.281021 -468.154641 
L 438.076457 -468.154641 
L 434.871893 -467.749805 
L 431.667329 -467.749805 
L 428.462765 -467.667068 
L 425.258201 -466.043847 
L 422.053637 -463.270572 
L 418.849074 -461.794848 
L 415.64451 -461.794848 
L 412.439946 -461.794848 
L 409.235382 -461.794848 
L 406.030818 -461.794848 
L 402.826254 -461.794848 
L 399.62169 -461.794848 
L 396.417126 -461.794848 
L 393.212562 -461.794848 
L 390.007999 -461.794848 
L 386.803435 -461.794848 
L 383.598871 -461.794848 
L 380.394307 -461.794848 
L 377.189743 -461.794848 
L 373.985179 -461.794848 
L 370.780615 -461.794848 
L 367.576051 -461.794848 
L 364.371488 -461.794848 
L 361.166924 -461.794848 
L 357.96236 -461.794848 
L 354.757796 -461.794848 
L 351.553232 -461.794848 
L 348.348668 -461.680863 
L 345.144104 -460.557364 
L 341.93954 -459.138413 
L 338.734977 -458.794941 
L 335.530413 -456.940586 
L 332.325849 -456.526082 
L 329.121285 -455.175878 
L 325.916721 -452.176422 
L 322.712157 -449.304029 
L 319.507593 -448.051535 
L 316.303029 -448.051535 
L 313.098465 -447.55899 
L 309.893902 -446.351548 
L 306.689338 -446.351548 
L 303.484774 -444.990152 
L 300.28021 -444.990152 
L 297.075646 -444.990152 
L 293.871082 -444.990152 
L 290.666518 -443.579288 
L 287.461954 -442.976896 
L 284.257391 -440.499424 
L 281.052827 -439.125207 
L 277.848263 -438.508508 
L 274.643699 -438.508508 
L 271.439135 -438.508508 
L 268.234571 -438.508508 
L 265.030007 -438.508508 
L 261.825443 -437.320155 
L 258.620879 -435.624616 
L 255.416316 -435.624616 
L 252.211752 -434.642766 
L 249.007188 -434.484947 
L 245.802624 -434.484947 
L 242.59806 -432.150289 
L 239.393496 -429.970895 
L 236.188932 -427.913302 
L 232.984368 -422.919962 
L 229.779805 -414.362428 
L 226.575241 -406.177877 
L 223.370677 -401.677843 
L 220.166113 -388.276149 
L 216.961549 -379.638324 
L 213.756985 -367.958944 
L 210.552421 -351.998541 
L 207.347857 -329.262538 
L 204.143294 -314.127882 
L 200.93873 -302.102088 
L 197.734166 -287.015005 
L 194.529602 -280.943147 
L 191.325038 -276.170979 
L 188.120474 -271.468238 
L 184.91591 -268.759795 
L 181.711346 -264.268919 
L 178.506782 -262.919735 
L 175.302219 -257.774441 
L 172.097655 -250.530362 
L 168.893091 -242.724686 
L 165.688527 -240.928862 
L 162.483963 -237.525712 
L 159.279399 -231.092439 
L 156.074835 -227.602569 
L 152.870271 -223.298457 
L 149.665708 -223.298457 
L 146.461144 -223.298457 
L 143.25658 -223.298457 
L 140.052016 -223.298457 
L 136.847452 -223.298457 
L 133.642888 -223.298457 
L 130.438324 -223.298457 
L 127.23376 -223.298457 
L 124.029196 -223.298457 
L 120.824633 -223.298457 
L 117.620069 -223.298457 
L 114.415505 -223.298457 
L 111.210941 -223.298457 
L 108.006377 -208.579905 
z
" style="stroke: #ffa500; stroke-opacity: 0.3"/>
    </defs>
    <g clip-path="url(#p5bf21b7d78)">
     <use xlink:href="#m1aabb56e7d" x="0" y="576" style="fill: #ffa500; fill-opacity: 0.3; stroke: #ffa500; stroke-opacity: 0.3"/>
    </g>
   </g>
   <g id="matplotlib.axis_1">
    <g id="xtick_1">
     <g id="line2d_1">
      <path d="M 108 512.64 
L 108 69.12 
" clip-path="url(#p5bf21b7d78)" style="fill: none; stroke: #b0b0b0; stroke-opacity: 0.3; stroke-width: 0.8; stroke-linecap: square"/>
     </g>
     <g id="line2d_2">
      <defs>
       <path id="mf67ca22722" d="M 0 0 
L 0 3.5 
" style="stroke: #000000; stroke-width: 0.8"/>
      </defs>
      <g>
       <use xlink:href="#mf67ca22722" x="108" y="512.64" style="stroke: #000000; stroke-width: 0.8"/>
      </g>
     </g>
     <g id="text_1">
      <!-- 0 -->
      <g transform="translate(101.6375 534.836875) scale(0.2 -0.2)">
       <defs>
        <path id="DejaVuSans-30" d="M 2034 4250 
Q 1547 4250 1301 3770 
Q 1056 3291 1056 2328 
Q 1056 1369 1301 889 
Q 1547 409 2034 409 
Q 2525 409 2770 889 
Q 3016 1369 3016 2328 
Q 3016 3291 2770 3770 
Q 2525 4250 2034 4250 
z
M 2034 4750 
Q 2819 4750 3233 4129 
Q 3647 3509 3647 2328 
Q 3647 1150 3233 529 
Q 2819 -91 2034 -91 
Q 1250 -91 836 529 
Q 422 1150 422 2328 
Q 422 3509 836 4129 
Q 1250 4750 2034 4750 
z
" transform="scale(0.015625)"/>
       </defs>
       <use xlink:href="#DejaVuSans-30"/>
      </g>
     </g>
    </g>
    <g id="xtick_2">
     <g id="line2d_3">
      <path d="M 235.541642 512.64 
L 235.541642 69.12 
" clip-path="url(#p5bf21b7d78)" style="fill: none; stroke: #b0b0b0; stroke-opacity: 0.3; stroke-width: 0.8; stroke-linecap: square"/>
     </g>
     <g id="line2d_4">
      <g>
       <use xlink:href="#mf67ca22722" x="235.541642" y="512.64" style="stroke: #000000; stroke-width: 0.8"/>
      </g>
     </g>
     <g id="text_2">
      <!-- 20000 -->
      <g transform="translate(203.729142 534.836875) scale(0.2 -0.2)">
       <defs>
        <path id="DejaVuSans-32" d="M 1228 531 
L 3431 531 
L 3431 0 
L 469 0 
L 469 531 
Q 828 903 1448 1529 
Q 2069 2156 2228 2338 
Q 2531 2678 2651 2914 
Q 2772 3150 2772 3378 
Q 2772 3750 2511 3984 
Q 2250 4219 1831 4219 
Q 1534 4219 1204 4116 
Q 875 4013 500 3803 
L 500 4441 
Q 881 4594 1212 4672 
Q 1544 4750 1819 4750 
Q 2544 4750 2975 4387 
Q 3406 4025 3406 3419 
Q 3406 3131 3298 2873 
Q 3191 2616 2906 2266 
Q 2828 2175 2409 1742 
Q 1991 1309 1228 531 
z
" transform="scale(0.015625)"/>
       </defs>
       <use xlink:href="#DejaVuSans-32"/>
       <use xlink:href="#DejaVuSans-30" transform="translate(63.623047 0)"/>
       <use xlink:href="#DejaVuSans-30" transform="translate(127.246094 0)"/>
       <use xlink:href="#DejaVuSans-30" transform="translate(190.869141 0)"/>
       <use xlink:href="#DejaVuSans-30" transform="translate(254.492188 0)"/>
      </g>
     </g>
    </g>
    <g id="xtick_3">
     <g id="line2d_5">
      <path d="M 363.083285 512.64 
L 363.083285 69.12 
" clip-path="url(#p5bf21b7d78)" style="fill: none; stroke: #b0b0b0; stroke-opacity: 0.3; stroke-width: 0.8; stroke-linecap: square"/>
     </g>
     <g id="line2d_6">
      <g>
       <use xlink:href="#mf67ca22722" x="363.083285" y="512.64" style="stroke: #000000; stroke-width: 0.8"/>
      </g>
     </g>
     <g id="text_3">
      <!-- 40000 -->
      <g transform="translate(331.270785 534.836875) scale(0.2 -0.2)">
       <defs>
        <path id="DejaVuSans-34" d="M 2419 4116 
L 825 1625 
L 2419 1625 
L 2419 4116 
z
M 2253 4666 
L 3047 4666 
L 3047 1625 
L 3713 1625 
L 3713 1100 
L 3047 1100 
L 3047 0 
L 2419 0 
L 2419 1100 
L 313 1100 
L 313 1709 
L 2253 4666 
z
" transform="scale(0.015625)"/>
       </defs>
       <use xlink:href="#DejaVuSans-34"/>
       <use xlink:href="#DejaVuSans-30" transform="translate(63.623047 0)"/>
       <use xlink:href="#DejaVuSans-30" transform="translate(127.246094 0)"/>
       <use xlink:href="#DejaVuSans-30" transform="translate(190.869141 0)"/>
       <use xlink:href="#DejaVuSans-30" transform="translate(254.492188 0)"/>
      </g>
     </g>
    </g>
    <g id="xtick_4">
     <g id="line2d_7">
      <path d="M 490.624927 512.64 
L 490.624927 69.12 
" clip-path="url(#p5bf21b7d78)" style="fill: none; stroke: #b0b0b0; stroke-opacity: 0.3; stroke-width: 0.8; stroke-linecap: square"/>
     </g>
     <g id="line2d_8">
      <g>
       <use xlink:href="#mf67ca22722" x="490.624927" y="512.64" style="stroke: #000000; stroke-width: 0.8"/>
      </g>
     </g>
     <g id="text_4">
      <!-- 60000 -->
      <g transform="translate(458.812427 534.836875) scale(0.2 -0.2)">
       <defs>
        <path id="DejaVuSans-36" d="M 2113 2584 
Q 1688 2584 1439 2293 
Q 1191 2003 1191 1497 
Q 1191 994 1439 701 
Q 1688 409 2113 409 
Q 2538 409 2786 701 
Q 3034 994 3034 1497 
Q 3034 2003 2786 2293 
Q 2538 2584 2113 2584 
z
M 3366 4563 
L 3366 3988 
Q 3128 4100 2886 4159 
Q 2644 4219 2406 4219 
Q 1781 4219 1451 3797 
Q 1122 3375 1075 2522 
Q 1259 2794 1537 2939 
Q 1816 3084 2150 3084 
Q 2853 3084 3261 2657 
Q 3669 2231 3669 1497 
Q 3669 778 3244 343 
Q 2819 -91 2113 -91 
Q 1303 -91 875 529 
Q 447 1150 447 2328 
Q 447 3434 972 4092 
Q 1497 4750 2381 4750 
Q 2619 4750 2861 4703 
Q 3103 4656 3366 4563 
z
" transform="scale(0.015625)"/>
       </defs>
       <use xlink:href="#DejaVuSans-36"/>
       <use xlink:href="#DejaVuSans-30" transform="translate(63.623047 0)"/>
       <use xlink:href="#DejaVuSans-30" transform="translate(127.246094 0)"/>
       <use xlink:href="#DejaVuSans-30" transform="translate(190.869141 0)"/>
       <use xlink:href="#DejaVuSans-30" transform="translate(254.492188 0)"/>
      </g>
     </g>
    </g>
    <g id="xtick_5">
     <g id="line2d_9">
      <path d="M 618.16657 512.64 
L 618.16657 69.12 
" clip-path="url(#p5bf21b7d78)" style="fill: none; stroke: #b0b0b0; stroke-opacity: 0.3; stroke-width: 0.8; stroke-linecap: square"/>
     </g>
     <g id="line2d_10">
      <g>
       <use xlink:href="#mf67ca22722" x="618.16657" y="512.64" style="stroke: #000000; stroke-width: 0.8"/>
      </g>
     </g>
     <g id="text_5">
      <!-- 80000 -->
      <g transform="translate(586.35407 534.836875) scale(0.2 -0.2)">
       <defs>
        <path id="DejaVuSans-38" d="M 2034 2216 
Q 1584 2216 1326 1975 
Q 1069 1734 1069 1313 
Q 1069 891 1326 650 
Q 1584 409 2034 409 
Q 2484 409 2743 651 
Q 3003 894 3003 1313 
Q 3003 1734 2745 1975 
Q 2488 2216 2034 2216 
z
M 1403 2484 
Q 997 2584 770 2862 
Q 544 3141 544 3541 
Q 544 4100 942 4425 
Q 1341 4750 2034 4750 
Q 2731 4750 3128 4425 
Q 3525 4100 3525 3541 
Q 3525 3141 3298 2862 
Q 3072 2584 2669 2484 
Q 3125 2378 3379 2068 
Q 3634 1759 3634 1313 
Q 3634 634 3220 271 
Q 2806 -91 2034 -91 
Q 1263 -91 848 271 
Q 434 634 434 1313 
Q 434 1759 690 2068 
Q 947 2378 1403 2484 
z
M 1172 3481 
Q 1172 3119 1398 2916 
Q 1625 2713 2034 2713 
Q 2441 2713 2670 2916 
Q 2900 3119 2900 3481 
Q 2900 3844 2670 4047 
Q 2441 4250 2034 4250 
Q 1625 4250 1398 4047 
Q 1172 3844 1172 3481 
z
" transform="scale(0.015625)"/>
       </defs>
       <use xlink:href="#DejaVuSans-38"/>
       <use xlink:href="#DejaVuSans-30" transform="translate(63.623047 0)"/>
       <use xlink:href="#DejaVuSans-30" transform="translate(127.246094 0)"/>
       <use xlink:href="#DejaVuSans-30" transform="translate(190.869141 0)"/>
       <use xlink:href="#DejaVuSans-30" transform="translate(254.492188 0)"/>
      </g>
     </g>
    </g>
    <g id="xtick_6">
     <g id="line2d_11">
      <path d="M 745.708212 512.64 
L 745.708212 69.12 
" clip-path="url(#p5bf21b7d78)" style="fill: none; stroke: #b0b0b0; stroke-opacity: 0.3; stroke-width: 0.8; stroke-linecap: square"/>
     </g>
     <g id="line2d_12">
      <g>
       <use xlink:href="#mf67ca22722" x="745.708212" y="512.64" style="stroke: #000000; stroke-width: 0.8"/>
      </g>
     </g>
     <g id="text_6">
      <!-- 100000 -->
      <g transform="translate(707.533212 534.836875) scale(0.2 -0.2)">
       <defs>
        <path id="DejaVuSans-31" d="M 794 531 
L 1825 531 
L 1825 4091 
L 703 3866 
L 703 4441 
L 1819 4666 
L 2450 4666 
L 2450 531 
L 3481 531 
L 3481 0 
L 794 0 
L 794 531 
z
" transform="scale(0.015625)"/>
       </defs>
       <use xlink:href="#DejaVuSans-31"/>
       <use xlink:href="#DejaVuSans-30" transform="translate(63.623047 0)"/>
       <use xlink:href="#DejaVuSans-30" transform="translate(127.246094 0)"/>
       <use xlink:href="#DejaVuSans-30" transform="translate(190.869141 0)"/>
       <use xlink:href="#DejaVuSans-30" transform="translate(254.492188 0)"/>
       <use xlink:href="#DejaVuSans-30" transform="translate(318.115234 0)"/>
      </g>
     </g>
    </g>
    <g id="text_7">
     <!-- Timesteps -->
     <g transform="translate(381.230625 561.2325) scale(0.24 -0.24)">
      <defs>
       <path id="DejaVuSans-54" d="M -19 4666 
L 3928 4666 
L 3928 4134 
L 2272 4134 
L 2272 0 
L 1638 0 
L 1638 4134 
L -19 4134 
L -19 4666 
z
" transform="scale(0.015625)"/>
       <path id="DejaVuSans-69" d="M 603 3500 
L 1178 3500 
L 1178 0 
L 603 0 
L 603 3500 
z
M 603 4863 
L 1178 4863 
L 1178 4134 
L 603 4134 
L 603 4863 
z
" transform="scale(0.015625)"/>
       <path id="DejaVuSans-6d" d="M 3328 2828 
Q 3544 3216 3844 3400 
Q 4144 3584 4550 3584 
Q 5097 3584 5394 3201 
Q 5691 2819 5691 2113 
L 5691 0 
L 5113 0 
L 5113 2094 
Q 5113 2597 4934 2840 
Q 4756 3084 4391 3084 
Q 3944 3084 3684 2787 
Q 3425 2491 3425 1978 
L 3425 0 
L 2847 0 
L 2847 2094 
Q 2847 2600 2669 2842 
Q 2491 3084 2119 3084 
Q 1678 3084 1418 2786 
Q 1159 2488 1159 1978 
L 1159 0 
L 581 0 
L 581 3500 
L 1159 3500 
L 1159 2956 
Q 1356 3278 1631 3431 
Q 1906 3584 2284 3584 
Q 2666 3584 2933 3390 
Q 3200 3197 3328 2828 
z
" transform="scale(0.015625)"/>
       <path id="DejaVuSans-65" d="M 3597 1894 
L 3597 1613 
L 953 1613 
Q 991 1019 1311 708 
Q 1631 397 2203 397 
Q 2534 397 2845 478 
Q 3156 559 3463 722 
L 3463 178 
Q 3153 47 2828 -22 
Q 2503 -91 2169 -91 
Q 1331 -91 842 396 
Q 353 884 353 1716 
Q 353 2575 817 3079 
Q 1281 3584 2069 3584 
Q 2775 3584 3186 3129 
Q 3597 2675 3597 1894 
z
M 3022 2063 
Q 3016 2534 2758 2815 
Q 2500 3097 2075 3097 
Q 1594 3097 1305 2825 
Q 1016 2553 972 2059 
L 3022 2063 
z
" transform="scale(0.015625)"/>
       <path id="DejaVuSans-73" d="M 2834 3397 
L 2834 2853 
Q 2591 2978 2328 3040 
Q 2066 3103 1784 3103 
Q 1356 3103 1142 2972 
Q 928 2841 928 2578 
Q 928 2378 1081 2264 
Q 1234 2150 1697 2047 
L 1894 2003 
Q 2506 1872 2764 1633 
Q 3022 1394 3022 966 
Q 3022 478 2636 193 
Q 2250 -91 1575 -91 
Q 1294 -91 989 -36 
Q 684 19 347 128 
L 347 722 
Q 666 556 975 473 
Q 1284 391 1588 391 
Q 1994 391 2212 530 
Q 2431 669 2431 922 
Q 2431 1156 2273 1281 
Q 2116 1406 1581 1522 
L 1381 1569 
Q 847 1681 609 1914 
Q 372 2147 372 2553 
Q 372 3047 722 3315 
Q 1072 3584 1716 3584 
Q 2034 3584 2315 3537 
Q 2597 3491 2834 3397 
z
" transform="scale(0.015625)"/>
       <path id="DejaVuSans-74" d="M 1172 4494 
L 1172 3500 
L 2356 3500 
L 2356 3053 
L 1172 3053 
L 1172 1153 
Q 1172 725 1289 603 
Q 1406 481 1766 481 
L 2356 481 
L 2356 0 
L 1766 0 
Q 1100 0 847 248 
Q 594 497 594 1153 
L 594 3053 
L 172 3053 
L 172 3500 
L 594 3500 
L 594 4494 
L 1172 4494 
z
" transform="scale(0.015625)"/>
       <path id="DejaVuSans-70" d="M 1159 525 
L 1159 -1331 
L 581 -1331 
L 581 3500 
L 1159 3500 
L 1159 2969 
Q 1341 3281 1617 3432 
Q 1894 3584 2278 3584 
Q 2916 3584 3314 3078 
Q 3713 2572 3713 1747 
Q 3713 922 3314 415 
Q 2916 -91 2278 -91 
Q 1894 -91 1617 61 
Q 1341 213 1159 525 
z
M 3116 1747 
Q 3116 2381 2855 2742 
Q 2594 3103 2138 3103 
Q 1681 3103 1420 2742 
Q 1159 2381 1159 1747 
Q 1159 1113 1420 752 
Q 1681 391 2138 391 
Q 2594 391 2855 752 
Q 3116 1113 3116 1747 
z
" transform="scale(0.015625)"/>
      </defs>
      <use xlink:href="#DejaVuSans-54"/>
      <use xlink:href="#DejaVuSans-69" transform="translate(57.958984 0)"/>
      <use xlink:href="#DejaVuSans-6d" transform="translate(85.742188 0)"/>
      <use xlink:href="#DejaVuSans-65" transform="translate(183.154297 0)"/>
      <use xlink:href="#DejaVuSans-73" transform="translate(244.677734 0)"/>
      <use xlink:href="#DejaVuSans-74" transform="translate(296.777344 0)"/>
      <use xlink:href="#DejaVuSans-65" transform="translate(335.986328 0)"/>
      <use xlink:href="#DejaVuSans-70" transform="translate(397.509766 0)"/>
      <use xlink:href="#DejaVuSans-73" transform="translate(460.986328 0)"/>
     </g>
    </g>
   </g>
   <g id="matplotlib.axis_2">
    <g id="ytick_1">
     <g id="line2d_13">
      <path d="M 108 512.64 
L 777.6 512.64 
" clip-path="url(#p5bf21b7d78)" style="fill: none; stroke: #b0b0b0; stroke-opacity: 0.3; stroke-width: 0.8; stroke-linecap: square"/>
     </g>
     <g id="line2d_14">
      <defs>
       <path id="mfe8df4223f" d="M 0 0 
L -3.5 0 
" style="stroke: #000000; stroke-width: 0.8"/>
      </defs>
      <g>
       <use xlink:href="#mfe8df4223f" x="108" y="512.64" style="stroke: #000000; stroke-width: 0.8"/>
      </g>
     </g>
     <g id="text_8">
      <!-- 0.0 -->
      <g transform="translate(69.19375 520.238438) scale(0.2 -0.2)">
       <defs>
        <path id="DejaVuSans-2e" d="M 684 794 
L 1344 794 
L 1344 0 
L 684 0 
L 684 794 
z
" transform="scale(0.015625)"/>
       </defs>
       <use xlink:href="#DejaVuSans-30"/>
       <use xlink:href="#DejaVuSans-2e" transform="translate(63.623047 0)"/>
       <use xlink:href="#DejaVuSans-30" transform="translate(95.410156 0)"/>
      </g>
     </g>
    </g>
    <g id="ytick_2">
     <g id="line2d_15">
      <path d="M 108 424.577695 
L 777.6 424.577695 
" clip-path="url(#p5bf21b7d78)" style="fill: none; stroke: #b0b0b0; stroke-opacity: 0.3; stroke-width: 0.8; stroke-linecap: square"/>
     </g>
     <g id="line2d_16">
      <g>
       <use xlink:href="#mfe8df4223f" x="108" y="424.577695" style="stroke: #000000; stroke-width: 0.8"/>
      </g>
     </g>
     <g id="text_9">
      <!-- 0.2 -->
      <g transform="translate(69.19375 432.176133) scale(0.2 -0.2)">
       <use xlink:href="#DejaVuSans-30"/>
       <use xlink:href="#DejaVuSans-2e" transform="translate(63.623047 0)"/>
       <use xlink:href="#DejaVuSans-32" transform="translate(95.410156 0)"/>
      </g>
     </g>
    </g>
    <g id="ytick_3">
     <g id="line2d_17">
      <path d="M 108 336.515391 
L 777.6 336.515391 
" clip-path="url(#p5bf21b7d78)" style="fill: none; stroke: #b0b0b0; stroke-opacity: 0.3; stroke-width: 0.8; stroke-linecap: square"/>
     </g>
     <g id="line2d_18">
      <g>
       <use xlink:href="#mfe8df4223f" x="108" y="336.515391" style="stroke: #000000; stroke-width: 0.8"/>
      </g>
     </g>
     <g id="text_10">
      <!-- 0.4 -->
      <g transform="translate(69.19375 344.113828) scale(0.2 -0.2)">
       <use xlink:href="#DejaVuSans-30"/>
       <use xlink:href="#DejaVuSans-2e" transform="translate(63.623047 0)"/>
       <use xlink:href="#DejaVuSans-34" transform="translate(95.410156 0)"/>
      </g>
     </g>
    </g>
    <g id="ytick_4">
     <g id="line2d_19">
      <path d="M 108 248.453086 
L 777.6 248.453086 
" clip-path="url(#p5bf21b7d78)" style="fill: none; stroke: #b0b0b0; stroke-opacity: 0.3; stroke-width: 0.8; stroke-linecap: square"/>
     </g>
     <g id="line2d_20">
      <g>
       <use xlink:href="#mfe8df4223f" x="108" y="248.453086" style="stroke: #000000; stroke-width: 0.8"/>
      </g>
     </g>
     <g id="text_11">
      <!-- 0.6 -->
      <g transform="translate(69.19375 256.051523) scale(0.2 -0.2)">
       <use xlink:href="#DejaVuSans-30"/>
       <use xlink:href="#DejaVuSans-2e" transform="translate(63.623047 0)"/>
       <use xlink:href="#DejaVuSans-36" transform="translate(95.410156 0)"/>
      </g>
     </g>
    </g>
    <g id="ytick_5">
     <g id="line2d_21">
      <path d="M 108 160.390781 
L 777.6 160.390781 
" clip-path="url(#p5bf21b7d78)" style="fill: none; stroke: #b0b0b0; stroke-opacity: 0.3; stroke-width: 0.8; stroke-linecap: square"/>
     </g>
     <g id="line2d_22">
      <g>
       <use xlink:href="#mfe8df4223f" x="108" y="160.390781" style="stroke: #000000; stroke-width: 0.8"/>
      </g>
     </g>
     <g id="text_12">
      <!-- 0.8 -->
      <g transform="translate(69.19375 167.989219) scale(0.2 -0.2)">
       <use xlink:href="#DejaVuSans-30"/>
       <use xlink:href="#DejaVuSans-2e" transform="translate(63.623047 0)"/>
       <use xlink:href="#DejaVuSans-38" transform="translate(95.410156 0)"/>
      </g>
     </g>
    </g>
    <g id="ytick_6">
     <g id="line2d_23">
      <path d="M 108 72.328477 
L 777.6 72.328477 
" clip-path="url(#p5bf21b7d78)" style="fill: none; stroke: #b0b0b0; stroke-opacity: 0.3; stroke-width: 0.8; stroke-linecap: square"/>
     </g>
     <g id="line2d_24">
      <g>
       <use xlink:href="#mfe8df4223f" x="108" y="72.328477" style="stroke: #000000; stroke-width: 0.8"/>
      </g>
     </g>
     <g id="text_13">
      <!-- 1.0 -->
      <g transform="translate(69.19375 79.926914) scale(0.2 -0.2)">
       <use xlink:href="#DejaVuSans-31"/>
       <use xlink:href="#DejaVuSans-2e" transform="translate(63.623047 0)"/>
       <use xlink:href="#DejaVuSans-30" transform="translate(95.410156 0)"/>
      </g>
     </g>
    </g>
    <g id="text_14">
     <!-- Best Episode Reward (Running Max) -->
     <g transform="translate(60.2025 507.871875) rotate(-90) scale(0.24 -0.24)">
      <defs>
       <path id="DejaVuSans-42" d="M 1259 2228 
L 1259 519 
L 2272 519 
Q 2781 519 3026 730 
Q 3272 941 3272 1375 
Q 3272 1813 3026 2020 
Q 2781 2228 2272 2228 
L 1259 2228 
z
M 1259 4147 
L 1259 2741 
L 2194 2741 
Q 2656 2741 2882 2914 
Q 3109 3088 3109 3444 
Q 3109 3797 2882 3972 
Q 2656 4147 2194 4147 
L 1259 4147 
z
M 628 4666 
L 2241 4666 
Q 2963 4666 3353 4366 
Q 3744 4066 3744 3513 
Q 3744 3084 3544 2831 
Q 3344 2578 2956 2516 
Q 3422 2416 3680 2098 
Q 3938 1781 3938 1306 
Q 3938 681 3513 340 
Q 3088 0 2303 0 
L 628 0 
L 628 4666 
z
" transform="scale(0.015625)"/>
       <path id="DejaVuSans-20" transform="scale(0.015625)"/>
       <path id="DejaVuSans-45" d="M 628 4666 
L 3578 4666 
L 3578 4134 
L 1259 4134 
L 1259 2753 
L 3481 2753 
L 3481 2222 
L 1259 2222 
L 1259 531 
L 3634 531 
L 3634 0 
L 628 0 
L 628 4666 
z
" transform="scale(0.015625)"/>
       <path id="DejaVuSans-6f" d="M 1959 3097 
Q 1497 3097 1228 2736 
Q 959 2375 959 1747 
Q 959 1119 1226 758 
Q 1494 397 1959 397 
Q 2419 397 2687 759 
Q 2956 1122 2956 1747 
Q 2956 2369 2687 2733 
Q 2419 3097 1959 3097 
z
M 1959 3584 
Q 2709 3584 3137 3096 
Q 3566 2609 3566 1747 
Q 3566 888 3137 398 
Q 2709 -91 1959 -91 
Q 1206 -91 779 398 
Q 353 888 353 1747 
Q 353 2609 779 3096 
Q 1206 3584 1959 3584 
z
" transform="scale(0.015625)"/>
       <path id="DejaVuSans-64" d="M 2906 2969 
L 2906 4863 
L 3481 4863 
L 3481 0 
L 2906 0 
L 2906 525 
Q 2725 213 2448 61 
Q 2172 -91 1784 -91 
Q 1150 -91 751 415 
Q 353 922 353 1747 
Q 353 2572 751 3078 
Q 1150 3584 1784 3584 
Q 2172 3584 2448 3432 
Q 2725 3281 2906 2969 
z
M 947 1747 
Q 947 1113 1208 752 
Q 1469 391 1925 391 
Q 2381 391 2643 752 
Q 2906 1113 2906 1747 
Q 2906 2381 2643 2742 
Q 2381 3103 1925 3103 
Q 1469 3103 1208 2742 
Q 947 2381 947 1747 
z
" transform="scale(0.015625)"/>
       <path id="DejaVuSans-52" d="M 2841 2188 
Q 3044 2119 3236 1894 
Q 3428 1669 3622 1275 
L 4263 0 
L 3584 0 
L 2988 1197 
Q 2756 1666 2539 1819 
Q 2322 1972 1947 1972 
L 1259 1972 
L 1259 0 
L 628 0 
L 628 4666 
L 2053 4666 
Q 2853 4666 3247 4331 
Q 3641 3997 3641 3322 
Q 3641 2881 3436 2590 
Q 3231 2300 2841 2188 
z
M 1259 4147 
L 1259 2491 
L 2053 2491 
Q 2509 2491 2742 2702 
Q 2975 2913 2975 3322 
Q 2975 3731 2742 3939 
Q 2509 4147 2053 4147 
L 1259 4147 
z
" transform="scale(0.015625)"/>
       <path id="DejaVuSans-77" d="M 269 3500 
L 844 3500 
L 1563 769 
L 2278 3500 
L 2956 3500 
L 3675 769 
L 4391 3500 
L 4966 3500 
L 4050 0 
L 3372 0 
L 2619 2869 
L 1863 0 
L 1184 0 
L 269 3500 
z
" transform="scale(0.015625)"/>
       <path id="DejaVuSans-61" d="M 2194 1759 
Q 1497 1759 1228 1600 
Q 959 1441 959 1056 
Q 959 750 1161 570 
Q 1363 391 1709 391 
Q 2188 391 2477 730 
Q 2766 1069 2766 1631 
L 2766 1759 
L 2194 1759 
z
M 3341 1997 
L 3341 0 
L 2766 0 
L 2766 531 
Q 2569 213 2275 61 
Q 1981 -91 1556 -91 
Q 1019 -91 701 211 
Q 384 513 384 1019 
Q 384 1609 779 1909 
Q 1175 2209 1959 2209 
L 2766 2209 
L 2766 2266 
Q 2766 2663 2505 2880 
Q 2244 3097 1772 3097 
Q 1472 3097 1187 3025 
Q 903 2953 641 2809 
L 641 3341 
Q 956 3463 1253 3523 
Q 1550 3584 1831 3584 
Q 2591 3584 2966 3190 
Q 3341 2797 3341 1997 
z
" transform="scale(0.015625)"/>
       <path id="DejaVuSans-72" d="M 2631 2963 
Q 2534 3019 2420 3045 
Q 2306 3072 2169 3072 
Q 1681 3072 1420 2755 
Q 1159 2438 1159 1844 
L 1159 0 
L 581 0 
L 581 3500 
L 1159 3500 
L 1159 2956 
Q 1341 3275 1631 3429 
Q 1922 3584 2338 3584 
Q 2397 3584 2469 3576 
Q 2541 3569 2628 3553 
L 2631 2963 
z
" transform="scale(0.015625)"/>
       <path id="DejaVuSans-28" d="M 1984 4856 
Q 1566 4138 1362 3434 
Q 1159 2731 1159 2009 
Q 1159 1288 1364 580 
Q 1569 -128 1984 -844 
L 1484 -844 
Q 1016 -109 783 600 
Q 550 1309 550 2009 
Q 550 2706 781 3412 
Q 1013 4119 1484 4856 
L 1984 4856 
z
" transform="scale(0.015625)"/>
       <path id="DejaVuSans-75" d="M 544 1381 
L 544 3500 
L 1119 3500 
L 1119 1403 
Q 1119 906 1312 657 
Q 1506 409 1894 409 
Q 2359 409 2629 706 
Q 2900 1003 2900 1516 
L 2900 3500 
L 3475 3500 
L 3475 0 
L 2900 0 
L 2900 538 
Q 2691 219 2414 64 
Q 2138 -91 1772 -91 
Q 1169 -91 856 284 
Q 544 659 544 1381 
z
M 1991 3584 
L 1991 3584 
z
" transform="scale(0.015625)"/>
       <path id="DejaVuSans-6e" d="M 3513 2113 
L 3513 0 
L 2938 0 
L 2938 2094 
Q 2938 2591 2744 2837 
Q 2550 3084 2163 3084 
Q 1697 3084 1428 2787 
Q 1159 2491 1159 1978 
L 1159 0 
L 581 0 
L 581 3500 
L 1159 3500 
L 1159 2956 
Q 1366 3272 1645 3428 
Q 1925 3584 2291 3584 
Q 2894 3584 3203 3211 
Q 3513 2838 3513 2113 
z
" transform="scale(0.015625)"/>
       <path id="DejaVuSans-67" d="M 2906 1791 
Q 2906 2416 2648 2759 
Q 2391 3103 1925 3103 
Q 1463 3103 1205 2759 
Q 947 2416 947 1791 
Q 947 1169 1205 825 
Q 1463 481 1925 481 
Q 2391 481 2648 825 
Q 2906 1169 2906 1791 
z
M 3481 434 
Q 3481 -459 3084 -895 
Q 2688 -1331 1869 -1331 
Q 1566 -1331 1297 -1286 
Q 1028 -1241 775 -1147 
L 775 -588 
Q 1028 -725 1275 -790 
Q 1522 -856 1778 -856 
Q 2344 -856 2625 -561 
Q 2906 -266 2906 331 
L 2906 616 
Q 2728 306 2450 153 
Q 2172 0 1784 0 
Q 1141 0 747 490 
Q 353 981 353 1791 
Q 353 2603 747 3093 
Q 1141 3584 1784 3584 
Q 2172 3584 2450 3431 
Q 2728 3278 2906 2969 
L 2906 3500 
L 3481 3500 
L 3481 434 
z
" transform="scale(0.015625)"/>
       <path id="DejaVuSans-4d" d="M 628 4666 
L 1569 4666 
L 2759 1491 
L 3956 4666 
L 4897 4666 
L 4897 0 
L 4281 0 
L 4281 4097 
L 3078 897 
L 2444 897 
L 1241 4097 
L 1241 0 
L 628 0 
L 628 4666 
z
" transform="scale(0.015625)"/>
       <path id="DejaVuSans-78" d="M 3513 3500 
L 2247 1797 
L 3578 0 
L 2900 0 
L 1881 1375 
L 863 0 
L 184 0 
L 1544 1831 
L 300 3500 
L 978 3500 
L 1906 2253 
L 2834 3500 
L 3513 3500 
z
" transform="scale(0.015625)"/>
       <path id="DejaVuSans-29" d="M 513 4856 
L 1013 4856 
Q 1481 4119 1714 3412 
Q 1947 2706 1947 2009 
Q 1947 1309 1714 600 
Q 1481 -109 1013 -844 
L 513 -844 
Q 928 -128 1133 580 
Q 1338 1288 1338 2009 
Q 1338 2731 1133 3434 
Q 928 4138 513 4856 
z
" transform="scale(0.015625)"/>
      </defs>
      <use xlink:href="#DejaVuSans-42"/>
      <use xlink:href="#DejaVuSans-65" transform="translate(68.603516 0)"/>
      <use xlink:href="#DejaVuSans-73" transform="translate(130.126953 0)"/>
      <use xlink:href="#DejaVuSans-74" transform="translate(182.226562 0)"/>
      <use xlink:href="#DejaVuSans-20" transform="translate(221.435547 0)"/>
      <use xlink:href="#DejaVuSans-45" transform="translate(253.222656 0)"/>
      <use xlink:href="#DejaVuSans-70" transform="translate(316.40625 0)"/>
      <use xlink:href="#DejaVuSans-69" transform="translate(379.882812 0)"/>
      <use xlink:href="#DejaVuSans-73" transform="translate(407.666016 0)"/>
      <use xlink:href="#DejaVuSans-6f" transform="translate(459.765625 0)"/>
      <use xlink:href="#DejaVuSans-64" transform="translate(520.947266 0)"/>
      <use xlink:href="#DejaVuSans-65" transform="translate(584.423828 0)"/>
      <use xlink:href="#DejaVuSans-20" transform="translate(645.947266 0)"/>
      <use xlink:href="#DejaVuSans-52" transform="translate(677.734375 0)"/>
      <use xlink:href="#DejaVuSans-65" transform="translate(742.716797 0)"/>
      <use xlink:href="#DejaVuSans-77" transform="translate(804.240234 0)"/>
      <use xlink:href="#DejaVuSans-61" transform="translate(886.027344 0)"/>
      <use xlink:href="#DejaVuSans-72" transform="translate(947.306641 0)"/>
      <use xlink:href="#DejaVuSans-64" transform="translate(986.669922 0)"/>
      <use xlink:href="#DejaVuSans-20" transform="translate(1050.146484 0)"/>
      <use xlink:href="#DejaVuSans-28" transform="translate(1081.933594 0)"/>
      <use xlink:href="#DejaVuSans-52" transform="translate(1120.947266 0)"/>
      <use xlink:href="#DejaVuSans-75" transform="translate(1185.929688 0)"/>
      <use xlink:href="#DejaVuSans-6e" transform="translate(1249.308594 0)"/>
      <use xlink:href="#DejaVuSans-6e" transform="translate(1312.6875 0)"/>
      <use xlink:href="#DejaVuSans-69" transform="translate(1376.066406 0)"/>
      <use xlink:href="#DejaVuSans-6e" transform="translate(1403.849609 0)"/>
      <use xlink:href="#DejaVuSans-67" transform="translate(1467.228516 0)"/>
      <use xlink:href="#DejaVuSans-20" transform="translate(1530.705078 0)"/>
      <use xlink:href="#DejaVuSans-4d" transform="translate(1562.492188 0)"/>
      <use xlink:href="#DejaVuSans-61" transform="translate(1648.771484 0)"/>
      <use xlink:href="#DejaVuSans-78" transform="translate(1710.050781 0)"/>
      <use xlink:href="#DejaVuSans-29" transform="translate(1769.230469 0)"/>
     </g>
    </g>
   </g>
   <g id="line2d_25">
    <path d="M 108.006377 477.616201 
L 111.210941 471.466263 
L 114.415505 468.571572 
L 120.824633 465.064206 
L 124.029196 464.230317 
L 127.23376 463.704011 
L 130.438324 462.730523 
L 133.642888 462.111119 
L 136.847452 460.894484 
L 143.25658 459.102963 
L 146.461144 457.818971 
L 149.665708 457.252211 
L 152.870271 456.798466 
L 156.074835 455.13118 
L 159.279399 453.96761 
L 162.483963 453.559568 
L 165.688527 452.417686 
L 168.893091 451.657394 
L 175.302219 450.951542 
L 178.506782 450.229212 
L 184.91591 449.245403 
L 188.120474 448.904942 
L 191.325038 447.708621 
L 194.529602 446.842684 
L 200.93873 445.683602 
L 204.143294 445.220009 
L 207.347857 444.267057 
L 210.552421 443.538035 
L 213.756985 443.361783 
L 216.961549 442.697133 
L 220.166113 441.511028 
L 223.370677 440.506747 
L 229.779805 437.970828 
L 232.984368 436.921262 
L 239.393496 433.596937 
L 245.802624 431.721729 
L 249.007188 431.279701 
L 252.211752 431.184472 
L 255.416316 430.630937 
L 258.620879 429.891243 
L 261.825443 428.600262 
L 265.030007 427.530729 
L 268.234571 427.026877 
L 271.439135 425.905389 
L 274.643699 423.873567 
L 277.848263 421.095591 
L 281.052827 418.048386 
L 284.257391 415.760577 
L 287.461954 413.197834 
L 297.075646 407.438983 
L 300.28021 404.908982 
L 303.484774 402.629827 
L 306.689338 400.816701 
L 309.893902 398.779447 
L 313.098465 394.736859 
L 316.303029 392.620622 
L 319.507593 390.293372 
L 322.712157 387.168923 
L 329.121285 382.338042 
L 332.325849 380.437472 
L 335.530413 379.210485 
L 338.734977 378.23243 
L 341.93954 377.125422 
L 345.144104 374.67891 
L 348.348668 372.948173 
L 351.553232 370.822874 
L 354.757796 368.039605 
L 357.96236 367.251069 
L 361.166924 365.668309 
L 364.371488 363.732329 
L 367.576051 361.259408 
L 370.780615 359.942289 
L 373.985179 358.793911 
L 377.189743 356.566558 
L 383.598871 352.475035 
L 386.803435 350.164353 
L 390.007999 348.416974 
L 393.212562 347.169156 
L 406.030818 340.977864 
L 409.235382 339.783007 
L 412.439946 338.369978 
L 415.64451 337.203823 
L 418.849074 336.492555 
L 425.258201 334.375037 
L 428.462765 333.727637 
L 431.667329 332.508619 
L 434.871893 331.452442 
L 438.076457 330.568891 
L 441.281021 329.071296 
L 444.485585 328.635111 
L 447.690148 327.443797 
L 450.894712 325.353699 
L 454.099276 323.721249 
L 457.30384 321.671306 
L 466.917532 313.209141 
L 470.122096 311.664215 
L 473.32666 310.723613 
L 476.531223 308.390658 
L 482.940351 304.936404 
L 486.144915 303.329111 
L 489.349479 301.129947 
L 492.554043 298.691183 
L 495.758607 295.000112 
L 498.963171 293.178691 
L 502.167734 291.768341 
L 505.372298 289.293398 
L 508.576862 286.553809 
L 511.781426 284.147145 
L 514.98599 282.31198 
L 518.190554 280.004889 
L 521.395118 278.425781 
L 524.599682 276.693058 
L 527.804245 275.606633 
L 531.008809 272.590508 
L 537.417937 270.539382 
L 540.622501 269.19947 
L 543.827065 268.778456 
L 547.031629 267.288236 
L 550.236193 266.064894 
L 553.440757 264.663365 
L 556.64532 263.613307 
L 559.849884 261.936519 
L 563.054448 259.775358 
L 566.259012 258.961151 
L 569.463576 257.159459 
L 572.66814 256.293646 
L 575.872704 255.212023 
L 579.077268 254.560468 
L 582.281831 253.515145 
L 585.486395 252.665846 
L 588.690959 252.003608 
L 591.895523 251.712885 
L 595.100087 251.269316 
L 598.304651 251.015544 
L 604.713779 249.453611 
L 607.918343 247.761549 
L 611.122906 247.317973 
L 617.532034 246.965963 
L 620.736598 246.518483 
L 627.145726 246.463731 
L 630.35029 246.167395 
L 646.373109 246.167395 
L 649.577673 245.617351 
L 652.782237 245.252207 
L 662.395928 245.173091 
L 665.600492 244.661796 
L 668.805056 244.475375 
L 672.00962 244.411228 
L 678.418748 243.894465 
L 691.237003 243.158491 
L 697.646131 242.20248 
L 704.055259 242.106813 
L 723.282642 242.106813 
L 726.487206 241.815252 
L 742.510026 241.736093 
L 745.714589 241.603197 
L 745.714589 241.603197 
" clip-path="url(#p5bf21b7d78)" style="fill: none; stroke: #008000; stroke-width: 2; stroke-linecap: square"/>
   </g>
   <g id="line2d_26">
    <path d="M 108.006377 484.338496 
L 111.210941 463.936597 
L 114.415505 453.64824 
L 117.620069 445.841011 
L 120.824633 430.529044 
L 124.029196 422.400028 
L 127.23376 418.409914 
L 130.438324 410.430429 
L 133.642888 406.185829 
L 136.847452 400.546558 
L 140.052016 396.831176 
L 146.461144 394.62579 
L 149.665708 393.851002 
L 152.870271 390.616152 
L 156.074835 389.100522 
L 159.279399 387.371335 
L 162.483963 383.622097 
L 165.688527 380.610546 
L 168.893091 379.894531 
L 172.097655 379.545033 
L 175.302219 375.461272 
L 178.506782 372.685975 
L 181.711346 371.908044 
L 184.91591 369.853176 
L 191.325038 366.159872 
L 194.529602 363.640846 
L 197.734166 362.122067 
L 200.93873 358.890846 
L 204.143294 356.928677 
L 207.347857 355.839933 
L 210.552421 352.991259 
L 216.961549 349.908394 
L 220.166113 347.61218 
L 223.370677 344.891427 
L 226.575241 342.631642 
L 229.779805 340.930093 
L 232.984368 340.14468 
L 236.188932 339.533264 
L 239.393496 337.937103 
L 242.59806 334.745251 
L 245.802624 332.618517 
L 249.007188 329.795167 
L 261.825443 321.795616 
L 265.030007 320.869217 
L 268.234571 319.01504 
L 271.439135 317.921757 
L 277.848263 314.58858 
L 281.052827 312.728377 
L 284.257391 311.143018 
L 287.461954 309.238867 
L 290.666518 307.020541 
L 293.871082 304.962108 
L 297.075646 301.798032 
L 300.28021 299.378731 
L 303.484774 297.481971 
L 306.689338 296.38508 
L 309.893902 294.881897 
L 313.098465 292.600126 
L 319.507593 288.444373 
L 322.712157 287.450433 
L 325.916721 287.18637 
L 329.121285 286.701292 
L 332.325849 285.454836 
L 335.530413 284.634719 
L 338.734977 282.760182 
L 341.93954 280.317356 
L 345.144104 278.91427 
L 348.348668 277.207631 
L 351.553232 275.31791 
L 357.96236 271.119749 
L 361.166924 269.38374 
L 364.371488 268.415926 
L 367.576051 267.744905 
L 370.780615 265.910763 
L 377.189743 263.547183 
L 380.394307 262.391783 
L 383.598871 261.091896 
L 386.803435 259.34858 
L 390.007999 258.021857 
L 396.417126 254.584403 
L 406.030818 251.555664 
L 409.235382 250.453001 
L 412.439946 249.813681 
L 415.64451 248.631675 
L 418.849074 248.365966 
L 422.053637 247.500629 
L 431.667329 245.7653 
L 434.871893 245.450989 
L 438.076457 244.878563 
L 441.281021 243.954005 
L 447.690148 242.533812 
L 454.099276 241.647698 
L 457.30384 241.050472 
L 460.508404 240.773617 
L 463.712968 240.654409 
L 466.917532 240.063743 
L 470.122096 239.752829 
L 473.32666 239.214256 
L 476.531223 238.866009 
L 479.735787 238.724957 
L 482.940351 238.277865 
L 486.144915 237.980881 
L 489.349479 237.406935 
L 492.554043 237.085366 
L 502.167734 234.651097 
L 505.372298 234.13474 
L 508.576862 233.499792 
L 511.781426 232.683244 
L 514.98599 232.306906 
L 518.190554 232.260541 
L 521.395118 231.828173 
L 524.599682 231.006236 
L 527.804245 230.411378 
L 534.213373 229.638558 
L 537.417937 229.102365 
L 540.622501 228.253694 
L 547.031629 228.080423 
L 550.236193 227.771539 
L 559.849884 227.202746 
L 566.259012 226.252924 
L 569.463576 226.011338 
L 572.66814 226.011338 
L 582.281831 225.504763 
L 585.486395 225.504763 
L 588.690959 225.108592 
L 678.418748 225.045164 
L 684.827876 224.968296 
L 691.237003 224.968296 
L 697.646131 224.614201 
L 704.055259 224.414887 
L 720.078078 224.345609 
L 723.282642 224.194801 
L 726.487206 223.795603 
L 729.69177 223.795603 
L 732.896334 223.513558 
L 739.305462 223.426453 
L 745.714589 223.426453 
L 745.714589 223.426453 
" clip-path="url(#p5bf21b7d78)" style="fill: none; stroke: #0000ff; stroke-width: 2; stroke-linecap: square"/>
   </g>
   <g id="line2d_27">
    <path d="M 108.006377 460.090528 
L 111.210941 453.576288 
L 114.415505 451.766152 
L 117.620069 450.790888 
L 120.824633 449.49274 
L 124.029196 447.583058 
L 127.23376 444.411486 
L 130.438324 439.496337 
L 133.642888 437.652642 
L 136.847452 435.517608 
L 140.052016 433.68435 
L 143.25658 432.082288 
L 146.461144 429.568249 
L 149.665708 426.848827 
L 156.074835 419.967201 
L 159.279399 414.454355 
L 162.483963 410.086822 
L 165.688527 406.903816 
L 172.097655 395.57028 
L 175.302219 391.031042 
L 178.506782 387.593522 
L 181.711346 382.499125 
L 184.91591 378.559867 
L 191.325038 374.492246 
L 197.734166 367.093448 
L 200.93873 362.664901 
L 204.143294 360.566808 
L 207.347857 357.342509 
L 210.552421 352.380504 
L 213.756985 347.976953 
L 220.166113 340.538371 
L 223.370677 336.540847 
L 226.575241 332.303185 
L 229.779805 326.863952 
L 232.984368 320.829122 
L 236.188932 317.362474 
L 239.393496 314.746798 
L 242.59806 309.932515 
L 245.802624 305.808647 
L 249.007188 300.400668 
L 252.211752 296.490459 
L 261.825443 281.069331 
L 265.030007 274.741658 
L 271.439135 265.390695 
L 274.643699 259.976444 
L 277.848263 255.994992 
L 281.052827 250.674991 
L 284.257391 247.295904 
L 287.461954 242.335904 
L 290.666518 239.590053 
L 293.871082 235.091573 
L 297.075646 232.648796 
L 300.28021 228.431517 
L 303.484774 225.169519 
L 306.689338 221.716236 
L 309.893902 219.678486 
L 313.098465 216.622024 
L 316.303029 214.632078 
L 322.712157 209.065718 
L 325.916721 206.82514 
L 329.121285 204.158022 
L 332.325849 201.681999 
L 335.530413 200.212001 
L 338.734977 198.291519 
L 341.93954 195.611143 
L 345.144104 194.044122 
L 348.348668 192.04929 
L 351.553232 190.353142 
L 354.757796 189.146984 
L 357.96236 188.251242 
L 361.166924 187.056547 
L 364.371488 186.228817 
L 373.985179 184.34158 
L 377.189743 183.591461 
L 380.394307 182.18152 
L 383.598871 181.360088 
L 386.803435 180.946073 
L 390.007999 179.621688 
L 393.212562 179.303279 
L 399.62169 177.631903 
L 402.826254 177.287197 
L 406.030818 176.494442 
L 409.235382 176.089833 
L 412.439946 175.881908 
L 415.64451 174.851792 
L 425.258201 173.427705 
L 431.667329 172.145733 
L 434.871893 170.835056 
L 438.076457 169.948557 
L 441.281021 168.732001 
L 444.485585 167.698938 
L 447.690148 167.126926 
L 450.894712 166.016348 
L 454.099276 165.49308 
L 457.30384 165.324945 
L 460.508404 164.377398 
L 463.712968 163.962792 
L 466.917532 163.848085 
L 473.32666 163.268376 
L 476.531223 162.62575 
L 479.735787 161.561156 
L 486.144915 160.711006 
L 489.349479 160.148383 
L 492.554043 159.044023 
L 498.963171 158.428475 
L 505.372298 158.205817 
L 518.190554 157.472008 
L 521.395118 157.015935 
L 524.599682 156.947716 
L 527.804245 156.720352 
L 531.008809 156.720352 
L 540.622501 156.299826 
L 543.827065 155.935304 
L 547.031629 155.853705 
L 550.236193 155.627936 
L 553.440757 154.773089 
L 556.64532 154.490765 
L 563.054448 153.15303 
L 569.463576 152.988743 
L 572.66814 152.786348 
L 582.281831 152.727318 
L 585.486395 152.047763 
L 588.690959 151.857934 
L 591.895523 151.784095 
L 595.100087 150.869606 
L 598.304651 150.850945 
L 601.509215 150.575345 
L 604.713779 149.004947 
L 607.918343 148.136727 
L 614.32747 146.783573 
L 617.532034 145.822469 
L 620.736598 145.029623 
L 627.145726 143.938376 
L 633.554854 143.692496 
L 636.759417 143.330006 
L 639.963981 143.099305 
L 643.168545 143.099305 
L 646.373109 142.090712 
L 649.577673 141.432338 
L 652.782237 141.011972 
L 655.986801 140.906545 
L 659.191365 140.660558 
L 668.805056 140.355116 
L 672.00962 140.129572 
L 681.623312 140.005683 
L 684.827876 139.603158 
L 691.237003 139.535113 
L 694.441567 139.398462 
L 697.646131 139.39803 
L 704.055259 139.179662 
L 710.464387 139.095485 
L 739.305462 138.404246 
L 745.714589 138.404246 
L 745.714589 138.404246 
" clip-path="url(#p5bf21b7d78)" style="fill: none; stroke: #ffa500; stroke-width: 2; stroke-linecap: square"/>
   </g>
   <g id="patch_3">
    <path d="M 108 512.64 
L 108 69.12 
" style="fill: none; stroke: #000000; stroke-width: 0.8; stroke-linejoin: miter; stroke-linecap: square"/>
   </g>
   <g id="patch_4">
    <path d="M 777.6 512.64 
L 777.6 69.12 
" style="fill: none; stroke: #000000; stroke-width: 0.8; stroke-linejoin: miter; stroke-linecap: square"/>
   </g>
   <g id="patch_5">
    <path d="M 108 512.64 
L 777.6 512.64 
" style="fill: none; stroke: #000000; stroke-width: 0.8; stroke-linejoin: miter; stroke-linecap: square"/>
   </g>
   <g id="patch_6">
    <path d="M 108 69.12 
L 777.6 69.12 
" style="fill: none; stroke: #000000; stroke-width: 0.8; stroke-linejoin: miter; stroke-linecap: square"/>
   </g>
   <g id="legend_1">
    <g id="patch_7">
     <path d="M 399.35625 502.64 
L 763.6 502.64 
Q 767.6 502.64 767.6 498.64 
L 767.6 412.57125 
Q 767.6 408.57125 763.6 408.57125 
L 399.35625 408.57125 
Q 395.35625 408.57125 395.35625 412.57125 
L 395.35625 498.64 
Q 395.35625 502.64 399.35625 502.64 
z
" style="fill: #ffffff; opacity: 0.8; stroke: #cccccc; stroke-linejoin: miter"/>
    </g>
    <g id="line2d_28">
     <path d="M 403.35625 424.768125 
L 423.35625 424.768125 
L 443.35625 424.768125 
" style="fill: none; stroke: #008000; stroke-width: 2; stroke-linecap: square"/>
    </g>
    <g id="text_15">
     <!-- 9x9 Baseline (n=20) -->
     <g transform="translate(459.35625 431.768125) scale(0.2 -0.2)">
      <defs>
       <path id="DejaVuSans-39" d="M 703 97 
L 703 672 
Q 941 559 1184 500 
Q 1428 441 1663 441 
Q 2288 441 2617 861 
Q 2947 1281 2994 2138 
Q 2813 1869 2534 1725 
Q 2256 1581 1919 1581 
Q 1219 1581 811 2004 
Q 403 2428 403 3163 
Q 403 3881 828 4315 
Q 1253 4750 1959 4750 
Q 2769 4750 3195 4129 
Q 3622 3509 3622 2328 
Q 3622 1225 3098 567 
Q 2575 -91 1691 -91 
Q 1453 -91 1209 -44 
Q 966 3 703 97 
z
M 1959 2075 
Q 2384 2075 2632 2365 
Q 2881 2656 2881 3163 
Q 2881 3666 2632 3958 
Q 2384 4250 1959 4250 
Q 1534 4250 1286 3958 
Q 1038 3666 1038 3163 
Q 1038 2656 1286 2365 
Q 1534 2075 1959 2075 
z
" transform="scale(0.015625)"/>
       <path id="DejaVuSans-6c" d="M 603 4863 
L 1178 4863 
L 1178 0 
L 603 0 
L 603 4863 
z
" transform="scale(0.015625)"/>
       <path id="DejaVuSans-3d" d="M 678 2906 
L 4684 2906 
L 4684 2381 
L 678 2381 
L 678 2906 
z
M 678 1631 
L 4684 1631 
L 4684 1100 
L 678 1100 
L 678 1631 
z
" transform="scale(0.015625)"/>
      </defs>
      <use xlink:href="#DejaVuSans-39"/>
      <use xlink:href="#DejaVuSans-78" transform="translate(63.623047 0)"/>
      <use xlink:href="#DejaVuSans-39" transform="translate(122.802734 0)"/>
      <use xlink:href="#DejaVuSans-20" transform="translate(186.425781 0)"/>
      <use xlink:href="#DejaVuSans-42" transform="translate(218.212891 0)"/>
      <use xlink:href="#DejaVuSans-61" transform="translate(286.816406 0)"/>
      <use xlink:href="#DejaVuSans-73" transform="translate(348.095703 0)"/>
      <use xlink:href="#DejaVuSans-65" transform="translate(400.195312 0)"/>
      <use xlink:href="#DejaVuSans-6c" transform="translate(461.71875 0)"/>
      <use xlink:href="#DejaVuSans-69" transform="translate(489.501953 0)"/>
      <use xlink:href="#DejaVuSans-6e" transform="translate(517.285156 0)"/>
      <use xlink:href="#DejaVuSans-65" transform="translate(580.664062 0)"/>
      <use xlink:href="#DejaVuSans-20" transform="translate(642.1875 0)"/>
      <use xlink:href="#DejaVuSans-28" transform="translate(673.974609 0)"/>
      <use xlink:href="#DejaVuSans-6e" transform="translate(712.988281 0)"/>
      <use xlink:href="#DejaVuSans-3d" transform="translate(776.367188 0)"/>
      <use xlink:href="#DejaVuSans-32" transform="translate(860.15625 0)"/>
      <use xlink:href="#DejaVuSans-30" transform="translate(923.779297 0)"/>
      <use xlink:href="#DejaVuSans-29" transform="translate(987.402344 0)"/>
     </g>
    </g>
    <g id="line2d_29">
     <path d="M 403.35625 454.124375 
L 423.35625 454.124375 
L 443.35625 454.124375 
" style="fill: none; stroke: #0000ff; stroke-width: 2; stroke-linecap: square"/>
    </g>
    <g id="text_16">
     <!-- Transfer 5x5 to 9x9 (n=20) -->
     <g transform="translate(459.35625 461.124375) scale(0.2 -0.2)">
      <defs>
       <path id="DejaVuSans-66" d="M 2375 4863 
L 2375 4384 
L 1825 4384 
Q 1516 4384 1395 4259 
Q 1275 4134 1275 3809 
L 1275 3500 
L 2222 3500 
L 2222 3053 
L 1275 3053 
L 1275 0 
L 697 0 
L 697 3053 
L 147 3053 
L 147 3500 
L 697 3500 
L 697 3744 
Q 697 4328 969 4595 
Q 1241 4863 1831 4863 
L 2375 4863 
z
" transform="scale(0.015625)"/>
       <path id="DejaVuSans-35" d="M 691 4666 
L 3169 4666 
L 3169 4134 
L 1269 4134 
L 1269 2991 
Q 1406 3038 1543 3061 
Q 1681 3084 1819 3084 
Q 2600 3084 3056 2656 
Q 3513 2228 3513 1497 
Q 3513 744 3044 326 
Q 2575 -91 1722 -91 
Q 1428 -91 1123 -41 
Q 819 9 494 109 
L 494 744 
Q 775 591 1075 516 
Q 1375 441 1709 441 
Q 2250 441 2565 725 
Q 2881 1009 2881 1497 
Q 2881 1984 2565 2268 
Q 2250 2553 1709 2553 
Q 1456 2553 1204 2497 
Q 953 2441 691 2322 
L 691 4666 
z
" transform="scale(0.015625)"/>
      </defs>
      <use xlink:href="#DejaVuSans-54"/>
      <use xlink:href="#DejaVuSans-72" transform="translate(46.333984 0)"/>
      <use xlink:href="#DejaVuSans-61" transform="translate(87.447266 0)"/>
      <use xlink:href="#DejaVuSans-6e" transform="translate(148.726562 0)"/>
      <use xlink:href="#DejaVuSans-73" transform="translate(212.105469 0)"/>
      <use xlink:href="#DejaVuSans-66" transform="translate(264.205078 0)"/>
      <use xlink:href="#DejaVuSans-65" transform="translate(299.410156 0)"/>
      <use xlink:href="#DejaVuSans-72" transform="translate(360.933594 0)"/>
      <use xlink:href="#DejaVuSans-20" transform="translate(402.046875 0)"/>
      <use xlink:href="#DejaVuSans-35" transform="translate(433.833984 0)"/>
      <use xlink:href="#DejaVuSans-78" transform="translate(497.457031 0)"/>
      <use xlink:href="#DejaVuSans-35" transform="translate(556.636719 0)"/>
      <use xlink:href="#DejaVuSans-20" transform="translate(620.259766 0)"/>
      <use xlink:href="#DejaVuSans-74" transform="translate(652.046875 0)"/>
      <use xlink:href="#DejaVuSans-6f" transform="translate(691.255859 0)"/>
      <use xlink:href="#DejaVuSans-20" transform="translate(752.4375 0)"/>
      <use xlink:href="#DejaVuSans-39" transform="translate(784.224609 0)"/>
      <use xlink:href="#DejaVuSans-78" transform="translate(847.847656 0)"/>
      <use xlink:href="#DejaVuSans-39" transform="translate(907.027344 0)"/>
      <use xlink:href="#DejaVuSans-20" transform="translate(970.650391 0)"/>
      <use xlink:href="#DejaVuSans-28" transform="translate(1002.4375 0)"/>
      <use xlink:href="#DejaVuSans-6e" transform="translate(1041.451172 0)"/>
      <use xlink:href="#DejaVuSans-3d" transform="translate(1104.830078 0)"/>
      <use xlink:href="#DejaVuSans-32" transform="translate(1188.619141 0)"/>
      <use xlink:href="#DejaVuSans-30" transform="translate(1252.242188 0)"/>
      <use xlink:href="#DejaVuSans-29" transform="translate(1315.865234 0)"/>
     </g>
    </g>
    <g id="line2d_30">
     <path d="M 403.35625 483.480625 
L 423.35625 483.480625 
L 443.35625 483.480625 
" style="fill: none; stroke: #ffa500; stroke-width: 2; stroke-linecap: square"/>
    </g>
    <g id="text_17">
     <!-- Curriculum 5x5 to 9x9 (n=20) -->
     <g transform="translate(459.35625 490.480625) scale(0.2 -0.2)">
      <defs>
       <path id="DejaVuSans-43" d="M 4122 4306 
L 4122 3641 
Q 3803 3938 3442 4084 
Q 3081 4231 2675 4231 
Q 1875 4231 1450 3742 
Q 1025 3253 1025 2328 
Q 1025 1406 1450 917 
Q 1875 428 2675 428 
Q 3081 428 3442 575 
Q 3803 722 4122 1019 
L 4122 359 
Q 3791 134 3420 21 
Q 3050 -91 2638 -91 
Q 1578 -91 968 557 
Q 359 1206 359 2328 
Q 359 3453 968 4101 
Q 1578 4750 2638 4750 
Q 3056 4750 3426 4639 
Q 3797 4528 4122 4306 
z
" transform="scale(0.015625)"/>
       <path id="DejaVuSans-63" d="M 3122 3366 
L 3122 2828 
Q 2878 2963 2633 3030 
Q 2388 3097 2138 3097 
Q 1578 3097 1268 2742 
Q 959 2388 959 1747 
Q 959 1106 1268 751 
Q 1578 397 2138 397 
Q 2388 397 2633 464 
Q 2878 531 3122 666 
L 3122 134 
Q 2881 22 2623 -34 
Q 2366 -91 2075 -91 
Q 1284 -91 818 406 
Q 353 903 353 1747 
Q 353 2603 823 3093 
Q 1294 3584 2113 3584 
Q 2378 3584 2631 3529 
Q 2884 3475 3122 3366 
z
" transform="scale(0.015625)"/>
      </defs>
      <use xlink:href="#DejaVuSans-43"/>
      <use xlink:href="#DejaVuSans-75" transform="translate(69.824219 0)"/>
      <use xlink:href="#DejaVuSans-72" transform="translate(133.203125 0)"/>
      <use xlink:href="#DejaVuSans-72" transform="translate(172.566406 0)"/>
      <use xlink:href="#DejaVuSans-69" transform="translate(213.679688 0)"/>
      <use xlink:href="#DejaVuSans-63" transform="translate(241.462891 0)"/>
      <use xlink:href="#DejaVuSans-75" transform="translate(296.443359 0)"/>
      <use xlink:href="#DejaVuSans-6c" transform="translate(359.822266 0)"/>
      <use xlink:href="#DejaVuSans-75" transform="translate(387.605469 0)"/>
      <use xlink:href="#DejaVuSans-6d" transform="translate(450.984375 0)"/>
      <use xlink:href="#DejaVuSans-20" transform="translate(548.396484 0)"/>
      <use xlink:href="#DejaVuSans-35" transform="translate(580.183594 0)"/>
      <use xlink:href="#DejaVuSans-78" transform="translate(643.806641 0)"/>
      <use xlink:href="#DejaVuSans-35" transform="translate(702.986328 0)"/>
      <use xlink:href="#DejaVuSans-20" transform="translate(766.609375 0)"/>
      <use xlink:href="#DejaVuSans-74" transform="translate(798.396484 0)"/>
      <use xlink:href="#DejaVuSans-6f" transform="translate(837.605469 0)"/>
      <use xlink:href="#DejaVuSans-20" transform="translate(898.787109 0)"/>
      <use xlink:href="#DejaVuSans-39" transform="translate(930.574219 0)"/>
      <use xlink:href="#DejaVuSans-78" transform="translate(994.197266 0)"/>
      <use xlink:href="#DejaVuSans-39" transform="translate(1053.376953 0)"/>
      <use xlink:href="#DejaVuSans-20" transform="translate(1117 0)"/>
      <use xlink:href="#DejaVuSans-28" transform="translate(1148.787109 0)"/>
      <use xlink:href="#DejaVuSans-6e" transform="translate(1187.800781 0)"/>
      <use xlink:href="#DejaVuSans-3d" transform="translate(1251.179688 0)"/>
      <use xlink:href="#DejaVuSans-32" transform="translate(1334.96875 0)"/>
      <use xlink:href="#DejaVuSans-30" transform="translate(1398.591797 0)"/>
      <use xlink:href="#DejaVuSans-29" transform="translate(1462.214844 0)"/>
     </g>
    </g>
   </g>
  </g>
 </g>
 <defs>
  <clipPath id="p5bf21b7d78">
   <rect x="108" y="69.12" width="669.6" height="443.52"/>
  </clipPath>
 </defs>
</svg>
