<?xml version="1.0" encoding="utf-8" standalone="no"?>
<!DOCTYPE svg PUBLIC "-//W3C//DTD SVG 1.1//EN"
  "http://www.w3.org/Graphics/SVG/1.1/DTD/svg11.dtd">
<svg xmlns:xlink="http://www.w3.org/1999/xlink" width="864pt" height="576pt" viewBox="0 0 864 576" xmlns="http://www.w3.org/2000/svg" version="1.1">
 <metadata>
  <rdf:RDF xmlns:dc="http://purl.org/dc/elements/1.1/" xmlns:cc="http://creativecommons.org/ns#" xmlns:rdf="http://www.w3.org/1999/02/22-rdf-syntax-ns#">
   <cc:Work>
    <dc:type rdf:resource="http://purl.org/dc/dcmitype/StillImage"/>
    <dc:date>2025-08-11T15:50:51.597145</dc:date>
    <dc:format>image/svg+xml</dc:format>
    <dc:creator>
     <cc:Agent>
      <dc:title>Matplotlib v3.10.3, https://matplotlib.org/</dc:title>
     </cc:Agent>
    </dc:creator>
   </cc:Work>
  </rdf:RDF>
 </metadata>
 <defs>
  <style type="text/css">*{stroke-linejoin: round; stroke-linecap: butt}</style>
 </defs>
 <g id="figure_1">
  <g id="patch_1">
   <path d="M 0 576 
L 864 576 
L 864 0 
L 0 0 
z
" style="fill: #ffffff"/>
  </g>
  <g id="axes_1">
   <g id="patch_2">
    <path d="M 108 512.64 
L 777.6 512.64 
L 777.6 69.12 
L 108 69.12 
z
" style="fill: #ffffff"/>
   </g>
   <g id="FillBetweenPolyCollection_1">
    <defs>
     <path id="mcc7c2b3746" d="M 108.006377 -152.52599 
L 108.006377 -63.36 
L 111.210941 -63.629182 
L 114.415505 -63.89184 
L 117.620069 -64.529288 
L 120.824633 -69.154384 
L 124.029196 -74.247656 
L 127.23376 -81.050656 
L 130.438324 -91.590298 
L 133.642888 -92.171531 
L 136.847452 -94.024312 
L 140.052016 -94.958058 
L 143.25658 -101.321542 
L 146.461144 -101.622251 
L 149.665708 -108.846643 
L 152.870271 -110.211635 
L 156.074835 -111.569596 
L 159.279399 -114.815108 
L 162.483963 -118.258589 
L 165.688527 -120.164424 
L 168.893091 -120.264545 
L 172.097655 -122.306446 
L 175.302219 -122.306446 
L 178.506782 -122.306446 
L 181.711346 -122.306446 
L 184.91591 -125.311263 
L 188.120474 -127.564994 
L 191.325038 -127.564994 
L 194.529602 -131.752918 
L 197.734166 -133.167295 
L 200.93873 -133.738278 
L 204.143294 -135.05881 
L 207.347857 -135.805434 
L 210.552421 -136.618768 
L 213.756985 -136.618768 
L 216.961549 -137.192839 
L 220.166113 -137.342722 
L 223.370677 -139.055571 
L 226.575241 -139.954721 
L 229.779805 -139.954721 
L 232.984368 -139.954721 
L 236.188932 -140.786629 
L 239.393496 -142.920688 
L 242.59806 -146.622054 
L 245.802624 -147.535537 
L 249.007188 -149.607465 
L 252.211752 -153.097966 
L 255.416316 -154.218064 
L 258.620879 -155.6741 
L 261.825443 -156.158113 
L 265.030007 -157.049791 
L 268.234571 -160.948942 
L 271.439135 -164.006295 
L 274.643699 -164.157953 
L 277.848263 -165.398867 
L 281.052827 -167.970187 
L 284.257391 -169.072753 
L 287.461954 -180.392642 
L 290.666518 -185.10897 
L 293.871082 -187.054921 
L 297.075646 -187.932176 
L 300.28021 -192.866259 
L 303.484774 -197.558745 
L 306.689338 -200.405638 
L 309.893902 -201.688429 
L 313.098465 -201.688429 
L 316.303029 -201.688429 
L 319.507593 -203.238506 
L 322.712157 -204.017251 
L 325.916721 -205.143394 
L 329.121285 -205.143394 
L 332.325849 -205.143394 
L 335.530413 -205.864327 
L 338.734977 -209.433448 
L 341.93954 -209.433448 
L 345.144104 -213.726103 
L 348.348668 -214.42392 
L 351.553232 -214.42392 
L 354.757796 -214.888399 
L 357.96236 -218.293128 
L 361.166924 -220.734891 
L 364.371488 -225.046722 
L 367.576051 -225.046722 
L 370.780615 -227.595786 
L 373.985179 -245.835606 
L 377.189743 -255.718131 
L 380.394307 -257.387502 
L 383.598871 -259.322082 
L 386.803435 -259.322082 
L 390.007999 -259.385767 
L 393.212562 -259.765746 
L 396.417126 -259.765746 
L 399.62169 -261.862136 
L 402.826254 -261.943466 
L 406.030818 -263.118682 
L 409.235382 -263.118682 
L 412.439946 -263.118682 
L 415.64451 -263.172858 
L 418.849074 -263.172858 
L 422.053637 -266.304494 
L 425.258201 -272.170444 
L 428.462765 -276.846114 
L 431.667329 -276.846114 
L 434.871893 -276.846114 
L 438.076457 -276.846114 
L 441.281021 -276.846114 
L 444.485585 -278.733478 
L 447.690148 -278.733478 
L 450.894712 -278.733478 
L 454.099276 -278.733478 
L 457.30384 -278.733478 
L 460.508404 -278.733478 
L 463.712968 -278.733478 
L 466.917532 -278.733478 
L 470.122096 -278.733478 
L 473.32666 -278.733478 
L 476.531223 -278.733478 
L 479.735787 -278.733478 
L 482.940351 -278.733478 
L 486.144915 -278.733478 
L 489.349479 -278.733478 
L 492.554043 -278.733478 
L 495.758607 -278.733478 
L 498.963171 -280.887903 
L 502.167734 -281.080062 
L 505.372298 -283.774327 
L 508.576862 -286.247481 
L 511.781426 -286.247481 
L 514.98599 -291.843613 
L 518.190554 -297.067642 
L 521.395118 -300.442777 
L 524.599682 -305.370663 
L 527.804245 -306.661303 
L 531.008809 -306.661303 
L 534.213373 -312.528322 
L 537.417937 -315.940119 
L 540.622501 -321.962523 
L 543.827065 -321.962523 
L 547.031629 -322.131909 
L 550.236193 -323.83387 
L 553.440757 -323.83387 
L 556.64532 -323.879823 
L 559.849884 -323.879823 
L 563.054448 -323.879823 
L 566.259012 -323.879823 
L 569.463576 -324.205128 
L 572.66814 -324.205128 
L 575.872704 -326.003537 
L 579.077268 -326.003537 
L 582.281831 -326.003537 
L 585.486395 -326.813569 
L 588.690959 -326.813569 
L 591.895523 -328.601166 
L 595.100087 -329.142169 
L 598.304651 -329.142169 
L 601.509215 -329.142169 
L 604.713779 -329.142169 
L 607.918343 -329.142169 
L 611.122906 -329.142169 
L 614.32747 -329.142169 
L 617.532034 -329.142169 
L 620.736598 -329.142169 
L 623.941162 -329.142169 
L 627.145726 -329.142169 
L 630.35029 -329.142169 
L 633.554854 -329.142169 
L 636.759417 -329.142169 
L 639.963981 -329.142169 
L 643.168545 -329.142169 
L 646.373109 -329.142169 
L 649.577673 -329.142169 
L 652.782237 -330.697483 
L 655.986801 -331.751135 
L 659.191365 -331.751135 
L 662.395928 -331.751135 
L 665.600492 -331.751135 
L 668.805056 -331.751135 
L 672.00962 -331.751135 
L 675.214184 -331.751135 
L 678.418748 -331.751135 
L 681.623312 -331.751135 
L 684.827876 -331.751135 
L 688.03244 -331.751135 
L 691.237003 -331.751135 
L 694.441567 -331.751135 
L 697.646131 -331.751135 
L 700.850695 -331.751135 
L 704.055259 -331.751135 
L 707.259823 -331.751135 
L 710.464387 -331.751135 
L 713.668951 -331.751135 
L 716.873514 -331.751135 
L 720.078078 -331.751135 
L 723.282642 -331.751135 
L 726.487206 -331.751135 
L 729.69177 -331.751135 
L 732.896334 -331.751135 
L 736.100898 -331.751135 
L 739.305462 -331.751135 
L 742.510026 -331.751135 
L 745.714589 -331.751135 
L 745.714589 -485.76 
L 745.714589 -485.76 
L 742.510026 -485.76 
L 739.305462 -485.635771 
L 736.100898 -485.635771 
L 732.896334 -485.635771 
L 729.69177 -485.635771 
L 726.487206 -485.635771 
L 723.282642 -485.635771 
L 720.078078 -485.635771 
L 716.873514 -485.635771 
L 713.668951 -485.635771 
L 710.464387 -485.635771 
L 707.259823 -485.635771 
L 704.055259 -485.635771 
L 700.850695 -485.635771 
L 697.646131 -485.635771 
L 694.441567 -485.635771 
L 691.237003 -485.635771 
L 688.03244 -485.635771 
L 684.827876 -485.635771 
L 681.623312 -485.635771 
L 678.418748 -485.635771 
L 675.214184 -485.635771 
L 672.00962 -485.635771 
L 668.805056 -485.635771 
L 665.600492 -485.635771 
L 662.395928 -485.635771 
L 659.191365 -485.635771 
L 655.986801 -485.635771 
L 652.782237 -485.635771 
L 649.577673 -485.635771 
L 646.373109 -485.635771 
L 643.168545 -485.635771 
L 639.963981 -485.635771 
L 636.759417 -485.635771 
L 633.554854 -485.635771 
L 630.35029 -485.635771 
L 627.145726 -485.635771 
L 623.941162 -485.635771 
L 620.736598 -485.28917 
L 617.532034 -484.901671 
L 614.32747 -484.901671 
L 611.122906 -484.239717 
L 607.918343 -483.816306 
L 604.713779 -483.567377 
L 601.509215 -483.567377 
L 598.304651 -483.567377 
L 595.100087 -483.567377 
L 591.895523 -483.567377 
L 588.690959 -483.567377 
L 585.486395 -483.565571 
L 582.281831 -479.623944 
L 579.077268 -479.561742 
L 575.872704 -478.121691 
L 572.66814 -478.121691 
L 569.463576 -478.121691 
L 566.259012 -478.121691 
L 563.054448 -478.121691 
L 559.849884 -478.121691 
L 556.64532 -477.863104 
L 553.440757 -477.410426 
L 550.236193 -477.410426 
L 547.031629 -477.410426 
L 543.827065 -477.410426 
L 540.622501 -477.410426 
L 537.417937 -477.410426 
L 534.213373 -477.352365 
L 531.008809 -477.352365 
L 527.804245 -477.352365 
L 524.599682 -477.352365 
L 521.395118 -476.585887 
L 518.190554 -474.564758 
L 514.98599 -474.149785 
L 511.781426 -473.158599 
L 508.576862 -473.158599 
L 505.372298 -472.209449 
L 502.167734 -472.018049 
L 498.963171 -469.91615 
L 495.758607 -469.596277 
L 492.554043 -469.596277 
L 489.349479 -468.963694 
L 486.144915 -467.956183 
L 482.940351 -467.956183 
L 479.735787 -467.956183 
L 476.531223 -467.956183 
L 473.32666 -464.790452 
L 470.122096 -464.722199 
L 466.917532 -463.423009 
L 463.712968 -462.594093 
L 460.508404 -462.594093 
L 457.30384 -462.594093 
L 454.099276 -461.24581 
L 450.894712 -461.24581 
L 447.690148 -459.246542 
L 444.485585 -456.470417 
L 441.281021 -452.950235 
L 438.076457 -452.465706 
L 434.871893 -450.525526 
L 431.667329 -450.525526 
L 428.462765 -448.772333 
L 425.258201 -447.85549 
L 422.053637 -445.360333 
L 418.849074 -445.360333 
L 415.64451 -445.360333 
L 412.439946 -443.81948 
L 409.235382 -443.81948 
L 406.030818 -443.546384 
L 402.826254 -442.467587 
L 399.62169 -442.067714 
L 396.417126 -441.777466 
L 393.212562 -440.272843 
L 390.007999 -439.616155 
L 386.803435 -438.755689 
L 383.598871 -433.999864 
L 380.394307 -426.353789 
L 377.189743 -421.16219 
L 373.985179 -416.892313 
L 370.780615 -412.553358 
L 367.576051 -408.848534 
L 364.371488 -405.445625 
L 361.166924 -404.653152 
L 357.96236 -402.525608 
L 354.757796 -401.02453 
L 351.553232 -398.12888 
L 348.348668 -398.12888 
L 345.144104 -397.049105 
L 341.93954 -394.141466 
L 338.734977 -389.214569 
L 335.530413 -382.817154 
L 332.325849 -369.119827 
L 329.121285 -357.713801 
L 325.916721 -346.438225 
L 322.712157 -338.652822 
L 319.507593 -330.656908 
L 316.303029 -319.322253 
L 313.098465 -314.177054 
L 309.893902 -306.074996 
L 306.689338 -290.53348 
L 303.484774 -288.107145 
L 300.28021 -277.059622 
L 297.075646 -270.861333 
L 293.871082 -268.103318 
L 290.666518 -263.970454 
L 287.461954 -254.080196 
L 284.257391 -246.886715 
L 281.052827 -241.425386 
L 277.848263 -234.258244 
L 274.643699 -223.527959 
L 271.439135 -219.172033 
L 268.234571 -210.601686 
L 265.030007 -206.009481 
L 261.825443 -205.552096 
L 258.620879 -205.552096 
L 255.416316 -205.031604 
L 252.211752 -201.978507 
L 249.007188 -195.72679 
L 245.802624 -193.283621 
L 242.59806 -189.373566 
L 239.393496 -188.031163 
L 236.188932 -188.01793 
L 232.984368 -181.933876 
L 229.779805 -178.284865 
L 226.575241 -177.312435 
L 223.370677 -173.459222 
L 220.166113 -172.580428 
L 216.961549 -169.779492 
L 213.756985 -169.248784 
L 210.552421 -168.434879 
L 207.347857 -165.379097 
L 204.143294 -164.570429 
L 200.93873 -163.18253 
L 197.734166 -161.879853 
L 194.529602 -161.695726 
L 191.325038 -161.695726 
L 188.120474 -161.695726 
L 184.91591 -161.695726 
L 181.711346 -161.695726 
L 178.506782 -161.695726 
L 175.302219 -161.069757 
L 172.097655 -160.735658 
L 168.893091 -160.735658 
L 165.688527 -160.735658 
L 162.483963 -160.735658 
L 159.279399 -160.735658 
L 156.074835 -160.735658 
L 152.870271 -160.735658 
L 149.665708 -160.735658 
L 146.461144 -160.477495 
L 143.25658 -159.398381 
L 140.052016 -158.093899 
L 136.847452 -157.822685 
L 133.642888 -157.822685 
L 130.438324 -157.822685 
L 127.23376 -157.822685 
L 124.029196 -157.822685 
L 120.824633 -157.76748 
L 117.620069 -157.76748 
L 114.415505 -157.76748 
L 111.210941 -157.76748 
L 108.006377 -152.52599 
z
" style="stroke: #008000; stroke-opacity: 0.3"/>
    </defs>
    <g clip-path="url(#p23f4d63ce9)">
     <use xlink:href="#mcc7c2b3746" x="0" y="576" style="fill: #008000; fill-opacity: 0.3; stroke: #008000; stroke-opacity: 0.3"/>
    </g>
   </g>
   <g id="FillBetweenPolyCollection_2">
    <defs>
     <path id="m2e14da907b" d="M 108.006377 -247.201759 
L 108.006377 -63.36 
L 111.210941 -63.36 
L 114.415505 -64.567492 
L 117.620069 -64.567492 
L 120.824633 -64.567492 
L 124.029196 -69.964805 
L 127.23376 -81.699727 
L 130.438324 -81.699727 
L 133.642888 -81.783074 
L 136.847452 -87.366265 
L 140.052016 -100.531871 
L 143.25658 -130.596189 
L 146.461144 -147.838572 
L 149.665708 -159.480003 
L 152.870271 -166.390353 
L 156.074835 -166.595348 
L 159.279399 -166.595348 
L 162.483963 -169.344114 
L 165.688527 -170.696937 
L 168.893091 -179.731901 
L 172.097655 -179.731901 
L 175.302219 -179.731901 
L 178.506782 -180.861641 
L 181.711346 -186.536632 
L 184.91591 -188.38502 
L 188.120474 -190.56307 
L 191.325038 -194.39461 
L 194.529602 -194.39461 
L 197.734166 -196.714949 
L 200.93873 -204.978207 
L 204.143294 -221.103594 
L 207.347857 -231.325276 
L 210.552421 -241.708828 
L 213.756985 -247.65115 
L 216.961549 -252.9226 
L 220.166113 -255.651988 
L 223.370677 -255.651988 
L 226.575241 -256.089676 
L 229.779805 -258.73634 
L 232.984368 -263.24663 
L 236.188932 -264.631551 
L 239.393496 -265.156116 
L 242.59806 -267.628235 
L 245.802624 -268.010551 
L 249.007188 -268.010551 
L 252.211752 -268.707673 
L 255.416316 -268.707673 
L 258.620879 -268.707673 
L 261.825443 -268.707673 
L 265.030007 -269.858032 
L 268.234571 -270.367342 
L 271.439135 -270.367342 
L 274.643699 -270.518907 
L 277.848263 -270.518907 
L 281.052827 -276.824253 
L 284.257391 -278.93008 
L 287.461954 -278.93008 
L 290.666518 -281.372741 
L 293.871082 -290.499569 
L 297.075646 -296.081079 
L 300.28021 -297.165101 
L 303.484774 -297.165101 
L 306.689338 -297.165101 
L 309.893902 -297.165101 
L 313.098465 -297.165101 
L 316.303029 -297.165101 
L 319.507593 -297.165101 
L 322.712157 -297.165101 
L 325.916721 -300.490417 
L 329.121285 -300.490417 
L 332.325849 -300.490417 
L 335.530413 -300.490417 
L 338.734977 -300.490417 
L 341.93954 -300.54793 
L 345.144104 -302.651255 
L 348.348668 -302.966429 
L 351.553232 -304.83744 
L 354.757796 -304.857996 
L 357.96236 -310.646545 
L 361.166924 -312.444693 
L 364.371488 -312.444693 
L 367.576051 -312.444693 
L 370.780615 -315.226239 
L 373.985179 -315.226239 
L 377.189743 -315.226239 
L 380.394307 -315.226239 
L 383.598871 -315.226239 
L 386.803435 -315.226239 
L 390.007999 -316.498665 
L 393.212562 -317.538684 
L 396.417126 -317.538684 
L 399.62169 -317.538684 
L 402.826254 -317.538684 
L 406.030818 -317.538684 
L 409.235382 -317.538684 
L 412.439946 -317.538684 
L 415.64451 -317.538684 
L 418.849074 -317.538684 
L 422.053637 -319.148386 
L 425.258201 -319.148386 
L 428.462765 -319.148386 
L 431.667329 -319.148386 
L 434.871893 -319.148386 
L 438.076457 -319.148386 
L 441.281021 -319.148386 
L 444.485585 -319.148386 
L 447.690148 -319.305104 
L 450.894712 -321.228117 
L 454.099276 -321.228117 
L 457.30384 -321.228117 
L 460.508404 -321.228117 
L 463.712968 -321.228117 
L 466.917532 -321.228117 
L 470.122096 -321.228117 
L 473.32666 -321.228117 
L 476.531223 -321.228117 
L 479.735787 -321.228117 
L 482.940351 -321.228117 
L 486.144915 -321.228117 
L 489.349479 -321.228117 
L 492.554043 -321.228117 
L 495.758607 -321.228117 
L 498.963171 -321.228117 
L 502.167734 -321.228117 
L 505.372298 -321.228117 
L 508.576862 -321.228117 
L 511.781426 -321.228117 
L 514.98599 -321.228117 
L 518.190554 -321.228117 
L 521.395118 -321.228117 
L 524.599682 -321.228117 
L 527.804245 -321.228117 
L 531.008809 -321.228117 
L 534.213373 -321.228117 
L 537.417937 -321.228117 
L 540.622501 -321.228117 
L 543.827065 -321.228117 
L 547.031629 -321.228117 
L 550.236193 -321.228117 
L 553.440757 -321.228117 
L 556.64532 -321.228117 
L 559.849884 -321.228117 
L 563.054448 -321.228117 
L 566.259012 -321.228117 
L 569.463576 -321.228117 
L 572.66814 -321.228117 
L 575.872704 -321.228117 
L 579.077268 -321.228117 
L 582.281831 -321.228117 
L 585.486395 -321.228117 
L 588.690959 -321.228117 
L 591.895523 -321.228117 
L 595.100087 -321.228117 
L 598.304651 -321.228117 
L 601.509215 -321.228117 
L 604.713779 -321.228117 
L 607.918343 -321.228117 
L 611.122906 -321.228117 
L 614.32747 -321.228117 
L 617.532034 -321.228117 
L 620.736598 -321.228117 
L 623.941162 -321.228117 
L 627.145726 -321.228117 
L 630.35029 -321.228117 
L 633.554854 -321.228117 
L 636.759417 -321.228117 
L 639.963981 -321.228117 
L 643.168545 -321.228117 
L 646.373109 -321.228117 
L 649.577673 -321.228117 
L 652.782237 -321.228117 
L 655.986801 -321.228117 
L 659.191365 -321.228117 
L 662.395928 -321.228117 
L 665.600492 -321.228117 
L 668.805056 -321.228117 
L 672.00962 -321.228117 
L 675.214184 -321.228117 
L 678.418748 -321.228117 
L 681.623312 -321.228117 
L 684.827876 -321.228117 
L 688.03244 -321.228117 
L 691.237003 -321.228117 
L 694.441567 -321.228117 
L 697.646131 -321.228117 
L 700.850695 -321.228117 
L 704.055259 -321.228117 
L 707.259823 -321.228117 
L 710.464387 -321.228117 
L 713.668951 -321.228117 
L 716.873514 -321.228117 
L 720.078078 -321.228117 
L 723.282642 -321.228117 
L 726.487206 -321.228117 
L 729.69177 -321.228117 
L 732.896334 -321.228117 
L 736.100898 -321.228117 
L 739.305462 -321.228117 
L 742.510026 -321.228117 
L 745.714589 -321.228117 
L 745.714589 -473.335985 
L 745.714589 -473.335985 
L 742.510026 -472.846473 
L 739.305462 -471.364547 
L 736.100898 -469.754387 
L 732.896334 -468.34174 
L 729.69177 -465.244902 
L 726.487206 -461.796943 
L 723.282642 -461.796943 
L 720.078078 -461.796943 
L 716.873514 -461.796943 
L 713.668951 -461.796943 
L 710.464387 -461.796943 
L 707.259823 -461.796943 
L 704.055259 -461.796943 
L 700.850695 -459.568609 
L 697.646131 -459.568609 
L 694.441567 -459.356986 
L 691.237003 -459.062589 
L 688.03244 -457.203646 
L 684.827876 -455.074649 
L 681.623312 -453.527047 
L 678.418748 -447.639658 
L 675.214184 -447.639658 
L 672.00962 -447.639658 
L 668.805056 -442.501633 
L 665.600492 -435.1556 
L 662.395928 -435.1556 
L 659.191365 -435.1556 
L 655.986801 -433.666856 
L 652.782237 -433.666856 
L 649.577673 -433.666856 
L 646.373109 -433.666856 
L 643.168545 -433.666856 
L 639.963981 -433.666856 
L 636.759417 -433.666856 
L 633.554854 -433.666856 
L 630.35029 -433.666856 
L 627.145726 -433.666856 
L 623.941162 -433.666856 
L 620.736598 -433.666856 
L 617.532034 -433.666856 
L 614.32747 -433.666856 
L 611.122906 -433.666856 
L 607.918343 -433.666856 
L 604.713779 -433.142994 
L 601.509215 -424.668982 
L 598.304651 -424.668982 
L 595.100087 -424.668982 
L 591.895523 -424.668982 
L 588.690959 -424.668982 
L 585.486395 -424.668982 
L 582.281831 -424.668982 
L 579.077268 -424.668982 
L 575.872704 -424.668982 
L 572.66814 -424.668982 
L 569.463576 -424.668982 
L 566.259012 -424.668982 
L 563.054448 -424.668982 
L 559.849884 -424.668982 
L 556.64532 -424.668982 
L 553.440757 -424.668982 
L 550.236193 -424.668982 
L 547.031629 -424.668982 
L 543.827065 -424.668982 
L 540.622501 -424.668982 
L 537.417937 -424.668982 
L 534.213373 -424.668982 
L 531.008809 -424.668982 
L 527.804245 -424.668982 
L 524.599682 -424.668982 
L 521.395118 -424.668982 
L 518.190554 -424.668982 
L 514.98599 -424.668982 
L 511.781426 -424.668982 
L 508.576862 -424.668982 
L 505.372298 -424.668982 
L 502.167734 -424.668982 
L 498.963171 -424.668982 
L 495.758607 -422.762786 
L 492.554043 -420.007349 
L 489.349479 -415.119716 
L 486.144915 -412.349587 
L 482.940351 -410.079194 
L 479.735787 -401.368618 
L 476.531223 -401.368618 
L 473.32666 -401.368618 
L 470.122096 -401.368618 
L 466.917532 -401.368618 
L 463.712968 -401.368618 
L 460.508404 -401.368618 
L 457.30384 -401.368618 
L 454.099276 -401.368618 
L 450.894712 -401.368618 
L 447.690148 -401.368618 
L 444.485585 -401.368618 
L 441.281021 -400.874183 
L 438.076457 -400.874183 
L 434.871893 -399.978336 
L 431.667329 -399.978336 
L 428.462765 -399.978336 
L 425.258201 -399.978336 
L 422.053637 -399.978336 
L 418.849074 -399.978336 
L 415.64451 -397.73055 
L 412.439946 -395.489943 
L 409.235382 -395.489943 
L 406.030818 -392.742441 
L 402.826254 -392.058317 
L 399.62169 -387.12426 
L 396.417126 -387.12426 
L 393.212562 -387.12426 
L 390.007999 -387.12426 
L 386.803435 -384.626107 
L 383.598871 -384.626107 
L 380.394307 -381.458726 
L 377.189743 -381.458726 
L 373.985179 -378.21652 
L 370.780615 -377.078802 
L 367.576051 -377.078802 
L 364.371488 -375.499413 
L 361.166924 -375.499413 
L 357.96236 -375.499413 
L 354.757796 -375.499413 
L 351.553232 -375.499413 
L 348.348668 -375.499413 
L 345.144104 -371.298904 
L 341.93954 -371.298904 
L 338.734977 -368.438013 
L 335.530413 -365.636299 
L 332.325849 -364.677253 
L 329.121285 -364.562377 
L 325.916721 -364.562377 
L 322.712157 -364.562377 
L 319.507593 -363.431716 
L 316.303029 -360.153132 
L 313.098465 -358.308661 
L 309.893902 -358.308661 
L 306.689338 -358.308661 
L 303.484774 -358.308661 
L 300.28021 -356.651945 
L 297.075646 -356.651945 
L 293.871082 -356.651945 
L 290.666518 -356.651945 
L 287.461954 -356.334498 
L 284.257391 -356.334498 
L 281.052827 -356.334498 
L 277.848263 -356.334498 
L 274.643699 -356.334498 
L 271.439135 -356.334498 
L 268.234571 -355.241672 
L 265.030007 -352.807775 
L 261.825443 -350.500252 
L 258.620879 -345.226226 
L 255.416316 -344.940473 
L 252.211752 -344.940473 
L 249.007188 -344.940473 
L 245.802624 -343.533881 
L 242.59806 -336.264902 
L 239.393496 -334.778888 
L 236.188932 -334.778888 
L 232.984368 -334.778888 
L 229.779805 -334.778888 
L 226.575241 -334.778888 
L 223.370677 -332.820604 
L 220.166113 -330.587765 
L 216.961549 -328.849307 
L 213.756985 -321.466479 
L 210.552421 -317.160094 
L 207.347857 -317.097804 
L 204.143294 -317.097804 
L 200.93873 -314.12293 
L 197.734166 -298.008214 
L 194.529602 -295.976562 
L 191.325038 -294.717282 
L 188.120474 -293.864077 
L 184.91591 -293.463314 
L 181.711346 -293.088559 
L 178.506782 -292.561129 
L 175.302219 -292.561129 
L 172.097655 -292.561129 
L 168.893091 -292.561129 
L 165.688527 -292.561129 
L 162.483963 -292.561129 
L 159.279399 -292.561129 
L 156.074835 -292.561129 
L 152.870271 -292.561129 
L 149.665708 -292.561129 
L 146.461144 -288.316745 
L 143.25658 -288.316745 
L 140.052016 -288.286738 
L 136.847452 -284.068956 
L 133.642888 -284.068956 
L 130.438324 -284.068956 
L 127.23376 -282.228629 
L 124.029196 -280.694291 
L 120.824633 -280.694291 
L 117.620069 -266.668594 
L 114.415505 -264.438502 
L 111.210941 -256.360764 
L 108.006377 -247.201759 
z
" style="stroke: #0000ff; stroke-opacity: 0.3"/>
    </defs>
    <g clip-path="url(#p23f4d63ce9)">
     <use xlink:href="#m2e14da907b" x="0" y="576" style="fill: #0000ff; fill-opacity: 0.3; stroke: #0000ff; stroke-opacity: 0.3"/>
    </g>
   </g>
   <g id="matplotlib.axis_1">
    <g id="xtick_1">
     <g id="line2d_1">
      <path d="M 108 512.64 
L 108 69.12 
" clip-path="url(#p23f4d63ce9)" style="fill: none; stroke: #b0b0b0; stroke-opacity: 0.3; stroke-width: 0.8; stroke-linecap: square"/>
     </g>
     <g id="line2d_2">
      <defs>
       <path id="m0fee126181" d="M 0 0 
L 0 3.5 
" style="stroke: #000000; stroke-width: 0.8"/>
      </defs>
      <g>
       <use xlink:href="#m0fee126181" x="108" y="512.64" style="stroke: #000000; stroke-width: 0.8"/>
      </g>
     </g>
     <g id="text_1">
      <!-- 0 -->
      <g transform="translate(101.6375 534.836875) scale(0.2 -0.2)">
       <defs>
        <path id="DejaVuSans-30" d="M 2034 4250 
Q 1547 4250 1301 3770 
Q 1056 3291 1056 2328 
Q 1056 1369 1301 889 
Q 1547 409 2034 409 
Q 2525 409 2770 889 
Q 3016 1369 3016 2328 
Q 3016 3291 2770 3770 
Q 2525 4250 2034 4250 
z
M 2034 4750 
Q 2819 4750 3233 4129 
Q 3647 3509 3647 2328 
Q 3647 1150 3233 529 
Q 2819 -91 2034 -91 
Q 1250 -91 836 529 
Q 422 1150 422 2328 
Q 422 3509 836 4129 
Q 1250 4750 2034 4750 
z
" transform="scale(0.015625)"/>
       </defs>
       <use xlink:href="#DejaVuSans-30"/>
      </g>
     </g>
    </g>
    <g id="xtick_2">
     <g id="line2d_3">
      <path d="M 235.541642 512.64 
L 235.541642 69.12 
" clip-path="url(#p23f4d63ce9)" style="fill: none; stroke: #b0b0b0; stroke-opacity: 0.3; stroke-width: 0.8; stroke-linecap: square"/>
     </g>
     <g id="line2d_4">
      <g>
       <use xlink:href="#m0fee126181" x="235.541642" y="512.64" style="stroke: #000000; stroke-width: 0.8"/>
      </g>
     </g>
     <g id="text_2">
      <!-- 20000 -->
      <g transform="translate(203.729142 534.836875) scale(0.2 -0.2)">
       <defs>
        <path id="DejaVuSans-32" d="M 1228 531 
L 3431 531 
L 3431 0 
L 469 0 
L 469 531 
Q 828 903 1448 1529 
Q 2069 2156 2228 2338 
Q 2531 2678 2651 2914 
Q 2772 3150 2772 3378 
Q 2772 3750 2511 3984 
Q 2250 4219 1831 4219 
Q 1534 4219 1204 4116 
Q 875 4013 500 3803 
L 500 4441 
Q 881 4594 1212 4672 
Q 1544 4750 1819 4750 
Q 2544 4750 2975 4387 
Q 3406 4025 3406 3419 
Q 3406 3131 3298 2873 
Q 3191 2616 2906 2266 
Q 2828 2175 2409 1742 
Q 1991 1309 1228 531 
z
" transform="scale(0.015625)"/>
       </defs>
       <use xlink:href="#DejaVuSans-32"/>
       <use xlink:href="#DejaVuSans-30" transform="translate(63.623047 0)"/>
       <use xlink:href="#DejaVuSans-30" transform="translate(127.246094 0)"/>
       <use xlink:href="#DejaVuSans-30" transform="translate(190.869141 0)"/>
       <use xlink:href="#DejaVuSans-30" transform="translate(254.492188 0)"/>
      </g>
     </g>
    </g>
    <g id="xtick_3">
     <g id="line2d_5">
      <path d="M 363.083285 512.64 
L 363.083285 69.12 
" clip-path="url(#p23f4d63ce9)" style="fill: none; stroke: #b0b0b0; stroke-opacity: 0.3; stroke-width: 0.8; stroke-linecap: square"/>
     </g>
     <g id="line2d_6">
      <g>
       <use xlink:href="#m0fee126181" x="363.083285" y="512.64" style="stroke: #000000; stroke-width: 0.8"/>
      </g>
     </g>
     <g id="text_3">
      <!-- 40000 -->
      <g transform="translate(331.270785 534.836875) scale(0.2 -0.2)">
       <defs>
        <path id="DejaVuSans-34" d="M 2419 4116 
L 825 1625 
L 2419 1625 
L 2419 4116 
z
M 2253 4666 
L 3047 4666 
L 3047 1625 
L 3713 1625 
L 3713 1100 
L 3047 1100 
L 3047 0 
L 2419 0 
L 2419 1100 
L 313 1100 
L 313 1709 
L 2253 4666 
z
" transform="scale(0.015625)"/>
       </defs>
       <use xlink:href="#DejaVuSans-34"/>
       <use xlink:href="#DejaVuSans-30" transform="translate(63.623047 0)"/>
       <use xlink:href="#DejaVuSans-30" transform="translate(127.246094 0)"/>
       <use xlink:href="#DejaVuSans-30" transform="translate(190.869141 0)"/>
       <use xlink:href="#DejaVuSans-30" transform="translate(254.492188 0)"/>
      </g>
     </g>
    </g>
    <g id="xtick_4">
     <g id="line2d_7">
      <path d="M 490.624927 512.64 
L 490.624927 69.12 
" clip-path="url(#p23f4d63ce9)" style="fill: none; stroke: #b0b0b0; stroke-opacity: 0.3; stroke-width: 0.8; stroke-linecap: square"/>
     </g>
     <g id="line2d_8">
      <g>
       <use xlink:href="#m0fee126181" x="490.624927" y="512.64" style="stroke: #000000; stroke-width: 0.8"/>
      </g>
     </g>
     <g id="text_4">
      <!-- 60000 -->
      <g transform="translate(458.812427 534.836875) scale(0.2 -0.2)">
       <defs>
        <path id="DejaVuSans-36" d="M 2113 2584 
Q 1688 2584 1439 2293 
Q 1191 2003 1191 1497 
Q 1191 994 1439 701 
Q 1688 409 2113 409 
Q 2538 409 2786 701 
Q 3034 994 3034 1497 
Q 3034 2003 2786 2293 
Q 2538 2584 2113 2584 
z
M 3366 4563 
L 3366 3988 
Q 3128 4100 2886 4159 
Q 2644 4219 2406 4219 
Q 1781 4219 1451 3797 
Q 1122 3375 1075 2522 
Q 1259 2794 1537 2939 
Q 1816 3084 2150 3084 
Q 2853 3084 3261 2657 
Q 3669 2231 3669 1497 
Q 3669 778 3244 343 
Q 2819 -91 2113 -91 
Q 1303 -91 875 529 
Q 447 1150 447 2328 
Q 447 3434 972 4092 
Q 1497 4750 2381 4750 
Q 2619 4750 2861 4703 
Q 3103 4656 3366 4563 
z
" transform="scale(0.015625)"/>
       </defs>
       <use xlink:href="#DejaVuSans-36"/>
       <use xlink:href="#DejaVuSans-30" transform="translate(63.623047 0)"/>
       <use xlink:href="#DejaVuSans-30" transform="translate(127.246094 0)"/>
       <use xlink:href="#DejaVuSans-30" transform="translate(190.869141 0)"/>
       <use xlink:href="#DejaVuSans-30" transform="translate(254.492188 0)"/>
      </g>
     </g>
    </g>
    <g id="xtick_5">
     <g id="line2d_9">
      <path d="M 618.16657 512.64 
L 618.16657 69.12 
" clip-path="url(#p23f4d63ce9)" style="fill: none; stroke: #b0b0b0; stroke-opacity: 0.3; stroke-width: 0.8; stroke-linecap: square"/>
     </g>
     <g id="line2d_10">
      <g>
       <use xlink:href="#m0fee126181" x="618.16657" y="512.64" style="stroke: #000000; stroke-width: 0.8"/>
      </g>
     </g>
     <g id="text_5">
      <!-- 80000 -->
      <g transform="translate(586.35407 534.836875) scale(0.2 -0.2)">
       <defs>
        <path id="DejaVuSans-38" d="M 2034 2216 
Q 1584 2216 1326 1975 
Q 1069 1734 1069 1313 
Q 1069 891 1326 650 
Q 1584 409 2034 409 
Q 2484 409 2743 651 
Q 3003 894 3003 1313 
Q 3003 1734 2745 1975 
Q 2488 2216 2034 2216 
z
M 1403 2484 
Q 997 2584 770 2862 
Q 544 3141 544 3541 
Q 544 4100 942 4425 
Q 1341 4750 2034 4750 
Q 2731 4750 3128 4425 
Q 3525 4100 3525 3541 
Q 3525 3141 3298 2862 
Q 3072 2584 2669 2484 
Q 3125 2378 3379 2068 
Q 3634 1759 3634 1313 
Q 3634 634 3220 271 
Q 2806 -91 2034 -91 
Q 1263 -91 848 271 
Q 434 634 434 1313 
Q 434 1759 690 2068 
Q 947 2378 1403 2484 
z
M 1172 3481 
Q 1172 3119 1398 2916 
Q 1625 2713 2034 2713 
Q 2441 2713 2670 2916 
Q 2900 3119 2900 3481 
Q 2900 3844 2670 4047 
Q 2441 4250 2034 4250 
Q 1625 4250 1398 4047 
Q 1172 3844 1172 3481 
z
" transform="scale(0.015625)"/>
       </defs>
       <use xlink:href="#DejaVuSans-38"/>
       <use xlink:href="#DejaVuSans-30" transform="translate(63.623047 0)"/>
       <use xlink:href="#DejaVuSans-30" transform="translate(127.246094 0)"/>
       <use xlink:href="#DejaVuSans-30" transform="translate(190.869141 0)"/>
       <use xlink:href="#DejaVuSans-30" transform="translate(254.492188 0)"/>
      </g>
     </g>
    </g>
    <g id="xtick_6">
     <g id="line2d_11">
      <path d="M 745.708212 512.64 
L 745.708212 69.12 
" clip-path="url(#p23f4d63ce9)" style="fill: none; stroke: #b0b0b0; stroke-opacity: 0.3; stroke-width: 0.8; stroke-linecap: square"/>
     </g>
     <g id="line2d_12">
      <g>
       <use xlink:href="#m0fee126181" x="745.708212" y="512.64" style="stroke: #000000; stroke-width: 0.8"/>
      </g>
     </g>
     <g id="text_6">
      <!-- 100000 -->
      <g transform="translate(707.533212 534.836875) scale(0.2 -0.2)">
       <defs>
        <path id="DejaVuSans-31" d="M 794 531 
L 1825 531 
L 1825 4091 
L 703 3866 
L 703 4441 
L 1819 4666 
L 2450 4666 
L 2450 531 
L 3481 531 
L 3481 0 
L 794 0 
L 794 531 
z
" transform="scale(0.015625)"/>
       </defs>
       <use xlink:href="#DejaVuSans-31"/>
       <use xlink:href="#DejaVuSans-30" transform="translate(63.623047 0)"/>
       <use xlink:href="#DejaVuSans-30" transform="translate(127.246094 0)"/>
       <use xlink:href="#DejaVuSans-30" transform="translate(190.869141 0)"/>
       <use xlink:href="#DejaVuSans-30" transform="translate(254.492188 0)"/>
       <use xlink:href="#DejaVuSans-30" transform="translate(318.115234 0)"/>
      </g>
     </g>
    </g>
    <g id="text_7">
     <!-- Timesteps -->
     <g transform="translate(381.230625 561.2325) scale(0.24 -0.24)">
      <defs>
       <path id="DejaVuSans-54" d="M -19 4666 
L 3928 4666 
L 3928 4134 
L 2272 4134 
L 2272 0 
L 1638 0 
L 1638 4134 
L -19 4134 
L -19 4666 
z
" transform="scale(0.015625)"/>
       <path id="DejaVuSans-69" d="M 603 3500 
L 1178 3500 
L 1178 0 
L 603 0 
L 603 3500 
z
M 603 4863 
L 1178 4863 
L 1178 4134 
L 603 4134 
L 603 4863 
z
" transform="scale(0.015625)"/>
       <path id="DejaVuSans-6d" d="M 3328 2828 
Q 3544 3216 3844 3400 
Q 4144 3584 4550 3584 
Q 5097 3584 5394 3201 
Q 5691 2819 5691 2113 
L 5691 0 
L 5113 0 
L 5113 2094 
Q 5113 2597 4934 2840 
Q 4756 3084 4391 3084 
Q 3944 3084 3684 2787 
Q 3425 2491 3425 1978 
L 3425 0 
L 2847 0 
L 2847 2094 
Q 2847 2600 2669 2842 
Q 2491 3084 2119 3084 
Q 1678 3084 1418 2786 
Q 1159 2488 1159 1978 
L 1159 0 
L 581 0 
L 581 3500 
L 1159 3500 
L 1159 2956 
Q 1356 3278 1631 3431 
Q 1906 3584 2284 3584 
Q 2666 3584 2933 3390 
Q 3200 3197 3328 2828 
z
" transform="scale(0.015625)"/>
       <path id="DejaVuSans-65" d="M 3597 1894 
L 3597 1613 
L 953 1613 
Q 991 1019 1311 708 
Q 1631 397 2203 397 
Q 2534 397 2845 478 
Q 3156 559 3463 722 
L 3463 178 
Q 3153 47 2828 -22 
Q 2503 -91 2169 -91 
Q 1331 -91 842 396 
Q 353 884 353 1716 
Q 353 2575 817 3079 
Q 1281 3584 2069 3584 
Q 2775 3584 3186 3129 
Q 3597 2675 3597 1894 
z
M 3022 2063 
Q 3016 2534 2758 2815 
Q 2500 3097 2075 3097 
Q 1594 3097 1305 2825 
Q 1016 2553 972 2059 
L 3022 2063 
z
" transform="scale(0.015625)"/>
       <path id="DejaVuSans-73" d="M 2834 3397 
L 2834 2853 
Q 2591 2978 2328 3040 
Q 2066 3103 1784 3103 
Q 1356 3103 1142 2972 
Q 928 2841 928 2578 
Q 928 2378 1081 2264 
Q 1234 2150 1697 2047 
L 1894 2003 
Q 2506 1872 2764 1633 
Q 3022 1394 3022 966 
Q 3022 478 2636 193 
Q 2250 -91 1575 -91 
Q 1294 -91 989 -36 
Q 684 19 347 128 
L 347 722 
Q 666 556 975 473 
Q 1284 391 1588 391 
Q 1994 391 2212 530 
Q 2431 669 2431 922 
Q 2431 1156 2273 1281 
Q 2116 1406 1581 1522 
L 1381 1569 
Q 847 1681 609 1914 
Q 372 2147 372 2553 
Q 372 3047 722 3315 
Q 1072 3584 1716 3584 
Q 2034 3584 2315 3537 
Q 2597 3491 2834 3397 
z
" transform="scale(0.015625)"/>
       <path id="DejaVuSans-74" d="M 1172 4494 
L 1172 3500 
L 2356 3500 
L 2356 3053 
L 1172 3053 
L 1172 1153 
Q 1172 725 1289 603 
Q 1406 481 1766 481 
L 2356 481 
L 2356 0 
L 1766 0 
Q 1100 0 847 248 
Q 594 497 594 1153 
L 594 3053 
L 172 3053 
L 172 3500 
L 594 3500 
L 594 4494 
L 1172 4494 
z
" transform="scale(0.015625)"/>
       <path id="DejaVuSans-70" d="M 1159 525 
L 1159 -1331 
L 581 -1331 
L 581 3500 
L 1159 3500 
L 1159 2969 
Q 1341 3281 1617 3432 
Q 1894 3584 2278 3584 
Q 2916 3584 3314 3078 
Q 3713 2572 3713 1747 
Q 3713 922 3314 415 
Q 2916 -91 2278 -91 
Q 1894 -91 1617 61 
Q 1341 213 1159 525 
z
M 3116 1747 
Q 3116 2381 2855 2742 
Q 2594 3103 2138 3103 
Q 1681 3103 1420 2742 
Q 1159 2381 1159 1747 
Q 1159 1113 1420 752 
Q 1681 391 2138 391 
Q 2594 391 2855 752 
Q 3116 1113 3116 1747 
z
" transform="scale(0.015625)"/>
      </defs>
      <use xlink:href="#DejaVuSans-54"/>
      <use xlink:href="#DejaVuSans-69" transform="translate(57.958984 0)"/>
      <use xlink:href="#DejaVuSans-6d" transform="translate(85.742188 0)"/>
      <use xlink:href="#DejaVuSans-65" transform="translate(183.154297 0)"/>
      <use xlink:href="#DejaVuSans-73" transform="translate(244.677734 0)"/>
      <use xlink:href="#DejaVuSans-74" transform="translate(296.777344 0)"/>
      <use xlink:href="#DejaVuSans-65" transform="translate(335.986328 0)"/>
      <use xlink:href="#DejaVuSans-70" transform="translate(397.509766 0)"/>
      <use xlink:href="#DejaVuSans-73" transform="translate(460.986328 0)"/>
     </g>
    </g>
   </g>
   <g id="matplotlib.axis_2">
    <g id="ytick_1">
     <g id="line2d_13">
      <path d="M 108 512.64 
L 777.6 512.64 
" clip-path="url(#p23f4d63ce9)" style="fill: none; stroke: #b0b0b0; stroke-opacity: 0.3; stroke-width: 0.8; stroke-linecap: square"/>
     </g>
     <g id="line2d_14">
      <defs>
       <path id="m6781ea50af" d="M 0 0 
L -3.5 0 
" style="stroke: #000000; stroke-width: 0.8"/>
      </defs>
      <g>
       <use xlink:href="#m6781ea50af" x="108" y="512.64" style="stroke: #000000; stroke-width: 0.8"/>
      </g>
     </g>
     <g id="text_8">
      <!-- 0.0 -->
      <g transform="translate(69.19375 520.238438) scale(0.2 -0.2)">
       <defs>
        <path id="DejaVuSans-2e" d="M 684 794 
L 1344 794 
L 1344 0 
L 684 0 
L 684 794 
z
" transform="scale(0.015625)"/>
       </defs>
       <use xlink:href="#DejaVuSans-30"/>
       <use xlink:href="#DejaVuSans-2e" transform="translate(63.623047 0)"/>
       <use xlink:href="#DejaVuSans-30" transform="translate(95.410156 0)"/>
      </g>
     </g>
    </g>
    <g id="ytick_2">
     <g id="line2d_15">
      <path d="M 108 423.953235 
L 777.6 423.953235 
" clip-path="url(#p23f4d63ce9)" style="fill: none; stroke: #b0b0b0; stroke-opacity: 0.3; stroke-width: 0.8; stroke-linecap: square"/>
     </g>
     <g id="line2d_16">
      <g>
       <use xlink:href="#m6781ea50af" x="108" y="423.953235" style="stroke: #000000; stroke-width: 0.8"/>
      </g>
     </g>
     <g id="text_9">
      <!-- 0.2 -->
      <g transform="translate(69.19375 431.551672) scale(0.2 -0.2)">
       <use xlink:href="#DejaVuSans-30"/>
       <use xlink:href="#DejaVuSans-2e" transform="translate(63.623047 0)"/>
       <use xlink:href="#DejaVuSans-32" transform="translate(95.410156 0)"/>
      </g>
     </g>
    </g>
    <g id="ytick_3">
     <g id="line2d_17">
      <path d="M 108 335.266469 
L 777.6 335.266469 
" clip-path="url(#p23f4d63ce9)" style="fill: none; stroke: #b0b0b0; stroke-opacity: 0.3; stroke-width: 0.8; stroke-linecap: square"/>
     </g>
     <g id="line2d_18">
      <g>
       <use xlink:href="#m6781ea50af" x="108" y="335.266469" style="stroke: #000000; stroke-width: 0.8"/>
      </g>
     </g>
     <g id="text_10">
      <!-- 0.4 -->
      <g transform="translate(69.19375 342.864907) scale(0.2 -0.2)">
       <use xlink:href="#DejaVuSans-30"/>
       <use xlink:href="#DejaVuSans-2e" transform="translate(63.623047 0)"/>
       <use xlink:href="#DejaVuSans-34" transform="translate(95.410156 0)"/>
      </g>
     </g>
    </g>
    <g id="ytick_4">
     <g id="line2d_19">
      <path d="M 108 246.579704 
L 777.6 246.579704 
" clip-path="url(#p23f4d63ce9)" style="fill: none; stroke: #b0b0b0; stroke-opacity: 0.3; stroke-width: 0.8; stroke-linecap: square"/>
     </g>
     <g id="line2d_20">
      <g>
       <use xlink:href="#m6781ea50af" x="108" y="246.579704" style="stroke: #000000; stroke-width: 0.8"/>
      </g>
     </g>
     <g id="text_11">
      <!-- 0.6 -->
      <g transform="translate(69.19375 254.178141) scale(0.2 -0.2)">
       <use xlink:href="#DejaVuSans-30"/>
       <use xlink:href="#DejaVuSans-2e" transform="translate(63.623047 0)"/>
       <use xlink:href="#DejaVuSans-36" transform="translate(95.410156 0)"/>
      </g>
     </g>
    </g>
    <g id="ytick_5">
     <g id="line2d_21">
      <path d="M 108 157.892938 
L 777.6 157.892938 
" clip-path="url(#p23f4d63ce9)" style="fill: none; stroke: #b0b0b0; stroke-opacity: 0.3; stroke-width: 0.8; stroke-linecap: square"/>
     </g>
     <g id="line2d_22">
      <g>
       <use xlink:href="#m6781ea50af" x="108" y="157.892938" style="stroke: #000000; stroke-width: 0.8"/>
      </g>
     </g>
     <g id="text_12">
      <!-- 0.8 -->
      <g transform="translate(69.19375 165.491376) scale(0.2 -0.2)">
       <use xlink:href="#DejaVuSans-30"/>
       <use xlink:href="#DejaVuSans-2e" transform="translate(63.623047 0)"/>
       <use xlink:href="#DejaVuSans-38" transform="translate(95.410156 0)"/>
      </g>
     </g>
    </g>
    <g id="ytick_6">
     <g id="line2d_23">
      <path d="M 108 69.206173 
L 777.6 69.206173 
" clip-path="url(#p23f4d63ce9)" style="fill: none; stroke: #b0b0b0; stroke-opacity: 0.3; stroke-width: 0.8; stroke-linecap: square"/>
     </g>
     <g id="line2d_24">
      <g>
       <use xlink:href="#m6781ea50af" x="108" y="69.206173" style="stroke: #000000; stroke-width: 0.8"/>
      </g>
     </g>
     <g id="text_13">
      <!-- 1.0 -->
      <g transform="translate(69.19375 76.804611) scale(0.2 -0.2)">
       <use xlink:href="#DejaVuSans-31"/>
       <use xlink:href="#DejaVuSans-2e" transform="translate(63.623047 0)"/>
       <use xlink:href="#DejaVuSans-30" transform="translate(95.410156 0)"/>
      </g>
     </g>
    </g>
    <g id="text_14">
     <!-- Best Episode Reward (Running Max) -->
     <g transform="translate(60.2025 507.871875) rotate(-90) scale(0.24 -0.24)">
      <defs>
       <path id="DejaVuSans-42" d="M 1259 2228 
L 1259 519 
L 2272 519 
Q 2781 519 3026 730 
Q 3272 941 3272 1375 
Q 3272 1813 3026 2020 
Q 2781 2228 2272 2228 
L 1259 2228 
z
M 1259 4147 
L 1259 2741 
L 2194 2741 
Q 2656 2741 2882 2914 
Q 3109 3088 3109 3444 
Q 3109 3797 2882 3972 
Q 2656 4147 2194 4147 
L 1259 4147 
z
M 628 4666 
L 2241 4666 
Q 2963 4666 3353 4366 
Q 3744 4066 3744 3513 
Q 3744 3084 3544 2831 
Q 3344 2578 2956 2516 
Q 3422 2416 3680 2098 
Q 3938 1781 3938 1306 
Q 3938 681 3513 340 
Q 3088 0 2303 0 
L 628 0 
L 628 4666 
z
" transform="scale(0.015625)"/>
       <path id="DejaVuSans-20" transform="scale(0.015625)"/>
       <path id="DejaVuSans-45" d="M 628 4666 
L 3578 4666 
L 3578 4134 
L 1259 4134 
L 1259 2753 
L 3481 2753 
L 3481 2222 
L 1259 2222 
L 1259 531 
L 3634 531 
L 3634 0 
L 628 0 
L 628 4666 
z
" transform="scale(0.015625)"/>
       <path id="DejaVuSans-6f" d="M 1959 3097 
Q 1497 3097 1228 2736 
Q 959 2375 959 1747 
Q 959 1119 1226 758 
Q 1494 397 1959 397 
Q 2419 397 2687 759 
Q 2956 1122 2956 1747 
Q 2956 2369 2687 2733 
Q 2419 3097 1959 3097 
z
M 1959 3584 
Q 2709 3584 3137 3096 
Q 3566 2609 3566 1747 
Q 3566 888 3137 398 
Q 2709 -91 1959 -91 
Q 1206 -91 779 398 
Q 353 888 353 1747 
Q 353 2609 779 3096 
Q 1206 3584 1959 3584 
z
" transform="scale(0.015625)"/>
       <path id="DejaVuSans-64" d="M 2906 2969 
L 2906 4863 
L 3481 4863 
L 3481 0 
L 2906 0 
L 2906 525 
Q 2725 213 2448 61 
Q 2172 -91 1784 -91 
Q 1150 -91 751 415 
Q 353 922 353 1747 
Q 353 2572 751 3078 
Q 1150 3584 1784 3584 
Q 2172 3584 2448 3432 
Q 2725 3281 2906 2969 
z
M 947 1747 
Q 947 1113 1208 752 
Q 1469 391 1925 391 
Q 2381 391 2643 752 
Q 2906 1113 2906 1747 
Q 2906 2381 2643 2742 
Q 2381 3103 1925 3103 
Q 1469 3103 1208 2742 
Q 947 2381 947 1747 
z
" transform="scale(0.015625)"/>
       <path id="DejaVuSans-52" d="M 2841 2188 
Q 3044 2119 3236 1894 
Q 3428 1669 3622 1275 
L 4263 0 
L 3584 0 
L 2988 1197 
Q 2756 1666 2539 1819 
Q 2322 1972 1947 1972 
L 1259 1972 
L 1259 0 
L 628 0 
L 628 4666 
L 2053 4666 
Q 2853 4666 3247 4331 
Q 3641 3997 3641 3322 
Q 3641 2881 3436 2590 
Q 3231 2300 2841 2188 
z
M 1259 4147 
L 1259 2491 
L 2053 2491 
Q 2509 2491 2742 2702 
Q 2975 2913 2975 3322 
Q 2975 3731 2742 3939 
Q 2509 4147 2053 4147 
L 1259 4147 
z
" transform="scale(0.015625)"/>
       <path id="DejaVuSans-77" d="M 269 3500 
L 844 3500 
L 1563 769 
L 2278 3500 
L 2956 3500 
L 3675 769 
L 4391 3500 
L 4966 3500 
L 4050 0 
L 3372 0 
L 2619 2869 
L 1863 0 
L 1184 0 
L 269 3500 
z
" transform="scale(0.015625)"/>
       <path id="DejaVuSans-61" d="M 2194 1759 
Q 1497 1759 1228 1600 
Q 959 1441 959 1056 
Q 959 750 1161 570 
Q 1363 391 1709 391 
Q 2188 391 2477 730 
Q 2766 1069 2766 1631 
L 2766 1759 
L 2194 1759 
z
M 3341 1997 
L 3341 0 
L 2766 0 
L 2766 531 
Q 2569 213 2275 61 
Q 1981 -91 1556 -91 
Q 1019 -91 701 211 
Q 384 513 384 1019 
Q 384 1609 779 1909 
Q 1175 2209 1959 2209 
L 2766 2209 
L 2766 2266 
Q 2766 2663 2505 2880 
Q 2244 3097 1772 3097 
Q 1472 3097 1187 3025 
Q 903 2953 641 2809 
L 641 3341 
Q 956 3463 1253 3523 
Q 1550 3584 1831 3584 
Q 2591 3584 2966 3190 
Q 3341 2797 3341 1997 
z
" transform="scale(0.015625)"/>
       <path id="DejaVuSans-72" d="M 2631 2963 
Q 2534 3019 2420 3045 
Q 2306 3072 2169 3072 
Q 1681 3072 1420 2755 
Q 1159 2438 1159 1844 
L 1159 0 
L 581 0 
L 581 3500 
L 1159 3500 
L 1159 2956 
Q 1341 3275 1631 3429 
Q 1922 3584 2338 3584 
Q 2397 3584 2469 3576 
Q 2541 3569 2628 3553 
L 2631 2963 
z
" transform="scale(0.015625)"/>
       <path id="DejaVuSans-28" d="M 1984 4856 
Q 1566 4138 1362 3434 
Q 1159 2731 1159 2009 
Q 1159 1288 1364 580 
Q 1569 -128 1984 -844 
L 1484 -844 
Q 1016 -109 783 600 
Q 550 1309 550 2009 
Q 550 2706 781 3412 
Q 1013 4119 1484 4856 
L 1984 4856 
z
" transform="scale(0.015625)"/>
       <path id="DejaVuSans-75" d="M 544 1381 
L 544 3500 
L 1119 3500 
L 1119 1403 
Q 1119 906 1312 657 
Q 1506 409 1894 409 
Q 2359 409 2629 706 
Q 2900 1003 2900 1516 
L 2900 3500 
L 3475 3500 
L 3475 0 
L 2900 0 
L 2900 538 
Q 2691 219 2414 64 
Q 2138 -91 1772 -91 
Q 1169 -91 856 284 
Q 544 659 544 1381 
z
M 1991 3584 
L 1991 3584 
z
" transform="scale(0.015625)"/>
       <path id="DejaVuSans-6e" d="M 3513 2113 
L 3513 0 
L 2938 0 
L 2938 2094 
Q 2938 2591 2744 2837 
Q 2550 3084 2163 3084 
Q 1697 3084 1428 2787 
Q 1159 2491 1159 1978 
L 1159 0 
L 581 0 
L 581 3500 
L 1159 3500 
L 1159 2956 
Q 1366 3272 1645 3428 
Q 1925 3584 2291 3584 
Q 2894 3584 3203 3211 
Q 3513 2838 3513 2113 
z
" transform="scale(0.015625)"/>
       <path id="DejaVuSans-67" d="M 2906 1791 
Q 2906 2416 2648 2759 
Q 2391 3103 1925 3103 
Q 1463 3103 1205 2759 
Q 947 2416 947 1791 
Q 947 1169 1205 825 
Q 1463 481 1925 481 
Q 2391 481 2648 825 
Q 2906 1169 2906 1791 
z
M 3481 434 
Q 3481 -459 3084 -895 
Q 2688 -1331 1869 -1331 
Q 1566 -1331 1297 -1286 
Q 1028 -1241 775 -1147 
L 775 -588 
Q 1028 -725 1275 -790 
Q 1522 -856 1778 -856 
Q 2344 -856 2625 -561 
Q 2906 -266 2906 331 
L 2906 616 
Q 2728 306 2450 153 
Q 2172 0 1784 0 
Q 1141 0 747 490 
Q 353 981 353 1791 
Q 353 2603 747 3093 
Q 1141 3584 1784 3584 
Q 2172 3584 2450 3431 
Q 2728 3278 2906 2969 
L 2906 3500 
L 3481 3500 
L 3481 434 
z
" transform="scale(0.015625)"/>
       <path id="DejaVuSans-4d" d="M 628 4666 
L 1569 4666 
L 2759 1491 
L 3956 4666 
L 4897 4666 
L 4897 0 
L 4281 0 
L 4281 4097 
L 3078 897 
L 2444 897 
L 1241 4097 
L 1241 0 
L 628 0 
L 628 4666 
z
" transform="scale(0.015625)"/>
       <path id="DejaVuSans-78" d="M 3513 3500 
L 2247 1797 
L 3578 0 
L 2900 0 
L 1881 1375 
L 863 0 
L 184 0 
L 1544 1831 
L 300 3500 
L 978 3500 
L 1906 2253 
L 2834 3500 
L 3513 3500 
z
" transform="scale(0.015625)"/>
       <path id="DejaVuSans-29" d="M 513 4856 
L 1013 4856 
Q 1481 4119 1714 3412 
Q 1947 2706 1947 2009 
Q 1947 1309 1714 600 
Q 1481 -109 1013 -844 
L 513 -844 
Q 928 -128 1133 580 
Q 1338 1288 1338 2009 
Q 1338 2731 1133 3434 
Q 928 4138 513 4856 
z
" transform="scale(0.015625)"/>
      </defs>
      <use xlink:href="#DejaVuSans-42"/>
      <use xlink:href="#DejaVuSans-65" transform="translate(68.603516 0)"/>
      <use xlink:href="#DejaVuSans-73" transform="translate(130.126953 0)"/>
      <use xlink:href="#DejaVuSans-74" transform="translate(182.226562 0)"/>
      <use xlink:href="#DejaVuSans-20" transform="translate(221.435547 0)"/>
      <use xlink:href="#DejaVuSans-45" transform="translate(253.222656 0)"/>
      <use xlink:href="#DejaVuSans-70" transform="translate(316.40625 0)"/>
      <use xlink:href="#DejaVuSans-69" transform="translate(379.882812 0)"/>
      <use xlink:href="#DejaVuSans-73" transform="translate(407.666016 0)"/>
      <use xlink:href="#DejaVuSans-6f" transform="translate(459.765625 0)"/>
      <use xlink:href="#DejaVuSans-64" transform="translate(520.947266 0)"/>
      <use xlink:href="#DejaVuSans-65" transform="translate(584.423828 0)"/>
      <use xlink:href="#DejaVuSans-20" transform="translate(645.947266 0)"/>
      <use xlink:href="#DejaVuSans-52" transform="translate(677.734375 0)"/>
      <use xlink:href="#DejaVuSans-65" transform="translate(742.716797 0)"/>
      <use xlink:href="#DejaVuSans-77" transform="translate(804.240234 0)"/>
      <use xlink:href="#DejaVuSans-61" transform="translate(886.027344 0)"/>
      <use xlink:href="#DejaVuSans-72" transform="translate(947.306641 0)"/>
      <use xlink:href="#DejaVuSans-64" transform="translate(986.669922 0)"/>
      <use xlink:href="#DejaVuSans-20" transform="translate(1050.146484 0)"/>
      <use xlink:href="#DejaVuSans-28" transform="translate(1081.933594 0)"/>
      <use xlink:href="#DejaVuSans-52" transform="translate(1120.947266 0)"/>
      <use xlink:href="#DejaVuSans-75" transform="translate(1185.929688 0)"/>
      <use xlink:href="#DejaVuSans-6e" transform="translate(1249.308594 0)"/>
      <use xlink:href="#DejaVuSans-6e" transform="translate(1312.6875 0)"/>
      <use xlink:href="#DejaVuSans-69" transform="translate(1376.066406 0)"/>
      <use xlink:href="#DejaVuSans-6e" transform="translate(1403.849609 0)"/>
      <use xlink:href="#DejaVuSans-67" transform="translate(1467.228516 0)"/>
      <use xlink:href="#DejaVuSans-20" transform="translate(1530.705078 0)"/>
      <use xlink:href="#DejaVuSans-4d" transform="translate(1562.492188 0)"/>
      <use xlink:href="#DejaVuSans-61" transform="translate(1648.771484 0)"/>
      <use xlink:href="#DejaVuSans-78" transform="translate(1710.050781 0)"/>
      <use xlink:href="#DejaVuSans-29" transform="translate(1769.230469 0)"/>
     </g>
    </g>
   </g>
   <g id="line2d_25">
    <path d="M 108.006377 474.651427 
L 114.415505 464.566343 
L 117.620069 461.838879 
L 120.824633 458.496036 
L 124.029196 452.097918 
L 127.23376 448.896774 
L 130.438324 446.377307 
L 133.642888 444.482224 
L 136.847452 443.534551 
L 140.052016 440.688388 
L 143.25658 439.198585 
L 146.461144 438.309266 
L 149.665708 436.4858 
L 152.870271 435.937355 
L 159.279399 433.87753 
L 162.483963 432.291304 
L 165.688527 431.954184 
L 172.097655 430.781072 
L 175.302219 430.681973 
L 181.711346 429.910976 
L 188.120474 428.598793 
L 191.325038 428.3844 
L 194.529602 427.706271 
L 200.93873 426.572537 
L 207.347857 425.753104 
L 210.552421 424.321117 
L 216.961549 420.523076 
L 223.370677 416.978323 
L 226.575241 415.417583 
L 229.779805 413.224825 
L 232.984368 410.430448 
L 236.188932 409.066107 
L 242.59806 405.675669 
L 245.802624 404.311556 
L 249.007188 401.096234 
L 252.211752 397.221317 
L 255.416316 395.49413 
L 258.620879 392.439147 
L 261.825443 390.083506 
L 265.030007 387.501921 
L 271.439135 379.609891 
L 274.643699 378.386103 
L 281.052827 374.126858 
L 284.257391 372.488675 
L 287.461954 368.853338 
L 290.666518 365.959464 
L 293.871082 363.688818 
L 297.075646 362.523716 
L 300.28021 359.737978 
L 303.484774 355.347815 
L 306.689338 351.791542 
L 309.893902 347.520476 
L 313.098465 345.029911 
L 316.303029 343.057489 
L 319.507593 338.897096 
L 322.712157 335.372912 
L 325.916721 330.889917 
L 329.121285 328.124733 
L 332.325849 324.202072 
L 335.530413 319.81812 
L 338.734977 317.399429 
L 341.93954 315.296737 
L 345.144104 312.4642 
L 348.348668 309.893661 
L 351.553232 308.207883 
L 354.757796 304.569651 
L 357.96236 300.021897 
L 361.166924 296.56295 
L 364.371488 292.278133 
L 367.576051 289.99127 
L 370.780615 287.24336 
L 373.985179 282.37178 
L 377.189743 276.192768 
L 380.394307 270.784166 
L 383.598871 264.186243 
L 386.803435 260.830891 
L 390.007999 255.287766 
L 396.417126 250.285306 
L 399.62169 246.674619 
L 402.826254 243.425559 
L 406.030818 239.430015 
L 409.235382 236.660807 
L 412.439946 233.703764 
L 415.64451 232.009216 
L 418.849074 229.63809 
L 422.053637 226.694785 
L 425.258201 223.058793 
L 428.462765 219.961879 
L 431.667329 218.441854 
L 434.871893 215.959482 
L 438.076457 213.628284 
L 441.281021 211.631738 
L 450.894712 204.316243 
L 454.099276 202.634854 
L 457.30384 200.063784 
L 460.508404 198.381963 
L 463.712968 196.454241 
L 466.917532 195.277679 
L 470.122096 192.66944 
L 473.32666 192.081851 
L 479.735787 189.334949 
L 482.940351 188.031524 
L 486.144915 185.871054 
L 489.349479 184.375688 
L 492.554043 182.104993 
L 495.758607 180.693119 
L 502.167734 177.499252 
L 505.372298 175.28156 
L 508.576862 172.782419 
L 511.781426 171.465596 
L 514.98599 170.325724 
L 521.395118 167.774921 
L 524.599682 167.156546 
L 527.804245 166.939684 
L 531.008809 166.387955 
L 534.213373 164.492836 
L 537.417937 163.824451 
L 540.622501 162.56246 
L 543.827065 162.207396 
L 547.031629 161.211592 
L 550.236193 160.796145 
L 553.440757 159.754832 
L 556.64532 158.529767 
L 559.849884 158.123452 
L 563.054448 157.928934 
L 569.463576 157.853524 
L 572.66814 157.337187 
L 575.872704 156.321859 
L 585.486395 152.781295 
L 588.690959 152.536456 
L 595.100087 151.126718 
L 601.509215 151.036929 
L 604.713779 150.579229 
L 607.918343 150.382532 
L 611.122906 150.048819 
L 614.32747 149.263919 
L 623.941162 147.681207 
L 627.145726 147.266221 
L 633.554854 147.180179 
L 636.759417 146.743478 
L 643.168545 146.278467 
L 649.577673 146.278467 
L 652.782237 146.11475 
L 659.191365 144.452042 
L 665.600492 141.101578 
L 668.805056 139.215488 
L 672.00962 138.682141 
L 678.418748 138.499924 
L 681.623312 137.840111 
L 691.237003 134.090692 
L 694.441567 133.871791 
L 697.646131 132.031302 
L 700.850695 130.751053 
L 704.055259 130.661221 
L 707.259823 129.992373 
L 713.668951 129.992373 
L 716.873514 129.833592 
L 723.282642 129.833592 
L 726.487206 129.720864 
L 732.896334 129.633097 
L 742.510026 129.14821 
L 745.714589 128.467099 
L 745.714589 128.467099 
" clip-path="url(#p23f4d63ce9)" style="fill: none; stroke: #008000; stroke-width: 2; stroke-linecap: square"/>
   </g>
   <g id="line2d_26">
    <path d="M 108.006377 466.958226 
L 111.210941 432.85716 
L 114.415505 409.198546 
L 117.620069 392.391069 
L 120.824633 378.308164 
L 124.029196 372.49595 
L 127.23376 363.988845 
L 130.438324 356.97087 
L 133.642888 352.506418 
L 136.847452 348.461314 
L 140.052016 344.979487 
L 143.25658 338.093175 
L 146.461144 333.567892 
L 149.665708 330.499501 
L 152.870271 329.41038 
L 156.074835 328.168097 
L 159.279399 327.207349 
L 162.483963 326.382148 
L 165.688527 325.708139 
L 168.893091 324.015502 
L 172.097655 323.027125 
L 175.302219 321.817621 
L 178.506782 320.404499 
L 181.711346 319.158435 
L 184.91591 315.856786 
L 188.120474 313.689192 
L 191.325038 310.570522 
L 194.529602 309.283087 
L 197.734166 307.145153 
L 200.93873 302.816318 
L 204.143294 299.77432 
L 207.347857 297.479925 
L 210.552421 294.335804 
L 213.756985 291.995412 
L 216.961549 288.674231 
L 220.166113 285.799121 
L 223.370677 282.343366 
L 226.575241 279.864537 
L 229.779805 276.601428 
L 232.984368 274.375698 
L 236.188932 272.730524 
L 239.393496 269.890295 
L 242.59806 268.904604 
L 245.802624 267.158966 
L 249.007188 266.205049 
L 252.211752 265.06744 
L 255.416316 263.519948 
L 258.620879 263.181546 
L 261.825443 261.623401 
L 265.030007 260.209806 
L 268.234571 258.923703 
L 271.439135 258.451678 
L 274.643699 257.746857 
L 277.848263 257.701316 
L 281.052827 255.933936 
L 284.257391 254.923654 
L 287.461954 253.360509 
L 290.666518 252.089078 
L 293.871082 250.043819 
L 297.075646 248.580715 
L 300.28021 246.514712 
L 303.484774 245.476833 
L 306.689338 244.235971 
L 309.893902 243.399177 
L 313.098465 242.028481 
L 316.303029 241.381541 
L 319.507593 240.973945 
L 322.712157 240.783395 
L 325.916721 239.757186 
L 332.325849 239.742321 
L 335.530413 239.453048 
L 345.144104 237.711431 
L 348.348668 237.016385 
L 351.553232 236.449305 
L 354.757796 236.370215 
L 364.371488 234.486327 
L 367.576051 234.028977 
L 373.985179 232.752906 
L 377.189743 231.898321 
L 380.394307 231.882124 
L 386.803435 230.65302 
L 390.007999 229.876013 
L 393.212562 229.213875 
L 396.417126 227.973924 
L 406.030818 224.911508 
L 412.439946 223.831099 
L 418.849074 222.241488 
L 422.053637 222.036801 
L 425.258201 221.663512 
L 431.667329 221.580771 
L 438.076457 221.486471 
L 441.281021 221.146624 
L 444.485585 220.931617 
L 447.690148 220.878659 
L 450.894712 220.676237 
L 463.712968 220.577642 
L 470.122096 220.503704 
L 479.735787 220.503704 
L 482.940351 219.595834 
L 489.349479 219.115785 
L 492.554043 218.650296 
L 498.963171 218.206331 
L 508.576862 218.160953 
L 559.849884 218.160953 
L 563.054448 217.49972 
L 566.259012 216.985424 
L 569.463576 216.904278 
L 572.66814 216.585732 
L 575.872704 216.466664 
L 579.077268 216.221012 
L 601.509215 216.221012 
L 604.713779 215.413963 
L 614.32747 215.364071 
L 655.986801 215.364071 
L 659.191365 215.222286 
L 662.395928 214.630118 
L 668.805056 212.229042 
L 672.00962 211.688197 
L 678.418748 211.688197 
L 681.623312 211.068472 
L 684.827876 210.905566 
L 691.237003 209.243133 
L 694.441567 208.722391 
L 697.646131 208.086232 
L 707.259823 207.724082 
L 710.464387 206.335819 
L 713.668951 203.352931 
L 716.873514 203.223447 
L 723.282642 202.488113 
L 729.69177 200.790473 
L 732.896334 200.482276 
L 745.714589 199.996978 
L 745.714589 199.996978 
" clip-path="url(#p23f4d63ce9)" style="fill: none; stroke: #0000ff; stroke-width: 2; stroke-linecap: square"/>
   </g>
   <g id="patch_3">
    <path d="M 108 512.64 
L 108 69.12 
" style="fill: none; stroke: #000000; stroke-width: 0.8; stroke-linejoin: miter; stroke-linecap: square"/>
   </g>
   <g id="patch_4">
    <path d="M 777.6 512.64 
L 777.6 69.12 
" style="fill: none; stroke: #000000; stroke-width: 0.8; stroke-linejoin: miter; stroke-linecap: square"/>
   </g>
   <g id="patch_5">
    <path d="M 108 512.64 
L 777.6 512.64 
" style="fill: none; stroke: #000000; stroke-width: 0.8; stroke-linejoin: miter; stroke-linecap: square"/>
   </g>
   <g id="patch_6">
    <path d="M 108 69.12 
L 777.6 69.12 
" style="fill: none; stroke: #000000; stroke-width: 0.8; stroke-linejoin: miter; stroke-linecap: square"/>
   </g>
   <g id="legend_1">
    <g id="patch_7">
     <path d="M 428.625 502.64 
L 763.6 502.64 
Q 767.6 502.64 767.6 498.64 
L 767.6 441.9275 
Q 767.6 437.9275 763.6 437.9275 
L 428.625 437.9275 
Q 424.625 437.9275 424.625 441.9275 
L 424.625 498.64 
Q 424.625 502.64 428.625 502.64 
z
" style="fill: #ffffff; opacity: 0.8; stroke: #cccccc; stroke-linejoin: miter"/>
    </g>
    <g id="line2d_27">
     <path d="M 432.625 454.124375 
L 452.625 454.124375 
L 472.625 454.124375 
" style="fill: none; stroke: #008000; stroke-width: 2; stroke-linecap: square"/>
    </g>
    <g id="text_15">
     <!-- 7x7 Baseline (n=20) -->
     <g transform="translate(488.625 461.124375) scale(0.2 -0.2)">
      <defs>
       <path id="DejaVuSans-37" d="M 525 4666 
L 3525 4666 
L 3525 4397 
L 1831 0 
L 1172 0 
L 2766 4134 
L 525 4134 
L 525 4666 
z
" transform="scale(0.015625)"/>
       <path id="DejaVuSans-6c" d="M 603 4863 
L 1178 4863 
L 1178 0 
L 603 0 
L 603 4863 
z
" transform="scale(0.015625)"/>
       <path id="DejaVuSans-3d" d="M 678 2906 
L 4684 2906 
L 4684 2381 
L 678 2381 
L 678 2906 
z
M 678 1631 
L 4684 1631 
L 4684 1100 
L 678 1100 
L 678 1631 
z
" transform="scale(0.015625)"/>
      </defs>
      <use xlink:href="#DejaVuSans-37"/>
      <use xlink:href="#DejaVuSans-78" transform="translate(63.623047 0)"/>
      <use xlink:href="#DejaVuSans-37" transform="translate(122.802734 0)"/>
      <use xlink:href="#DejaVuSans-20" transform="translate(186.425781 0)"/>
      <use xlink:href="#DejaVuSans-42" transform="translate(218.212891 0)"/>
      <use xlink:href="#DejaVuSans-61" transform="translate(286.816406 0)"/>
      <use xlink:href="#DejaVuSans-73" transform="translate(348.095703 0)"/>
      <use xlink:href="#DejaVuSans-65" transform="translate(400.195312 0)"/>
      <use xlink:href="#DejaVuSans-6c" transform="translate(461.71875 0)"/>
      <use xlink:href="#DejaVuSans-69" transform="translate(489.501953 0)"/>
      <use xlink:href="#DejaVuSans-6e" transform="translate(517.285156 0)"/>
      <use xlink:href="#DejaVuSans-65" transform="translate(580.664062 0)"/>
      <use xlink:href="#DejaVuSans-20" transform="translate(642.1875 0)"/>
      <use xlink:href="#DejaVuSans-28" transform="translate(673.974609 0)"/>
      <use xlink:href="#DejaVuSans-6e" transform="translate(712.988281 0)"/>
      <use xlink:href="#DejaVuSans-3d" transform="translate(776.367188 0)"/>
      <use xlink:href="#DejaVuSans-32" transform="translate(860.15625 0)"/>
      <use xlink:href="#DejaVuSans-30" transform="translate(923.779297 0)"/>
      <use xlink:href="#DejaVuSans-29" transform="translate(987.402344 0)"/>
     </g>
    </g>
    <g id="line2d_28">
     <path d="M 432.625 483.480625 
L 452.625 483.480625 
L 472.625 483.480625 
" style="fill: none; stroke: #0000ff; stroke-width: 2; stroke-linecap: square"/>
    </g>
    <g id="text_16">
     <!-- Transfer 5x5 to 7x7 (n=20) -->
     <g transform="translate(488.625 490.480625) scale(0.2 -0.2)">
      <defs>
       <path id="DejaVuSans-66" d="M 2375 4863 
L 2375 4384 
L 1825 4384 
Q 1516 4384 1395 4259 
Q 1275 4134 1275 3809 
L 1275 3500 
L 2222 3500 
L 2222 3053 
L 1275 3053 
L 1275 0 
L 697 0 
L 697 3053 
L 147 3053 
L 147 3500 
L 697 3500 
L 697 3744 
Q 697 4328 969 4595 
Q 1241 4863 1831 4863 
L 2375 4863 
z
" transform="scale(0.015625)"/>
       <path id="DejaVuSans-35" d="M 691 4666 
L 3169 4666 
L 3169 4134 
L 1269 4134 
L 1269 2991 
Q 1406 3038 1543 3061 
Q 1681 3084 1819 3084 
Q 2600 3084 3056 2656 
Q 3513 2228 3513 1497 
Q 3513 744 3044 326 
Q 2575 -91 1722 -91 
Q 1428 -91 1123 -41 
Q 819 9 494 109 
L 494 744 
Q 775 591 1075 516 
Q 1375 441 1709 441 
Q 2250 441 2565 725 
Q 2881 1009 2881 1497 
Q 2881 1984 2565 2268 
Q 2250 2553 1709 2553 
Q 1456 2553 1204 2497 
Q 953 2441 691 2322 
L 691 4666 
z
" transform="scale(0.015625)"/>
      </defs>
      <use xlink:href="#DejaVuSans-54"/>
      <use xlink:href="#DejaVuSans-72" transform="translate(46.333984 0)"/>
      <use xlink:href="#DejaVuSans-61" transform="translate(87.447266 0)"/>
      <use xlink:href="#DejaVuSans-6e" transform="translate(148.726562 0)"/>
      <use xlink:href="#DejaVuSans-73" transform="translate(212.105469 0)"/>
      <use xlink:href="#DejaVuSans-66" transform="translate(264.205078 0)"/>
      <use xlink:href="#DejaVuSans-65" transform="translate(299.410156 0)"/>
      <use xlink:href="#DejaVuSans-72" transform="translate(360.933594 0)"/>
      <use xlink:href="#DejaVuSans-20" transform="translate(402.046875 0)"/>
      <use xlink:href="#DejaVuSans-35" transform="translate(433.833984 0)"/>
      <use xlink:href="#DejaVuSans-78" transform="translate(497.457031 0)"/>
      <use xlink:href="#DejaVuSans-35" transform="translate(556.636719 0)"/>
      <use xlink:href="#DejaVuSans-20" transform="translate(620.259766 0)"/>
      <use xlink:href="#DejaVuSans-74" transform="translate(652.046875 0)"/>
      <use xlink:href="#DejaVuSans-6f" transform="translate(691.255859 0)"/>
      <use xlink:href="#DejaVuSans-20" transform="translate(752.4375 0)"/>
      <use xlink:href="#DejaVuSans-37" transform="translate(784.224609 0)"/>
      <use xlink:href="#DejaVuSans-78" transform="translate(847.847656 0)"/>
      <use xlink:href="#DejaVuSans-37" transform="translate(907.027344 0)"/>
      <use xlink:href="#DejaVuSans-20" transform="translate(970.650391 0)"/>
      <use xlink:href="#DejaVuSans-28" transform="translate(1002.4375 0)"/>
      <use xlink:href="#DejaVuSans-6e" transform="translate(1041.451172 0)"/>
      <use xlink:href="#DejaVuSans-3d" transform="translate(1104.830078 0)"/>
      <use xlink:href="#DejaVuSans-32" transform="translate(1188.619141 0)"/>
      <use xlink:href="#DejaVuSans-30" transform="translate(1252.242188 0)"/>
      <use xlink:href="#DejaVuSans-29" transform="translate(1315.865234 0)"/>
     </g>
    </g>
   </g>
  </g>
 </g>
 <defs>
  <clipPath id="p23f4d63ce9">
   <rect x="108" y="69.12" width="669.6" height="443.52"/>
  </clipPath>
 </defs>
</svg>
